G04 EAGLE Gerber RS-274X export*
G75*
%MOMM*%
%FSLAX34Y34*%
%LPD*%
%INTop Copper*%
%IPPOS*%
%AMOC8*
5,1,8,0,0,1.08239X$1,22.5*%
G01*
G04 Define Apertures*
%ADD10C,0.279400*%
%ADD11C,0.254000*%
%ADD12C,1.786000*%
%ADD13R,1.300000X1.500000*%
%ADD14R,1.164600X1.465300*%
%ADD15R,1.465300X1.164600*%
%ADD16R,1.274700X1.850000*%
%ADD17C,2.320800*%
%ADD18C,2.016000*%
%ADD19R,1.270000X12.700000*%
%ADD20R,1.270000X12.000000*%
%ADD21R,1.200000X1.200000*%
%ADD22C,1.016000*%
%ADD23C,0.406400*%
%ADD24C,2.000000*%
%ADD25C,5.000000*%
%ADD26C,0.400000*%
%ADD27C,0.254000*%
G36*
X81431Y116171D02*
X80734Y116018D01*
X79936Y116147D01*
X79251Y116577D01*
X78788Y117241D01*
X78621Y118032D01*
X78776Y118826D01*
X80536Y123075D01*
X80536Y130925D01*
X77532Y138177D01*
X71981Y143728D01*
X64729Y146732D01*
X39006Y146732D01*
X38304Y146857D01*
X37616Y147282D01*
X37148Y147942D01*
X36974Y148732D01*
X37123Y149527D01*
X37569Y150201D01*
X59413Y172045D01*
X60960Y175779D01*
X60960Y186881D01*
X61109Y187644D01*
X61555Y188318D01*
X66168Y192931D01*
X68928Y199594D01*
X68928Y206806D01*
X66168Y213469D01*
X61069Y218568D01*
X54406Y221328D01*
X47194Y221328D01*
X40531Y218568D01*
X35432Y213469D01*
X32672Y206806D01*
X32672Y199594D01*
X35432Y192931D01*
X40045Y188318D01*
X40479Y187674D01*
X40640Y186881D01*
X40640Y182850D01*
X40491Y182087D01*
X40045Y181413D01*
X12359Y153727D01*
X11774Y153319D01*
X10987Y153133D01*
X10190Y153269D01*
X9508Y153705D01*
X9051Y154372D01*
X8890Y155164D01*
X8890Y426448D01*
X9015Y427151D01*
X9440Y427839D01*
X10100Y428307D01*
X10890Y428480D01*
X11685Y428332D01*
X12359Y427885D01*
X14205Y426039D01*
X17706Y424589D01*
X21495Y424589D01*
X24996Y426039D01*
X27675Y428719D01*
X28180Y429938D01*
X28609Y430586D01*
X29280Y431038D01*
X30499Y431543D01*
X33179Y434222D01*
X34629Y437723D01*
X34629Y441512D01*
X33179Y445013D01*
X31505Y446687D01*
X30997Y447535D01*
X30921Y448341D01*
X31166Y449111D01*
X31692Y449726D01*
X32416Y450086D01*
X38549Y451730D01*
X46103Y456091D01*
X50930Y460918D01*
X51544Y461339D01*
X52334Y461513D01*
X53129Y461364D01*
X53803Y460918D01*
X59614Y455107D01*
X60042Y454477D01*
X60209Y453686D01*
X60055Y452892D01*
X58072Y448106D01*
X58072Y440894D01*
X60832Y434231D01*
X65931Y429132D01*
X72594Y426372D01*
X79806Y426372D01*
X86469Y429132D01*
X91568Y434231D01*
X94328Y440894D01*
X94328Y448106D01*
X91568Y454769D01*
X90003Y456334D01*
X89569Y456978D01*
X89408Y457771D01*
X89408Y459827D01*
X87397Y464682D01*
X77303Y474776D01*
X76869Y475420D01*
X76708Y476213D01*
X76708Y516768D01*
X76839Y517485D01*
X77269Y518170D01*
X77933Y518633D01*
X78724Y518800D01*
X79518Y518645D01*
X82833Y517272D01*
X98767Y517272D01*
X100822Y518123D01*
X101584Y518278D01*
X102378Y518123D01*
X104433Y517272D01*
X120367Y517272D01*
X123354Y518509D01*
X125641Y520796D01*
X127031Y524153D01*
X127427Y524766D01*
X128086Y525234D01*
X128876Y525407D01*
X129671Y525259D01*
X130345Y524812D01*
X132298Y522860D01*
X138938Y522860D01*
X138938Y589662D01*
X140462Y589662D01*
X140462Y522860D01*
X147102Y522860D01*
X148590Y524348D01*
X148590Y531368D01*
X148727Y532101D01*
X149162Y532782D01*
X149829Y533239D01*
X150622Y533400D01*
X150678Y533400D01*
X151411Y533263D01*
X152092Y532828D01*
X152549Y532161D01*
X152710Y531368D01*
X152710Y523632D01*
X154063Y520364D01*
X156564Y517863D01*
X159832Y516510D01*
X192278Y516510D01*
X193011Y516373D01*
X193692Y515938D01*
X194149Y515271D01*
X194310Y514478D01*
X194310Y413475D01*
X194185Y412772D01*
X193760Y412084D01*
X193100Y411616D01*
X192310Y411443D01*
X191515Y411591D01*
X190841Y412038D01*
X185282Y417597D01*
X181660Y419098D01*
X181035Y419504D01*
X180572Y420167D01*
X180405Y420959D01*
X180560Y421753D01*
X183228Y428194D01*
X183228Y435406D01*
X180468Y442069D01*
X175369Y447168D01*
X168706Y449928D01*
X161494Y449928D01*
X154831Y447168D01*
X153266Y445603D01*
X152622Y445169D01*
X151829Y445008D01*
X132273Y445008D01*
X127418Y442997D01*
X75559Y391138D01*
X74945Y390717D01*
X74155Y390543D01*
X73360Y390692D01*
X72686Y391138D01*
X68363Y395461D01*
X68075Y395580D01*
X67462Y395976D01*
X66994Y396635D01*
X66821Y397425D01*
X66969Y398220D01*
X67416Y398894D01*
X68424Y399903D01*
X70170Y404118D01*
X70170Y405638D01*
X47230Y405638D01*
X47230Y404118D01*
X48976Y399903D01*
X49985Y398894D01*
X50399Y398295D01*
X50579Y397506D01*
X50437Y396710D01*
X49996Y396032D01*
X49325Y395580D01*
X49037Y395461D01*
X48380Y394803D01*
X47735Y394369D01*
X46943Y394208D01*
X43855Y394208D01*
X43601Y394224D01*
X41942Y394433D01*
X41386Y394280D01*
X40849Y394208D01*
X40273Y394208D01*
X38728Y393568D01*
X38487Y393486D01*
X36875Y393044D01*
X36419Y392690D01*
X35951Y392418D01*
X35418Y392197D01*
X34236Y391015D01*
X34045Y390847D01*
X24519Y383450D01*
X24051Y383178D01*
X23518Y382957D01*
X22336Y381775D01*
X22145Y381607D01*
X20824Y380581D01*
X20539Y380080D01*
X20210Y379649D01*
X19803Y379242D01*
X19163Y377697D01*
X19051Y377469D01*
X18223Y376016D01*
X18151Y375444D01*
X18013Y374920D01*
X17792Y374387D01*
X17792Y372715D01*
X17776Y372461D01*
X17567Y370802D01*
X17720Y370246D01*
X17792Y369709D01*
X17792Y274143D01*
X17691Y273509D01*
X17632Y273330D01*
X17786Y271283D01*
X17792Y271130D01*
X17792Y269077D01*
X17864Y268903D01*
X18013Y268278D01*
X18027Y268091D01*
X18953Y266258D01*
X19017Y266119D01*
X19803Y264222D01*
X19936Y264089D01*
X20312Y263569D01*
X20397Y263401D01*
X21954Y262063D01*
X22066Y261959D01*
X23518Y260507D01*
X23692Y260435D01*
X24239Y260098D01*
X40918Y245759D01*
X41030Y245655D01*
X42482Y244203D01*
X42656Y244131D01*
X43203Y243794D01*
X43345Y243672D01*
X45296Y243031D01*
X45440Y242978D01*
X47337Y242192D01*
X47525Y242192D01*
X48159Y242091D01*
X48337Y242032D01*
X50385Y242186D01*
X50538Y242192D01*
X71457Y242192D01*
X72220Y242043D01*
X72894Y241597D01*
X77219Y237272D01*
X84471Y234268D01*
X115529Y234268D01*
X122781Y237272D01*
X128332Y242823D01*
X131336Y250075D01*
X131336Y257215D01*
X131485Y257978D01*
X131931Y258652D01*
X136629Y263350D01*
X137274Y263785D01*
X138066Y263946D01*
X138386Y263946D01*
X141373Y265183D01*
X143660Y267469D01*
X143995Y268279D01*
X144413Y268915D01*
X145080Y269373D01*
X145872Y269534D01*
X147692Y269534D01*
X147692Y289267D01*
X145872Y289267D01*
X145125Y289409D01*
X144447Y289850D01*
X143995Y290521D01*
X143660Y291331D01*
X141373Y293617D01*
X138386Y294855D01*
X123506Y294855D01*
X120519Y293617D01*
X118232Y291331D01*
X117117Y288639D01*
X116744Y288050D01*
X116092Y287571D01*
X115305Y287385D01*
X114508Y287521D01*
X113826Y287957D01*
X113369Y288624D01*
X113208Y289416D01*
X113208Y309587D01*
X113357Y310350D01*
X113803Y311024D01*
X123657Y320878D01*
X124257Y321293D01*
X125046Y321472D01*
X125842Y321330D01*
X126519Y320889D01*
X126585Y320791D01*
X131637Y315739D01*
X137907Y313142D01*
X144693Y313142D01*
X150963Y315739D01*
X151621Y316397D01*
X152265Y316831D01*
X153057Y316992D01*
X153953Y316992D01*
X154731Y316837D01*
X157759Y315583D01*
X161188Y315583D01*
X161921Y315446D01*
X162602Y315011D01*
X163059Y314344D01*
X163220Y313551D01*
X163220Y312045D01*
X173849Y312045D01*
X173849Y302920D01*
X179100Y302920D01*
X179833Y302783D01*
X180514Y302348D01*
X180971Y301681D01*
X181132Y300888D01*
X181132Y246168D01*
X180983Y245405D01*
X180537Y244731D01*
X99903Y164097D01*
X97892Y159242D01*
X97892Y119260D01*
X97755Y118528D01*
X97320Y117846D01*
X96653Y117389D01*
X95860Y117228D01*
X83983Y117228D01*
X81431Y116171D01*
G37*
%LPC*%
G36*
X121732Y468193D02*
X136528Y468193D01*
X140029Y469643D01*
X142709Y472322D01*
X144159Y475823D01*
X144159Y479612D01*
X142709Y483113D01*
X140029Y485792D01*
X136528Y487243D01*
X121732Y487243D01*
X118232Y485792D01*
X115552Y483113D01*
X114102Y479612D01*
X114102Y475823D01*
X115552Y472322D01*
X118232Y469643D01*
X121732Y468193D01*
G37*
G36*
X47230Y407162D02*
X57938Y407162D01*
X57938Y417870D01*
X56418Y417870D01*
X52203Y416124D01*
X48976Y412897D01*
X47230Y408682D01*
X47230Y407162D01*
G37*
G36*
X59462Y407162D02*
X70170Y407162D01*
X70170Y408682D01*
X68424Y412897D01*
X65197Y416124D01*
X60982Y417870D01*
X59462Y417870D01*
X59462Y407162D01*
G37*
G36*
X164708Y302920D02*
X172325Y302920D01*
X172325Y310521D01*
X163220Y310521D01*
X163220Y304408D01*
X164708Y302920D01*
G37*
G36*
X149216Y280162D02*
X156817Y280162D01*
X156817Y287779D01*
X155329Y289267D01*
X149216Y289267D01*
X149216Y280162D01*
G37*
G36*
X149216Y269534D02*
X155329Y269534D01*
X156817Y271021D01*
X156817Y278638D01*
X149216Y278638D01*
X149216Y269534D01*
G37*
%LPD*%
G36*
X116086Y49546D02*
X115296Y49372D01*
X114501Y49520D01*
X113827Y49967D01*
X112878Y50916D01*
X108035Y52922D01*
X107287Y53457D01*
X104881Y56192D01*
X104531Y56754D01*
X103376Y57909D01*
X103287Y58004D01*
X102209Y59230D01*
X101673Y59613D01*
X100164Y60238D01*
X100046Y60291D01*
X98580Y61011D01*
X97939Y61160D01*
X96306Y61160D01*
X96176Y61164D01*
X94546Y61268D01*
X93894Y61160D01*
X30104Y61160D01*
X29372Y61297D01*
X28690Y61732D01*
X28233Y62399D01*
X28072Y63192D01*
X28072Y81576D01*
X28209Y82309D01*
X28644Y82990D01*
X29311Y83447D01*
X30104Y83608D01*
X42587Y83608D01*
X45575Y84845D01*
X47861Y87132D01*
X48923Y89695D01*
X49307Y90296D01*
X49963Y90769D01*
X50751Y90949D01*
X51548Y90807D01*
X52225Y90365D01*
X52677Y89695D01*
X53739Y87132D01*
X56025Y84845D01*
X59013Y83608D01*
X74993Y83608D01*
X77981Y84845D01*
X79575Y86440D01*
X80205Y86868D01*
X80996Y87035D01*
X81790Y86881D01*
X83983Y85972D01*
X100217Y85972D01*
X100822Y86223D01*
X101584Y86377D01*
X102378Y86223D01*
X102983Y85972D01*
X119217Y85972D01*
X120315Y86427D01*
X121060Y86581D01*
X121855Y86433D01*
X122529Y85986D01*
X123056Y85459D01*
X123887Y85115D01*
X124500Y84720D01*
X124968Y84060D01*
X125141Y83270D01*
X124993Y82475D01*
X124546Y81801D01*
X123109Y80364D01*
X122774Y79554D01*
X122356Y78918D01*
X121689Y78461D01*
X120897Y78300D01*
X118262Y78300D01*
X118262Y58220D01*
X120897Y58220D01*
X121644Y58077D01*
X122322Y57636D01*
X122774Y56966D01*
X123130Y56107D01*
X123480Y55600D01*
X123660Y54812D01*
X123518Y54016D01*
X123077Y53338D01*
X122406Y52886D01*
X117650Y50916D01*
X116701Y49967D01*
X116086Y49546D01*
G37*
%LPC*%
G36*
X108460Y69022D02*
X116738Y69022D01*
X116738Y78300D01*
X109948Y78300D01*
X108460Y76812D01*
X108460Y69022D01*
G37*
G36*
X109948Y58220D02*
X116738Y58220D01*
X116738Y67498D01*
X108460Y67498D01*
X108460Y59708D01*
X109948Y58220D01*
G37*
%LPD*%
G36*
X63919Y9051D02*
X63127Y8890D01*
X10922Y8890D01*
X10190Y9027D01*
X9508Y9462D01*
X9051Y10129D01*
X8890Y10922D01*
X8890Y47286D01*
X9015Y47988D01*
X9440Y48677D01*
X10100Y49144D01*
X10890Y49318D01*
X11685Y49170D01*
X11882Y49039D01*
X12161Y48924D01*
X12724Y48573D01*
X18358Y43626D01*
X18454Y43536D01*
X19603Y42387D01*
X19607Y42385D01*
X20170Y42035D01*
X20173Y42032D01*
X21712Y41509D01*
X21836Y41462D01*
X23337Y40840D01*
X23342Y40840D01*
X23996Y40732D01*
X24000Y40730D01*
X25622Y40836D01*
X25754Y40840D01*
X62683Y40840D01*
X63401Y40709D01*
X64085Y40279D01*
X64548Y39615D01*
X64715Y38824D01*
X64561Y38030D01*
X64544Y37990D01*
X64544Y26162D01*
X77926Y26162D01*
X77926Y24638D01*
X64544Y24638D01*
X64544Y12810D01*
X65004Y11700D01*
X65158Y10987D01*
X65022Y10190D01*
X64586Y9508D01*
X63919Y9051D01*
G37*
D10*
X14097Y439618D02*
X25104Y439618D01*
X19600Y434114D02*
X19600Y445121D01*
X123627Y477718D02*
X134634Y477718D01*
D11*
X195580Y10781D02*
X195578Y10671D01*
X195572Y10560D01*
X195563Y10451D01*
X195549Y10341D01*
X195532Y10232D01*
X195511Y10124D01*
X195486Y10016D01*
X195458Y9910D01*
X195425Y9804D01*
X195389Y9700D01*
X195350Y9597D01*
X195307Y9495D01*
X195260Y9395D01*
X195210Y9297D01*
X195157Y9200D01*
X195100Y9106D01*
X195040Y9013D01*
X194976Y8923D01*
X194910Y8835D01*
X194840Y8749D01*
X194768Y8666D01*
X194693Y8585D01*
X194615Y8507D01*
X194534Y8432D01*
X194451Y8360D01*
X194365Y8290D01*
X194277Y8224D01*
X194187Y8160D01*
X194094Y8100D01*
X193999Y8043D01*
X193903Y7990D01*
X193805Y7940D01*
X193705Y7893D01*
X193603Y7850D01*
X193500Y7811D01*
X193396Y7775D01*
X193290Y7742D01*
X193184Y7714D01*
X193076Y7689D01*
X192968Y7668D01*
X192859Y7651D01*
X192749Y7637D01*
X192640Y7628D01*
X192529Y7622D01*
X192419Y7620D01*
X192259Y7622D01*
X192100Y7628D01*
X191940Y7637D01*
X191781Y7651D01*
X191622Y7668D01*
X191464Y7689D01*
X191306Y7713D01*
X191149Y7742D01*
X190992Y7774D01*
X190837Y7810D01*
X190682Y7850D01*
X190528Y7893D01*
X190375Y7940D01*
X190224Y7991D01*
X190074Y8045D01*
X189925Y8103D01*
X189777Y8165D01*
X189631Y8230D01*
X189487Y8298D01*
X189344Y8370D01*
X189203Y8445D01*
X189064Y8524D01*
X188927Y8606D01*
X188792Y8691D01*
X188659Y8779D01*
X188528Y8871D01*
X188399Y8966D01*
X188273Y9063D01*
X188149Y9164D01*
X188027Y9268D01*
X187908Y9374D01*
X187792Y9483D01*
X187678Y9595D01*
X188073Y18683D02*
X188075Y18793D01*
X188081Y18904D01*
X188090Y19013D01*
X188104Y19123D01*
X188121Y19232D01*
X188142Y19340D01*
X188167Y19448D01*
X188195Y19554D01*
X188228Y19660D01*
X188264Y19764D01*
X188303Y19867D01*
X188346Y19969D01*
X188393Y20069D01*
X188443Y20167D01*
X188496Y20264D01*
X188553Y20358D01*
X188613Y20451D01*
X188677Y20541D01*
X188743Y20629D01*
X188813Y20715D01*
X188885Y20798D01*
X188960Y20879D01*
X189038Y20957D01*
X189119Y21032D01*
X189202Y21104D01*
X189288Y21174D01*
X189376Y21240D01*
X189466Y21304D01*
X189559Y21364D01*
X189654Y21421D01*
X189750Y21474D01*
X189848Y21524D01*
X189948Y21571D01*
X190050Y21614D01*
X190153Y21653D01*
X190257Y21689D01*
X190363Y21722D01*
X190469Y21750D01*
X190577Y21775D01*
X190685Y21796D01*
X190794Y21813D01*
X190904Y21827D01*
X191014Y21836D01*
X191124Y21842D01*
X191234Y21844D01*
X191387Y21842D01*
X191539Y21836D01*
X191691Y21826D01*
X191843Y21813D01*
X191995Y21795D01*
X192146Y21773D01*
X192296Y21748D01*
X192446Y21719D01*
X192595Y21686D01*
X192743Y21649D01*
X192890Y21608D01*
X193036Y21563D01*
X193181Y21515D01*
X193324Y21463D01*
X193466Y21408D01*
X193607Y21348D01*
X193746Y21286D01*
X193883Y21219D01*
X194018Y21149D01*
X194152Y21076D01*
X194284Y20999D01*
X194414Y20919D01*
X194541Y20835D01*
X194667Y20749D01*
X194790Y20659D01*
X189653Y15917D02*
X189559Y15976D01*
X189466Y16037D01*
X189375Y16101D01*
X189287Y16169D01*
X189201Y16239D01*
X189118Y16313D01*
X189037Y16389D01*
X188959Y16468D01*
X188884Y16550D01*
X188812Y16634D01*
X188742Y16721D01*
X188676Y16810D01*
X188613Y16901D01*
X188553Y16995D01*
X188496Y17090D01*
X188442Y17188D01*
X188392Y17287D01*
X188346Y17388D01*
X188303Y17490D01*
X188263Y17594D01*
X188227Y17699D01*
X188195Y17806D01*
X188167Y17913D01*
X188142Y18021D01*
X188121Y18130D01*
X188104Y18240D01*
X188090Y18350D01*
X188081Y18461D01*
X188075Y18572D01*
X188073Y18683D01*
X194000Y13547D02*
X194094Y13489D01*
X194187Y13427D01*
X194278Y13363D01*
X194366Y13295D01*
X194452Y13225D01*
X194535Y13151D01*
X194616Y13075D01*
X194694Y12996D01*
X194769Y12914D01*
X194841Y12830D01*
X194911Y12743D01*
X194977Y12654D01*
X195040Y12563D01*
X195100Y12469D01*
X195157Y12374D01*
X195210Y12276D01*
X195261Y12177D01*
X195307Y12076D01*
X195350Y11974D01*
X195390Y11870D01*
X195426Y11765D01*
X195458Y11658D01*
X195486Y11551D01*
X195511Y11443D01*
X195532Y11334D01*
X195549Y11224D01*
X195563Y11114D01*
X195572Y11003D01*
X195578Y10892D01*
X195580Y10781D01*
X194000Y13547D02*
X189653Y15917D01*
D12*
X58700Y406400D03*
X58700Y381000D03*
X58700Y355600D03*
X58700Y330200D03*
X141300Y330200D03*
X141300Y355600D03*
X141300Y381000D03*
X141300Y406400D03*
D13*
X164340Y381000D03*
X183340Y381000D03*
X111100Y101600D03*
X92100Y101600D03*
D14*
X130946Y279400D03*
X148454Y279400D03*
D15*
X173087Y328791D03*
X173087Y311283D03*
D16*
X67003Y100986D03*
X34597Y100986D03*
X166440Y101600D03*
X134034Y101600D03*
D17*
X60804Y127000D02*
X37596Y127000D01*
X88396Y254000D02*
X111604Y254000D01*
X139196Y127000D02*
X162404Y127000D01*
D18*
X127964Y35480D02*
X127964Y15320D01*
X102564Y15320D02*
X102564Y35480D01*
X77164Y35480D02*
X77164Y15320D01*
D19*
X63500Y588900D03*
D20*
X90800Y585400D03*
X112400Y585400D03*
D19*
X139700Y588900D03*
D21*
X154600Y63500D03*
X175600Y63500D03*
D13*
X117500Y68260D03*
X136500Y68260D03*
D22*
X109600Y354600D02*
X109600Y380000D01*
X109600Y354600D02*
X85200Y330200D01*
X58700Y330200D01*
D23*
X50800Y203200D02*
X50800Y177800D01*
D24*
X50800Y203200D03*
D22*
X183340Y381000D02*
X183340Y400860D01*
X177800Y406400D01*
X141300Y406400D01*
X136000Y406400D02*
X109600Y380000D01*
X136000Y406400D02*
X141300Y406400D01*
D24*
X76200Y444500D03*
D22*
X77640Y304800D02*
X58700Y304800D01*
X58700Y330200D01*
X76200Y444500D02*
X76200Y457200D01*
X63500Y469900D01*
X50800Y482600D01*
D25*
X25762Y482600D03*
D22*
X63500Y469900D02*
X63500Y588900D01*
X50800Y482600D02*
X25762Y482600D01*
D23*
X50800Y177800D02*
X17912Y144912D01*
X17912Y57538D02*
X25358Y51000D01*
X17912Y57538D02*
X17912Y144912D01*
D24*
X52240Y292100D03*
X77640Y304800D03*
D22*
X52240Y304800D01*
X52240Y292100D01*
D23*
X102564Y43445D02*
X102564Y25400D01*
X102564Y43445D02*
X95917Y51000D01*
X25358Y51000D01*
D25*
X174860Y483324D03*
D26*
X149460Y457924D01*
X134375Y457924D01*
X82851Y406400D01*
X58700Y406400D01*
D22*
X7300Y406400D01*
X173087Y311283D02*
X173087Y287151D01*
D26*
X165336Y279400D01*
D22*
X148454Y279400D01*
D26*
X128479Y222700D02*
X7300Y222700D01*
X128479Y222700D02*
X148454Y242676D01*
X148454Y279400D01*
D22*
X7300Y222700D02*
X7300Y406400D01*
X22343Y25400D02*
X77164Y25400D01*
X22343Y25400D02*
X7300Y40443D01*
D24*
X53747Y23462D03*
D22*
X7300Y40443D02*
X7300Y222700D01*
D24*
X53747Y74262D03*
D22*
X85149Y68260D02*
X117500Y68260D01*
X85149Y68260D02*
X79147Y74262D01*
X53747Y74262D01*
X141300Y330200D02*
X158978Y330200D01*
X160387Y328791D02*
X173087Y328791D01*
X160387Y328791D02*
X158978Y330200D01*
X130000Y275400D02*
X110000Y255400D01*
X100000Y255400D01*
X130000Y275400D02*
X130946Y279400D01*
X58700Y381000D02*
X42900Y381000D01*
D26*
X100000Y255400D02*
X100000Y254000D01*
D22*
X139700Y355600D02*
X141300Y355600D01*
X139700Y355600D02*
X100000Y315900D01*
X100000Y255400D01*
X31000Y371760D02*
X42900Y381000D01*
X49964Y255400D02*
X100000Y255400D01*
X49964Y255400D02*
X31000Y271704D01*
X31000Y371760D01*
X111100Y101600D02*
X134034Y101600D01*
X141300Y381000D02*
X164340Y381000D01*
X111100Y156615D02*
X111100Y101600D01*
X194340Y334677D02*
X164340Y364677D01*
X194340Y334677D02*
X194340Y239855D01*
X111100Y156615D01*
X164340Y364677D02*
X164340Y381000D01*
D26*
X67617Y101600D02*
X67003Y100986D01*
D22*
X67617Y101600D02*
X92100Y101600D01*
X166440Y101600D02*
X166440Y111361D01*
X150800Y127000D01*
X34597Y112397D02*
X34597Y100986D01*
X34597Y112397D02*
X49200Y127000D01*
X134900Y431800D02*
X165100Y431800D01*
X134900Y431800D02*
X58700Y355600D01*
D24*
X165100Y431800D03*
X164600Y177800D03*
D23*
X165100Y177800D01*
D22*
X190500Y152400D01*
X163596Y25400D02*
X127964Y25400D01*
X190500Y52304D02*
X190500Y63500D01*
X190500Y152400D01*
X190500Y52304D02*
X163596Y25400D01*
X175600Y63500D02*
X190500Y63500D01*
X136500Y66700D02*
X136500Y68260D01*
X136500Y66700D02*
X139700Y63500D01*
X154600Y63500D01*
D27*
X0Y0D02*
X203200Y0D01*
X203200Y525400D01*
X161639Y525400D01*
X161639Y659290D01*
X41623Y659290D01*
X41623Y525400D01*
X0Y525400D01*
X0Y0D01*
M02*
