G04 EAGLE Gerber RS-274X export*
G75*
%MOMM*%
%FSLAX34Y34*%
%LPD*%
%INBottom Copper*%
%IPPOS*%
%AMOC8*
5,1,8,0,0,1.08239X$1,22.5*%
G01*
G04 Define Apertures*
%ADD10C,1.786000*%
%ADD11C,2.320800*%
%ADD12C,2.016000*%
%ADD13C,2.000000*%
%ADD14C,5.000000*%
%ADD15C,0.406400*%
%ADD16C,1.016000*%
%ADD17C,0.254000*%
D10*
X58700Y406400D03*
X58700Y381000D03*
X58700Y355600D03*
X58700Y330200D03*
X141300Y330200D03*
X141300Y355600D03*
X141300Y381000D03*
X141300Y406400D03*
D11*
X60804Y127000D02*
X37596Y127000D01*
X88396Y254000D02*
X111604Y254000D01*
X139196Y127000D02*
X162404Y127000D01*
D12*
X127964Y35480D02*
X127964Y15320D01*
X102564Y15320D02*
X102564Y35480D01*
X77164Y35480D02*
X77164Y15320D01*
D13*
X50800Y203200D03*
X76200Y444500D03*
D14*
X25762Y482600D03*
D13*
X52240Y292100D03*
X77640Y304800D03*
D15*
X52240Y292100D02*
X50800Y290660D01*
D16*
X50800Y203200D01*
D15*
X77640Y443060D02*
X76200Y444500D01*
D16*
X77640Y443060D02*
X77640Y304800D01*
D14*
X174860Y483324D03*
D13*
X53747Y23462D03*
X53747Y74262D03*
D16*
X53747Y23462D01*
D13*
X165100Y431800D03*
X164600Y177800D03*
D15*
X165100Y431300D02*
X164600Y431800D01*
D16*
X164600Y177800D01*
D15*
X165100Y431300D02*
X165100Y431800D01*
D17*
X0Y0D02*
X203200Y0D01*
X203200Y525400D01*
X161639Y525400D01*
X161639Y659290D01*
X41623Y659290D01*
X41623Y525400D01*
X0Y525400D01*
X0Y0D01*
M02*
