G04 EAGLE Gerber RS-274X export*
G75*
%MOMM*%
%FSLAX34Y34*%
%LPD*%
%INBottom Copper*%
%IPPOS*%
%AMOC8*
5,1,8,0,0,1.08239X$1,22.5*%
G01*
G04 Define Apertures*
%ADD10C,1.786000*%
%ADD11C,2.320800*%
%ADD12C,2.016000*%
%ADD13C,2.000000*%
%ADD14C,5.000000*%
%ADD15C,0.406400*%
%ADD16C,1.016000*%
%ADD17C,0.254000*%
D10*
X58700Y381000D03*
X58700Y355600D03*
X58700Y330200D03*
X58700Y304800D03*
X141300Y304800D03*
X141300Y330200D03*
X141300Y355600D03*
X141300Y381000D03*
D11*
X60804Y101600D02*
X37596Y101600D01*
X88396Y228600D02*
X111604Y228600D01*
X139196Y101600D02*
X162404Y101600D01*
D12*
X127964Y35480D02*
X127964Y15320D01*
X102564Y15320D02*
X102564Y35480D01*
X77164Y35480D02*
X77164Y15320D01*
D13*
X50800Y177800D03*
X76200Y419100D03*
D14*
X25762Y457200D03*
D13*
X52240Y266700D03*
X77640Y279400D03*
D15*
X52240Y266700D02*
X50800Y265260D01*
D16*
X50800Y177800D01*
D15*
X77640Y417660D02*
X76200Y419100D01*
D16*
X77640Y417660D02*
X77640Y279400D01*
D14*
X174860Y457924D03*
D13*
X165100Y406400D03*
X164600Y152400D03*
D15*
X165100Y405900D02*
X164600Y406400D01*
D16*
X164600Y152400D01*
D15*
X165100Y405900D02*
X165100Y406400D01*
D17*
X0Y0D02*
X203200Y0D01*
X203200Y500000D01*
X161639Y500000D01*
X161639Y633890D01*
X41623Y633890D01*
X41623Y500000D01*
X0Y500000D01*
X0Y0D01*
M02*
