G04 EAGLE Gerber RS-274X export*
G75*
%MOMM*%
%FSLAX34Y34*%
%LPD*%
%INTop Copper*%
%IPPOS*%
%AMOC8*
5,1,8,0,0,1.08239X$1,22.5*%
G01*
G04 Define Apertures*
%ADD10C,0.279400*%
%ADD11C,0.254000*%
%ADD12C,1.786000*%
%ADD13R,1.300000X1.500000*%
%ADD14R,1.164600X1.465300*%
%ADD15R,1.465300X1.164600*%
%ADD16R,1.274700X1.850000*%
%ADD17C,2.320800*%
%ADD18C,2.016000*%
%ADD19R,1.270000X12.700000*%
%ADD20R,1.270000X12.000000*%
%ADD21C,1.016000*%
%ADD22C,0.406400*%
%ADD23C,2.000000*%
%ADD24C,5.000000*%
%ADD25C,0.400000*%
%ADD26C,0.254000*%
G36*
X81431Y90771D02*
X80734Y90618D01*
X79936Y90747D01*
X79251Y91177D01*
X78788Y91841D01*
X78621Y92632D01*
X78776Y93426D01*
X80536Y97675D01*
X80536Y105525D01*
X77532Y112777D01*
X71981Y118328D01*
X64729Y121332D01*
X39006Y121332D01*
X38304Y121457D01*
X37616Y121882D01*
X37148Y122542D01*
X36974Y123332D01*
X37123Y124127D01*
X37569Y124801D01*
X59413Y146645D01*
X60960Y150379D01*
X60960Y161481D01*
X61109Y162244D01*
X61555Y162918D01*
X66168Y167531D01*
X68928Y174194D01*
X68928Y181406D01*
X66168Y188069D01*
X61069Y193168D01*
X54406Y195928D01*
X47194Y195928D01*
X40531Y193168D01*
X35432Y188069D01*
X32672Y181406D01*
X32672Y174194D01*
X35432Y167531D01*
X40045Y162918D01*
X40479Y162274D01*
X40640Y161481D01*
X40640Y157450D01*
X40491Y156687D01*
X40045Y156013D01*
X12359Y128327D01*
X11774Y127919D01*
X10987Y127733D01*
X10190Y127869D01*
X9508Y128305D01*
X9051Y128972D01*
X8890Y129764D01*
X8890Y401048D01*
X9015Y401751D01*
X9440Y402439D01*
X10100Y402907D01*
X10890Y403080D01*
X11685Y402932D01*
X12359Y402485D01*
X14205Y400639D01*
X17706Y399189D01*
X21495Y399189D01*
X24996Y400639D01*
X27675Y403319D01*
X28180Y404538D01*
X28609Y405186D01*
X29280Y405638D01*
X30499Y406143D01*
X33179Y408822D01*
X34629Y412323D01*
X34629Y416112D01*
X33179Y419613D01*
X31505Y421287D01*
X30997Y422135D01*
X30921Y422941D01*
X31166Y423711D01*
X31692Y424326D01*
X32416Y424686D01*
X38549Y426330D01*
X46103Y430691D01*
X50930Y435518D01*
X51544Y435939D01*
X52334Y436113D01*
X53129Y435964D01*
X53803Y435518D01*
X59614Y429707D01*
X60042Y429077D01*
X60209Y428286D01*
X60055Y427492D01*
X58072Y422706D01*
X58072Y415494D01*
X60832Y408831D01*
X65931Y403732D01*
X72594Y400972D01*
X79806Y400972D01*
X86469Y403732D01*
X91568Y408831D01*
X94328Y415494D01*
X94328Y422706D01*
X91568Y429369D01*
X90003Y430934D01*
X89569Y431578D01*
X89408Y432371D01*
X89408Y434427D01*
X87397Y439282D01*
X77303Y449376D01*
X76869Y450020D01*
X76708Y450813D01*
X76708Y491368D01*
X76839Y492085D01*
X77269Y492770D01*
X77933Y493233D01*
X78724Y493400D01*
X79518Y493245D01*
X82833Y491872D01*
X98767Y491872D01*
X100822Y492723D01*
X101584Y492878D01*
X102378Y492723D01*
X104433Y491872D01*
X120367Y491872D01*
X123354Y493109D01*
X125641Y495396D01*
X127031Y498753D01*
X127427Y499366D01*
X128086Y499834D01*
X128876Y500007D01*
X129671Y499859D01*
X130345Y499412D01*
X132298Y497460D01*
X138938Y497460D01*
X138938Y564262D01*
X140462Y564262D01*
X140462Y497460D01*
X147102Y497460D01*
X148590Y498948D01*
X148590Y505968D01*
X148727Y506701D01*
X149162Y507382D01*
X149829Y507839D01*
X150622Y508000D01*
X150678Y508000D01*
X151411Y507863D01*
X152092Y507428D01*
X152549Y506761D01*
X152710Y505968D01*
X152710Y498232D01*
X154063Y494964D01*
X156564Y492463D01*
X159832Y491110D01*
X192278Y491110D01*
X193011Y490973D01*
X193692Y490538D01*
X194149Y489871D01*
X194310Y489078D01*
X194310Y388075D01*
X194185Y387372D01*
X193760Y386684D01*
X193100Y386216D01*
X192310Y386043D01*
X191515Y386191D01*
X190841Y386638D01*
X185282Y392197D01*
X181660Y393698D01*
X181035Y394104D01*
X180572Y394767D01*
X180405Y395559D01*
X180560Y396353D01*
X183228Y402794D01*
X183228Y410006D01*
X180468Y416669D01*
X175369Y421768D01*
X168706Y424528D01*
X161494Y424528D01*
X154831Y421768D01*
X153266Y420203D01*
X152622Y419769D01*
X151829Y419608D01*
X132273Y419608D01*
X127418Y417597D01*
X75559Y365738D01*
X74945Y365317D01*
X74155Y365143D01*
X73360Y365292D01*
X72686Y365738D01*
X68363Y370061D01*
X68075Y370180D01*
X67462Y370576D01*
X66994Y371235D01*
X66821Y372025D01*
X66969Y372820D01*
X67416Y373494D01*
X68424Y374503D01*
X70170Y378718D01*
X70170Y380238D01*
X47230Y380238D01*
X47230Y378718D01*
X48976Y374503D01*
X49985Y373494D01*
X50399Y372895D01*
X50579Y372106D01*
X50437Y371310D01*
X49996Y370632D01*
X49325Y370180D01*
X49037Y370061D01*
X48380Y369403D01*
X47735Y368969D01*
X46943Y368808D01*
X43855Y368808D01*
X43601Y368824D01*
X41942Y369033D01*
X41386Y368880D01*
X40849Y368808D01*
X40273Y368808D01*
X38728Y368168D01*
X38487Y368086D01*
X36875Y367644D01*
X36419Y367290D01*
X35951Y367018D01*
X35418Y366797D01*
X34236Y365615D01*
X34045Y365447D01*
X24519Y358050D01*
X24051Y357778D01*
X23518Y357557D01*
X22336Y356375D01*
X22145Y356207D01*
X20824Y355181D01*
X20539Y354680D01*
X20210Y354249D01*
X19803Y353842D01*
X19163Y352297D01*
X19051Y352069D01*
X18223Y350616D01*
X18151Y350044D01*
X18013Y349520D01*
X17792Y348987D01*
X17792Y347315D01*
X17776Y347061D01*
X17567Y345402D01*
X17720Y344846D01*
X17792Y344309D01*
X17792Y248743D01*
X17691Y248109D01*
X17632Y247930D01*
X17786Y245883D01*
X17792Y245730D01*
X17792Y243677D01*
X17864Y243503D01*
X18013Y242878D01*
X18027Y242691D01*
X18953Y240858D01*
X19017Y240719D01*
X19803Y238822D01*
X19936Y238689D01*
X20312Y238169D01*
X20397Y238001D01*
X21954Y236663D01*
X22066Y236559D01*
X23518Y235107D01*
X23692Y235035D01*
X24239Y234698D01*
X40918Y220359D01*
X41030Y220255D01*
X42482Y218803D01*
X42656Y218731D01*
X43203Y218394D01*
X43345Y218272D01*
X45296Y217631D01*
X45440Y217578D01*
X47337Y216792D01*
X47525Y216792D01*
X48159Y216691D01*
X48337Y216632D01*
X50385Y216786D01*
X50538Y216792D01*
X71457Y216792D01*
X72220Y216643D01*
X72894Y216197D01*
X77219Y211872D01*
X84471Y208868D01*
X115529Y208868D01*
X122781Y211872D01*
X128332Y217423D01*
X131336Y224675D01*
X131336Y231815D01*
X131485Y232578D01*
X131931Y233252D01*
X136629Y237950D01*
X137274Y238385D01*
X138066Y238546D01*
X138386Y238546D01*
X141373Y239783D01*
X143660Y242069D01*
X143995Y242879D01*
X144413Y243515D01*
X145080Y243973D01*
X145872Y244134D01*
X147692Y244134D01*
X147692Y263867D01*
X145872Y263867D01*
X145125Y264009D01*
X144447Y264450D01*
X143995Y265121D01*
X143660Y265931D01*
X141373Y268217D01*
X138386Y269455D01*
X123506Y269455D01*
X120519Y268217D01*
X118232Y265931D01*
X117117Y263239D01*
X116744Y262650D01*
X116092Y262171D01*
X115305Y261985D01*
X114508Y262121D01*
X113826Y262557D01*
X113369Y263224D01*
X113208Y264016D01*
X113208Y284187D01*
X113357Y284950D01*
X113803Y285624D01*
X123657Y295478D01*
X124257Y295893D01*
X125046Y296072D01*
X125842Y295930D01*
X126519Y295489D01*
X126585Y295391D01*
X131637Y290339D01*
X137907Y287742D01*
X144693Y287742D01*
X150963Y290339D01*
X151621Y290997D01*
X152265Y291431D01*
X153057Y291592D01*
X153953Y291592D01*
X154731Y291437D01*
X157759Y290183D01*
X161188Y290183D01*
X161921Y290046D01*
X162602Y289611D01*
X163059Y288944D01*
X163220Y288151D01*
X163220Y286645D01*
X173849Y286645D01*
X173849Y277520D01*
X179100Y277520D01*
X179833Y277383D01*
X180514Y276948D01*
X180971Y276281D01*
X181132Y275488D01*
X181132Y220768D01*
X180983Y220005D01*
X180537Y219331D01*
X99903Y138697D01*
X97892Y133842D01*
X97892Y93860D01*
X97755Y93128D01*
X97320Y92446D01*
X96653Y91989D01*
X95860Y91828D01*
X83983Y91828D01*
X81431Y90771D01*
G37*
%LPC*%
G36*
X121732Y442793D02*
X136528Y442793D01*
X140029Y444243D01*
X142709Y446922D01*
X144159Y450423D01*
X144159Y454212D01*
X142709Y457713D01*
X140029Y460392D01*
X136528Y461843D01*
X121732Y461843D01*
X118232Y460392D01*
X115552Y457713D01*
X114102Y454212D01*
X114102Y450423D01*
X115552Y446922D01*
X118232Y444243D01*
X121732Y442793D01*
G37*
G36*
X47230Y381762D02*
X57938Y381762D01*
X57938Y392470D01*
X56418Y392470D01*
X52203Y390724D01*
X48976Y387497D01*
X47230Y383282D01*
X47230Y381762D01*
G37*
G36*
X59462Y381762D02*
X70170Y381762D01*
X70170Y383282D01*
X68424Y387497D01*
X65197Y390724D01*
X60982Y392470D01*
X59462Y392470D01*
X59462Y381762D01*
G37*
G36*
X164708Y277520D02*
X172325Y277520D01*
X172325Y285121D01*
X163220Y285121D01*
X163220Y279008D01*
X164708Y277520D01*
G37*
G36*
X149216Y254762D02*
X156817Y254762D01*
X156817Y262379D01*
X155329Y263867D01*
X149216Y263867D01*
X149216Y254762D01*
G37*
G36*
X149216Y244134D02*
X155329Y244134D01*
X156817Y245621D01*
X156817Y253238D01*
X149216Y253238D01*
X149216Y244134D01*
G37*
%LPD*%
G36*
X63919Y9051D02*
X63127Y8890D01*
X10922Y8890D01*
X10190Y9027D01*
X9508Y9462D01*
X9051Y10129D01*
X8890Y10922D01*
X8890Y47286D01*
X9015Y47988D01*
X9440Y48677D01*
X10100Y49144D01*
X10890Y49318D01*
X11685Y49170D01*
X12359Y48723D01*
X19603Y41479D01*
X23337Y39932D01*
X62512Y39932D01*
X63245Y39795D01*
X63926Y39360D01*
X64383Y38693D01*
X64544Y37900D01*
X64544Y26162D01*
X77926Y26162D01*
X77926Y24638D01*
X64544Y24638D01*
X64544Y12810D01*
X65004Y11700D01*
X65158Y10987D01*
X65022Y10190D01*
X64586Y9508D01*
X63919Y9051D01*
G37*
D10*
X14097Y414218D02*
X25104Y414218D01*
X19600Y408714D02*
X19600Y419721D01*
X123627Y452318D02*
X134634Y452318D01*
D11*
X193404Y10781D02*
X193402Y10671D01*
X193396Y10560D01*
X193387Y10451D01*
X193373Y10341D01*
X193356Y10232D01*
X193335Y10124D01*
X193310Y10016D01*
X193282Y9910D01*
X193249Y9804D01*
X193213Y9700D01*
X193174Y9597D01*
X193131Y9495D01*
X193084Y9395D01*
X193034Y9297D01*
X192981Y9200D01*
X192924Y9106D01*
X192864Y9013D01*
X192800Y8923D01*
X192734Y8835D01*
X192664Y8749D01*
X192592Y8666D01*
X192517Y8585D01*
X192439Y8507D01*
X192358Y8432D01*
X192275Y8360D01*
X192189Y8290D01*
X192101Y8224D01*
X192011Y8160D01*
X191918Y8100D01*
X191823Y8043D01*
X191727Y7990D01*
X191629Y7940D01*
X191529Y7893D01*
X191427Y7850D01*
X191324Y7811D01*
X191220Y7775D01*
X191114Y7742D01*
X191008Y7714D01*
X190900Y7689D01*
X190792Y7668D01*
X190683Y7651D01*
X190573Y7637D01*
X190464Y7628D01*
X190353Y7622D01*
X190243Y7620D01*
X190083Y7622D01*
X189924Y7628D01*
X189764Y7637D01*
X189605Y7651D01*
X189446Y7668D01*
X189288Y7689D01*
X189130Y7713D01*
X188973Y7742D01*
X188816Y7774D01*
X188661Y7810D01*
X188506Y7850D01*
X188352Y7893D01*
X188199Y7940D01*
X188048Y7991D01*
X187898Y8045D01*
X187749Y8103D01*
X187601Y8165D01*
X187455Y8230D01*
X187311Y8298D01*
X187168Y8370D01*
X187027Y8445D01*
X186888Y8524D01*
X186751Y8606D01*
X186616Y8691D01*
X186483Y8779D01*
X186352Y8871D01*
X186223Y8966D01*
X186097Y9063D01*
X185973Y9164D01*
X185851Y9268D01*
X185732Y9374D01*
X185616Y9483D01*
X185502Y9595D01*
X185897Y18683D02*
X185899Y18793D01*
X185905Y18904D01*
X185914Y19013D01*
X185928Y19123D01*
X185945Y19232D01*
X185966Y19340D01*
X185991Y19448D01*
X186019Y19554D01*
X186052Y19660D01*
X186088Y19764D01*
X186127Y19867D01*
X186170Y19969D01*
X186217Y20069D01*
X186267Y20167D01*
X186320Y20264D01*
X186377Y20358D01*
X186437Y20451D01*
X186501Y20541D01*
X186567Y20629D01*
X186637Y20715D01*
X186709Y20798D01*
X186784Y20879D01*
X186862Y20957D01*
X186943Y21032D01*
X187026Y21104D01*
X187112Y21174D01*
X187200Y21240D01*
X187290Y21304D01*
X187383Y21364D01*
X187478Y21421D01*
X187574Y21474D01*
X187672Y21524D01*
X187772Y21571D01*
X187874Y21614D01*
X187977Y21653D01*
X188081Y21689D01*
X188187Y21722D01*
X188293Y21750D01*
X188401Y21775D01*
X188509Y21796D01*
X188618Y21813D01*
X188728Y21827D01*
X188838Y21836D01*
X188948Y21842D01*
X189058Y21844D01*
X189211Y21842D01*
X189363Y21836D01*
X189515Y21826D01*
X189667Y21813D01*
X189819Y21795D01*
X189970Y21773D01*
X190120Y21748D01*
X190270Y21719D01*
X190419Y21686D01*
X190567Y21649D01*
X190714Y21608D01*
X190860Y21563D01*
X191005Y21515D01*
X191148Y21463D01*
X191290Y21408D01*
X191431Y21348D01*
X191570Y21286D01*
X191707Y21219D01*
X191842Y21149D01*
X191976Y21076D01*
X192108Y20999D01*
X192238Y20919D01*
X192365Y20835D01*
X192491Y20749D01*
X192614Y20659D01*
X187477Y15917D02*
X187383Y15976D01*
X187290Y16037D01*
X187199Y16101D01*
X187111Y16169D01*
X187025Y16239D01*
X186942Y16313D01*
X186861Y16389D01*
X186783Y16468D01*
X186708Y16550D01*
X186636Y16634D01*
X186566Y16721D01*
X186500Y16810D01*
X186437Y16901D01*
X186377Y16995D01*
X186320Y17090D01*
X186266Y17188D01*
X186216Y17287D01*
X186170Y17388D01*
X186127Y17490D01*
X186087Y17594D01*
X186051Y17699D01*
X186019Y17806D01*
X185991Y17913D01*
X185966Y18021D01*
X185945Y18130D01*
X185928Y18240D01*
X185914Y18350D01*
X185905Y18461D01*
X185899Y18572D01*
X185897Y18683D01*
X191824Y13547D02*
X191918Y13489D01*
X192011Y13427D01*
X192102Y13363D01*
X192190Y13295D01*
X192276Y13225D01*
X192359Y13151D01*
X192440Y13075D01*
X192518Y12996D01*
X192593Y12914D01*
X192665Y12830D01*
X192735Y12743D01*
X192801Y12654D01*
X192864Y12563D01*
X192924Y12469D01*
X192981Y12374D01*
X193034Y12276D01*
X193085Y12177D01*
X193131Y12076D01*
X193174Y11974D01*
X193214Y11870D01*
X193250Y11765D01*
X193282Y11658D01*
X193310Y11551D01*
X193335Y11443D01*
X193356Y11334D01*
X193373Y11224D01*
X193387Y11114D01*
X193396Y11003D01*
X193402Y10892D01*
X193404Y10781D01*
X191824Y13547D02*
X187478Y15917D01*
D12*
X58700Y381000D03*
X58700Y355600D03*
X58700Y330200D03*
X58700Y304800D03*
X141300Y304800D03*
X141300Y330200D03*
X141300Y355600D03*
X141300Y381000D03*
D13*
X164340Y355600D03*
X183340Y355600D03*
X111100Y76200D03*
X92100Y76200D03*
D14*
X130946Y254000D03*
X148454Y254000D03*
D15*
X173087Y303391D03*
X173087Y285883D03*
D16*
X67003Y75586D03*
X34597Y75586D03*
X166440Y76200D03*
X134034Y76200D03*
D17*
X60804Y101600D02*
X37596Y101600D01*
X88396Y228600D02*
X111604Y228600D01*
X139196Y101600D02*
X162404Y101600D01*
D18*
X127964Y35480D02*
X127964Y15320D01*
X102564Y15320D02*
X102564Y35480D01*
X77164Y35480D02*
X77164Y15320D01*
D19*
X63500Y563500D03*
D20*
X90800Y560000D03*
X112400Y560000D03*
D19*
X139700Y563500D03*
D21*
X109600Y354600D02*
X109600Y329200D01*
X85200Y304800D01*
X58700Y304800D01*
D22*
X50800Y177800D02*
X50800Y152400D01*
X102564Y43445D02*
X102564Y25400D01*
X102564Y43445D02*
X95917Y50092D01*
D23*
X50800Y177800D03*
D21*
X183340Y355600D02*
X183340Y375460D01*
X177800Y381000D01*
X141300Y381000D01*
X136000Y381000D02*
X109600Y354600D01*
X136000Y381000D02*
X141300Y381000D01*
D23*
X76200Y419100D03*
D21*
X77640Y279400D02*
X58700Y279400D01*
X58700Y304800D01*
X76200Y419100D02*
X76200Y431800D01*
X63500Y444500D01*
X50800Y457200D01*
D24*
X25762Y457200D03*
D21*
X63500Y444500D02*
X63500Y563500D01*
X50800Y457200D02*
X25762Y457200D01*
D22*
X50800Y152400D02*
X17912Y119512D01*
X25358Y50092D02*
X95917Y50092D01*
X25358Y50092D02*
X17912Y57538D01*
X17912Y119512D01*
D23*
X52240Y266700D03*
X77640Y279400D03*
D21*
X52240Y279400D01*
X52240Y266700D01*
D24*
X174860Y457924D03*
D25*
X149460Y432524D01*
X134375Y432524D01*
X82851Y381000D01*
X58700Y381000D01*
D21*
X7300Y381000D01*
X173087Y285883D02*
X173087Y261751D01*
D25*
X165336Y254000D01*
D21*
X148454Y254000D01*
D25*
X128479Y197300D02*
X7300Y197300D01*
X128479Y197300D02*
X148454Y217276D01*
X148454Y254000D01*
D21*
X77164Y25400D02*
X24696Y25400D01*
X7300Y42796D01*
X7300Y197300D01*
X7300Y381000D01*
X141300Y304800D02*
X158978Y304800D01*
X160387Y303391D02*
X173087Y303391D01*
X160387Y303391D02*
X158978Y304800D01*
X130000Y250000D02*
X110000Y230000D01*
X100000Y230000D01*
X130000Y250000D02*
X130946Y254000D01*
X58700Y355600D02*
X42900Y355600D01*
D25*
X100000Y230000D02*
X100000Y228600D01*
D21*
X139700Y330200D02*
X141300Y330200D01*
X139700Y330200D02*
X100000Y290500D01*
X100000Y230000D01*
X31000Y346360D02*
X42900Y355600D01*
X49964Y230000D02*
X100000Y230000D01*
X49964Y230000D02*
X31000Y246304D01*
X31000Y346360D01*
X111100Y76200D02*
X134034Y76200D01*
X141300Y355600D02*
X164340Y355600D01*
X111100Y131215D02*
X111100Y76200D01*
X194340Y309277D02*
X164340Y339277D01*
X194340Y309277D02*
X194340Y214455D01*
X111100Y131215D01*
X164340Y339277D02*
X164340Y355600D01*
D25*
X67617Y76200D02*
X67003Y75586D01*
D21*
X67617Y76200D02*
X92100Y76200D01*
X166440Y76200D02*
X166440Y85961D01*
X150800Y101600D01*
X34597Y86997D02*
X34597Y75586D01*
X34597Y86997D02*
X49200Y101600D01*
X134900Y406400D02*
X165100Y406400D01*
X134900Y406400D02*
X58700Y330200D01*
D23*
X165100Y406400D03*
X164600Y152400D03*
D22*
X165100Y152400D01*
D21*
X190500Y127000D01*
X128706Y26142D02*
X127964Y25400D01*
X128706Y26142D02*
X162162Y26142D01*
X190500Y54480D02*
X190500Y127000D01*
X190500Y54480D02*
X162162Y26142D01*
D26*
X0Y0D02*
X203200Y0D01*
X203200Y500000D01*
X161639Y500000D01*
X161639Y633890D01*
X41623Y633890D01*
X41623Y500000D01*
X0Y500000D01*
X0Y0D01*
M02*
