G04 EAGLE Gerber RS-274X export*
G75*
%MOMM*%
%FSLAX34Y34*%
%LPD*%
%INSilkscreen Bottom*%
%IPPOS*%
%AMOC8*
5,1,8,0,0,1.08239X$1,22.5*%
G01*
G04 Define Apertures*
%ADD10C,0.381000*%
%ADD11C,0.254000*%
D10*
X19403Y204400D02*
X19266Y204398D01*
X19129Y204392D01*
X18992Y204382D01*
X18856Y204369D01*
X18720Y204351D01*
X18585Y204330D01*
X18450Y204304D01*
X18316Y204275D01*
X18183Y204242D01*
X18051Y204206D01*
X17920Y204165D01*
X17791Y204121D01*
X17662Y204073D01*
X17535Y204022D01*
X17410Y203966D01*
X17286Y203908D01*
X17164Y203846D01*
X17044Y203780D01*
X16925Y203711D01*
X16809Y203638D01*
X16695Y203563D01*
X16583Y203484D01*
X16473Y203402D01*
X16366Y203316D01*
X16261Y203228D01*
X16159Y203137D01*
X16059Y203043D01*
X15962Y202946D01*
X15868Y202846D01*
X15777Y202744D01*
X15689Y202639D01*
X15603Y202532D01*
X15521Y202422D01*
X15442Y202310D01*
X15367Y202196D01*
X15294Y202080D01*
X15225Y201961D01*
X15159Y201841D01*
X15097Y201719D01*
X15039Y201595D01*
X14983Y201470D01*
X14932Y201343D01*
X14884Y201214D01*
X14840Y201085D01*
X14799Y200954D01*
X14763Y200822D01*
X14730Y200689D01*
X14701Y200555D01*
X14675Y200420D01*
X14654Y200285D01*
X14636Y200149D01*
X14623Y200013D01*
X14613Y199876D01*
X14607Y199739D01*
X14605Y199602D01*
X14608Y199360D01*
X14617Y199117D01*
X14631Y198875D01*
X14651Y198633D01*
X14677Y198392D01*
X14709Y198152D01*
X14747Y197912D01*
X14790Y197674D01*
X14839Y197436D01*
X14894Y197200D01*
X14954Y196965D01*
X15020Y196732D01*
X15091Y196500D01*
X15168Y196270D01*
X15251Y196042D01*
X15339Y195816D01*
X15432Y195592D01*
X15531Y195371D01*
X15634Y195152D01*
X15743Y194935D01*
X15858Y194721D01*
X15977Y194510D01*
X16101Y194302D01*
X16231Y194097D01*
X16365Y193895D01*
X16504Y193696D01*
X16647Y193501D01*
X16796Y193309D01*
X16948Y193120D01*
X17106Y192936D01*
X17267Y192755D01*
X17433Y192578D01*
X17603Y192406D01*
X31397Y193004D02*
X31534Y193006D01*
X31671Y193012D01*
X31808Y193022D01*
X31944Y193035D01*
X32080Y193053D01*
X32215Y193074D01*
X32350Y193100D01*
X32484Y193129D01*
X32617Y193162D01*
X32749Y193198D01*
X32880Y193239D01*
X33009Y193283D01*
X33138Y193331D01*
X33265Y193382D01*
X33390Y193438D01*
X33514Y193496D01*
X33636Y193558D01*
X33756Y193624D01*
X33875Y193693D01*
X33991Y193766D01*
X34105Y193841D01*
X34217Y193920D01*
X34327Y194002D01*
X34434Y194088D01*
X34539Y194176D01*
X34641Y194267D01*
X34741Y194361D01*
X34838Y194458D01*
X34932Y194558D01*
X35023Y194660D01*
X35111Y194765D01*
X35197Y194872D01*
X35279Y194982D01*
X35358Y195094D01*
X35433Y195208D01*
X35506Y195324D01*
X35575Y195443D01*
X35641Y195563D01*
X35703Y195685D01*
X35761Y195809D01*
X35817Y195934D01*
X35868Y196061D01*
X35916Y196190D01*
X35960Y196319D01*
X36001Y196450D01*
X36037Y196582D01*
X36070Y196715D01*
X36099Y196849D01*
X36125Y196984D01*
X36146Y197119D01*
X36164Y197255D01*
X36177Y197391D01*
X36187Y197528D01*
X36193Y197665D01*
X36195Y197802D01*
X36192Y198016D01*
X36185Y198231D01*
X36172Y198445D01*
X36154Y198658D01*
X36131Y198872D01*
X36103Y199084D01*
X36070Y199296D01*
X36032Y199507D01*
X35989Y199717D01*
X35941Y199926D01*
X35888Y200134D01*
X35830Y200340D01*
X35767Y200545D01*
X35699Y200748D01*
X35626Y200950D01*
X35549Y201150D01*
X35467Y201348D01*
X35380Y201544D01*
X35288Y201738D01*
X35192Y201930D01*
X35092Y202119D01*
X34986Y202306D01*
X34877Y202490D01*
X34763Y202672D01*
X34645Y202851D01*
X34522Y203027D01*
X34396Y203200D01*
X27199Y195404D02*
X27270Y195287D01*
X27344Y195172D01*
X27422Y195060D01*
X27502Y194949D01*
X27586Y194841D01*
X27673Y194735D01*
X27762Y194632D01*
X27855Y194531D01*
X27950Y194433D01*
X28048Y194338D01*
X28149Y194245D01*
X28252Y194156D01*
X28358Y194069D01*
X28466Y193985D01*
X28576Y193905D01*
X28689Y193827D01*
X28803Y193753D01*
X28920Y193681D01*
X29039Y193614D01*
X29160Y193549D01*
X29282Y193488D01*
X29406Y193430D01*
X29531Y193376D01*
X29658Y193326D01*
X29787Y193279D01*
X29917Y193235D01*
X30047Y193196D01*
X30179Y193160D01*
X30312Y193127D01*
X30446Y193099D01*
X30580Y193074D01*
X30716Y193053D01*
X30851Y193036D01*
X30987Y193022D01*
X31124Y193013D01*
X31260Y193007D01*
X31397Y193005D01*
X23601Y202001D02*
X23530Y202118D01*
X23456Y202233D01*
X23378Y202345D01*
X23298Y202456D01*
X23214Y202564D01*
X23127Y202670D01*
X23038Y202773D01*
X22945Y202873D01*
X22850Y202972D01*
X22752Y203067D01*
X22651Y203159D01*
X22548Y203249D01*
X22442Y203336D01*
X22334Y203420D01*
X22224Y203500D01*
X22111Y203578D01*
X21997Y203652D01*
X21880Y203724D01*
X21761Y203791D01*
X21641Y203856D01*
X21518Y203917D01*
X21394Y203975D01*
X21269Y204029D01*
X21142Y204079D01*
X21013Y204126D01*
X20883Y204170D01*
X20753Y204209D01*
X20621Y204245D01*
X20488Y204278D01*
X20354Y204306D01*
X20220Y204331D01*
X20084Y204352D01*
X19949Y204369D01*
X19813Y204383D01*
X19676Y204392D01*
X19540Y204398D01*
X19403Y204400D01*
X23601Y202001D02*
X27199Y195404D01*
X14605Y215994D02*
X14605Y221991D01*
X14605Y215994D02*
X14607Y215876D01*
X14613Y215759D01*
X14622Y215641D01*
X14636Y215524D01*
X14653Y215408D01*
X14674Y215292D01*
X14699Y215177D01*
X14728Y215063D01*
X14760Y214950D01*
X14796Y214837D01*
X14836Y214727D01*
X14879Y214617D01*
X14926Y214509D01*
X14976Y214403D01*
X15030Y214298D01*
X15087Y214195D01*
X15148Y214094D01*
X15211Y213995D01*
X15278Y213898D01*
X15349Y213804D01*
X15422Y213711D01*
X15498Y213622D01*
X15577Y213534D01*
X15659Y213450D01*
X15743Y213368D01*
X15831Y213289D01*
X15920Y213213D01*
X16013Y213140D01*
X16107Y213069D01*
X16204Y213002D01*
X16303Y212939D01*
X16404Y212878D01*
X16507Y212821D01*
X16612Y212767D01*
X16718Y212717D01*
X16826Y212670D01*
X16936Y212627D01*
X17046Y212587D01*
X17159Y212551D01*
X17272Y212519D01*
X17386Y212490D01*
X17501Y212465D01*
X17617Y212444D01*
X17733Y212427D01*
X17850Y212413D01*
X17968Y212404D01*
X18085Y212398D01*
X18203Y212396D01*
X18203Y212395D02*
X24201Y212395D01*
X24339Y212397D01*
X24477Y212403D01*
X24615Y212413D01*
X24753Y212427D01*
X24890Y212445D01*
X25027Y212467D01*
X25162Y212492D01*
X25298Y212522D01*
X25432Y212556D01*
X25565Y212593D01*
X25697Y212634D01*
X25828Y212679D01*
X25957Y212728D01*
X26085Y212780D01*
X26211Y212836D01*
X26336Y212896D01*
X26459Y212960D01*
X26580Y213026D01*
X26699Y213097D01*
X26816Y213170D01*
X26931Y213247D01*
X27044Y213328D01*
X27154Y213411D01*
X27261Y213498D01*
X27367Y213588D01*
X27469Y213680D01*
X27569Y213776D01*
X27666Y213874D01*
X27760Y213976D01*
X27852Y214080D01*
X27940Y214186D01*
X28025Y214295D01*
X28107Y214406D01*
X28186Y214520D01*
X28261Y214636D01*
X28333Y214754D01*
X28402Y214874D01*
X28467Y214996D01*
X28528Y215120D01*
X28586Y215246D01*
X28640Y215373D01*
X28691Y215502D01*
X28738Y215632D01*
X28781Y215763D01*
X28820Y215896D01*
X28856Y216029D01*
X28887Y216164D01*
X28915Y216299D01*
X28939Y216436D01*
X28959Y216572D01*
X28975Y216710D01*
X28987Y216848D01*
X28995Y216986D01*
X28999Y217124D01*
X28999Y217262D01*
X28995Y217400D01*
X28987Y217538D01*
X28975Y217676D01*
X28959Y217814D01*
X28939Y217950D01*
X28915Y218087D01*
X28887Y218222D01*
X28856Y218357D01*
X28820Y218490D01*
X28781Y218623D01*
X28738Y218754D01*
X28691Y218884D01*
X28640Y219013D01*
X28586Y219140D01*
X28528Y219266D01*
X28467Y219390D01*
X28402Y219512D01*
X28333Y219632D01*
X28261Y219750D01*
X28186Y219866D01*
X28107Y219980D01*
X28025Y220091D01*
X27940Y220200D01*
X27852Y220306D01*
X27760Y220410D01*
X27666Y220512D01*
X27569Y220610D01*
X27469Y220706D01*
X27367Y220798D01*
X27261Y220888D01*
X27154Y220975D01*
X27044Y221058D01*
X26931Y221139D01*
X26816Y221216D01*
X26699Y221289D01*
X26580Y221360D01*
X26459Y221426D01*
X26336Y221490D01*
X26211Y221550D01*
X26085Y221606D01*
X25957Y221658D01*
X25828Y221707D01*
X25697Y221752D01*
X25565Y221793D01*
X25432Y221830D01*
X25298Y221864D01*
X25162Y221894D01*
X25027Y221919D01*
X24890Y221941D01*
X24753Y221959D01*
X24615Y221973D01*
X24477Y221983D01*
X24339Y221989D01*
X24201Y221991D01*
X21802Y221991D01*
X21802Y212395D01*
X14605Y231317D02*
X28998Y231317D01*
X28998Y238514D01*
X26599Y238514D01*
X28998Y244409D02*
X14605Y249207D01*
X28998Y254005D01*
X24201Y261808D02*
X19403Y261808D01*
X24201Y261808D02*
X24339Y261810D01*
X24477Y261816D01*
X24615Y261826D01*
X24753Y261840D01*
X24890Y261858D01*
X25027Y261880D01*
X25162Y261905D01*
X25298Y261935D01*
X25432Y261969D01*
X25565Y262006D01*
X25697Y262047D01*
X25828Y262092D01*
X25957Y262141D01*
X26085Y262193D01*
X26211Y262249D01*
X26336Y262309D01*
X26459Y262373D01*
X26580Y262439D01*
X26699Y262510D01*
X26816Y262583D01*
X26931Y262660D01*
X27044Y262741D01*
X27154Y262824D01*
X27261Y262911D01*
X27367Y263001D01*
X27469Y263093D01*
X27569Y263189D01*
X27666Y263287D01*
X27760Y263389D01*
X27852Y263493D01*
X27940Y263599D01*
X28025Y263708D01*
X28107Y263819D01*
X28186Y263933D01*
X28261Y264049D01*
X28333Y264167D01*
X28402Y264287D01*
X28467Y264409D01*
X28528Y264533D01*
X28586Y264659D01*
X28640Y264786D01*
X28691Y264915D01*
X28738Y265045D01*
X28781Y265176D01*
X28820Y265309D01*
X28856Y265442D01*
X28887Y265577D01*
X28915Y265712D01*
X28939Y265849D01*
X28959Y265985D01*
X28975Y266123D01*
X28987Y266261D01*
X28995Y266399D01*
X28999Y266537D01*
X28999Y266675D01*
X28995Y266813D01*
X28987Y266951D01*
X28975Y267089D01*
X28959Y267227D01*
X28939Y267363D01*
X28915Y267500D01*
X28887Y267635D01*
X28856Y267770D01*
X28820Y267903D01*
X28781Y268036D01*
X28738Y268167D01*
X28691Y268297D01*
X28640Y268426D01*
X28586Y268553D01*
X28528Y268679D01*
X28467Y268803D01*
X28402Y268925D01*
X28333Y269045D01*
X28261Y269163D01*
X28186Y269279D01*
X28107Y269393D01*
X28025Y269504D01*
X27940Y269613D01*
X27852Y269719D01*
X27760Y269823D01*
X27666Y269925D01*
X27569Y270023D01*
X27469Y270119D01*
X27367Y270211D01*
X27261Y270301D01*
X27154Y270388D01*
X27044Y270471D01*
X26931Y270552D01*
X26816Y270629D01*
X26699Y270702D01*
X26580Y270773D01*
X26459Y270839D01*
X26336Y270903D01*
X26211Y270963D01*
X26085Y271019D01*
X25957Y271071D01*
X25828Y271120D01*
X25697Y271165D01*
X25565Y271206D01*
X25432Y271243D01*
X25298Y271277D01*
X25162Y271307D01*
X25027Y271332D01*
X24890Y271354D01*
X24753Y271372D01*
X24615Y271386D01*
X24477Y271396D01*
X24339Y271402D01*
X24201Y271404D01*
X19403Y271404D01*
X19265Y271402D01*
X19127Y271396D01*
X18989Y271386D01*
X18851Y271372D01*
X18714Y271354D01*
X18577Y271332D01*
X18442Y271307D01*
X18306Y271277D01*
X18172Y271243D01*
X18039Y271206D01*
X17907Y271165D01*
X17776Y271120D01*
X17647Y271071D01*
X17519Y271019D01*
X17393Y270963D01*
X17268Y270903D01*
X17145Y270839D01*
X17024Y270773D01*
X16905Y270702D01*
X16788Y270629D01*
X16673Y270552D01*
X16560Y270471D01*
X16450Y270388D01*
X16343Y270301D01*
X16237Y270211D01*
X16135Y270119D01*
X16035Y270023D01*
X15938Y269925D01*
X15844Y269823D01*
X15752Y269719D01*
X15664Y269613D01*
X15579Y269504D01*
X15497Y269393D01*
X15418Y269279D01*
X15343Y269163D01*
X15271Y269045D01*
X15202Y268925D01*
X15137Y268803D01*
X15076Y268679D01*
X15018Y268553D01*
X14964Y268426D01*
X14913Y268297D01*
X14866Y268167D01*
X14823Y268036D01*
X14784Y267903D01*
X14748Y267770D01*
X14717Y267635D01*
X14689Y267500D01*
X14665Y267363D01*
X14645Y267227D01*
X14629Y267089D01*
X14617Y266951D01*
X14609Y266813D01*
X14605Y266675D01*
X14605Y266537D01*
X14609Y266399D01*
X14617Y266261D01*
X14629Y266123D01*
X14645Y265985D01*
X14665Y265849D01*
X14689Y265712D01*
X14717Y265577D01*
X14748Y265442D01*
X14784Y265309D01*
X14823Y265176D01*
X14866Y265045D01*
X14913Y264915D01*
X14964Y264786D01*
X15018Y264659D01*
X15076Y264533D01*
X15137Y264409D01*
X15202Y264287D01*
X15271Y264167D01*
X15343Y264049D01*
X15418Y263933D01*
X15497Y263819D01*
X15579Y263708D01*
X15664Y263599D01*
X15752Y263493D01*
X15844Y263389D01*
X15938Y263287D01*
X16035Y263189D01*
X16135Y263093D01*
X16237Y263001D01*
X16343Y262911D01*
X16450Y262824D01*
X16560Y262741D01*
X16673Y262660D01*
X16788Y262583D01*
X16905Y262510D01*
X17024Y262439D01*
X17145Y262373D01*
X17268Y262309D01*
X17393Y262249D01*
X17519Y262193D01*
X17647Y262141D01*
X17776Y262092D01*
X17907Y262047D01*
X18039Y262006D01*
X18172Y261969D01*
X18306Y261935D01*
X18442Y261905D01*
X18577Y261880D01*
X18714Y261858D01*
X18851Y261840D01*
X18989Y261826D01*
X19127Y261816D01*
X19265Y261810D01*
X19403Y261808D01*
X23001Y280288D02*
X23001Y294682D01*
X14605Y308364D02*
X36195Y308364D01*
X36195Y314361D02*
X36195Y302366D01*
X14605Y325259D02*
X14605Y331256D01*
X14605Y325259D02*
X14607Y325141D01*
X14613Y325024D01*
X14622Y324906D01*
X14636Y324789D01*
X14653Y324673D01*
X14674Y324557D01*
X14699Y324442D01*
X14728Y324328D01*
X14760Y324215D01*
X14796Y324102D01*
X14836Y323992D01*
X14879Y323882D01*
X14926Y323774D01*
X14976Y323668D01*
X15030Y323563D01*
X15087Y323460D01*
X15148Y323359D01*
X15211Y323260D01*
X15278Y323163D01*
X15349Y323069D01*
X15422Y322976D01*
X15498Y322887D01*
X15577Y322799D01*
X15659Y322715D01*
X15743Y322633D01*
X15831Y322554D01*
X15920Y322478D01*
X16013Y322405D01*
X16107Y322334D01*
X16204Y322267D01*
X16303Y322204D01*
X16404Y322143D01*
X16507Y322086D01*
X16612Y322032D01*
X16718Y321982D01*
X16826Y321935D01*
X16936Y321892D01*
X17046Y321852D01*
X17159Y321816D01*
X17272Y321784D01*
X17386Y321755D01*
X17501Y321730D01*
X17617Y321709D01*
X17733Y321692D01*
X17850Y321678D01*
X17968Y321669D01*
X18085Y321663D01*
X18203Y321661D01*
X24201Y321661D01*
X24339Y321663D01*
X24477Y321669D01*
X24615Y321679D01*
X24753Y321693D01*
X24890Y321711D01*
X25027Y321733D01*
X25162Y321758D01*
X25298Y321788D01*
X25432Y321822D01*
X25565Y321859D01*
X25697Y321900D01*
X25828Y321945D01*
X25957Y321994D01*
X26085Y322046D01*
X26211Y322102D01*
X26336Y322162D01*
X26459Y322226D01*
X26580Y322292D01*
X26699Y322363D01*
X26816Y322436D01*
X26931Y322513D01*
X27044Y322594D01*
X27154Y322677D01*
X27261Y322764D01*
X27367Y322854D01*
X27469Y322946D01*
X27569Y323042D01*
X27666Y323140D01*
X27760Y323242D01*
X27852Y323346D01*
X27940Y323452D01*
X28025Y323561D01*
X28107Y323672D01*
X28186Y323786D01*
X28261Y323902D01*
X28333Y324020D01*
X28402Y324140D01*
X28467Y324262D01*
X28528Y324386D01*
X28586Y324512D01*
X28640Y324639D01*
X28691Y324768D01*
X28738Y324898D01*
X28781Y325029D01*
X28820Y325162D01*
X28856Y325295D01*
X28887Y325430D01*
X28915Y325565D01*
X28939Y325702D01*
X28959Y325838D01*
X28975Y325976D01*
X28987Y326114D01*
X28995Y326252D01*
X28999Y326390D01*
X28999Y326528D01*
X28995Y326666D01*
X28987Y326804D01*
X28975Y326942D01*
X28959Y327080D01*
X28939Y327216D01*
X28915Y327353D01*
X28887Y327488D01*
X28856Y327623D01*
X28820Y327756D01*
X28781Y327889D01*
X28738Y328020D01*
X28691Y328150D01*
X28640Y328279D01*
X28586Y328406D01*
X28528Y328532D01*
X28467Y328656D01*
X28402Y328778D01*
X28333Y328898D01*
X28261Y329016D01*
X28186Y329132D01*
X28107Y329246D01*
X28025Y329357D01*
X27940Y329466D01*
X27852Y329572D01*
X27760Y329676D01*
X27666Y329778D01*
X27569Y329876D01*
X27469Y329972D01*
X27367Y330064D01*
X27261Y330154D01*
X27154Y330241D01*
X27044Y330324D01*
X26931Y330405D01*
X26816Y330482D01*
X26699Y330555D01*
X26580Y330626D01*
X26459Y330692D01*
X26336Y330756D01*
X26211Y330816D01*
X26085Y330872D01*
X25957Y330924D01*
X25828Y330973D01*
X25697Y331018D01*
X25565Y331059D01*
X25432Y331096D01*
X25298Y331130D01*
X25162Y331160D01*
X25027Y331185D01*
X24890Y331207D01*
X24753Y331225D01*
X24615Y331239D01*
X24477Y331249D01*
X24339Y331255D01*
X24201Y331257D01*
X24201Y331256D02*
X21802Y331256D01*
X21802Y321661D01*
X23001Y341555D02*
X20602Y347552D01*
X23001Y341555D02*
X23044Y341453D01*
X23091Y341353D01*
X23141Y341254D01*
X23194Y341157D01*
X23251Y341062D01*
X23312Y340969D01*
X23375Y340879D01*
X23442Y340791D01*
X23512Y340705D01*
X23585Y340621D01*
X23660Y340541D01*
X23739Y340463D01*
X23820Y340388D01*
X23904Y340316D01*
X23991Y340247D01*
X24079Y340181D01*
X24171Y340118D01*
X24264Y340058D01*
X24359Y340002D01*
X24457Y339950D01*
X24556Y339900D01*
X24656Y339855D01*
X24759Y339813D01*
X24863Y339774D01*
X24968Y339740D01*
X25074Y339709D01*
X25181Y339682D01*
X25289Y339658D01*
X25398Y339639D01*
X25508Y339623D01*
X25618Y339612D01*
X25728Y339604D01*
X25839Y339600D01*
X25950Y339601D01*
X26060Y339605D01*
X26171Y339613D01*
X26281Y339625D01*
X26390Y339641D01*
X26499Y339660D01*
X26607Y339684D01*
X26714Y339711D01*
X26820Y339743D01*
X26925Y339778D01*
X27029Y339816D01*
X27131Y339859D01*
X27232Y339905D01*
X27331Y339954D01*
X27428Y340007D01*
X27523Y340064D01*
X27616Y340124D01*
X27707Y340187D01*
X27796Y340253D01*
X27882Y340322D01*
X27966Y340395D01*
X28047Y340470D01*
X28125Y340548D01*
X28200Y340629D01*
X28273Y340713D01*
X28343Y340799D01*
X28409Y340887D01*
X28472Y340978D01*
X28532Y341071D01*
X28589Y341166D01*
X28642Y341263D01*
X28692Y341362D01*
X28738Y341463D01*
X28780Y341565D01*
X28819Y341668D01*
X28855Y341773D01*
X28886Y341879D01*
X28914Y341987D01*
X28937Y342095D01*
X28957Y342203D01*
X28974Y342313D01*
X28986Y342423D01*
X28994Y342533D01*
X28998Y342644D01*
X28999Y342754D01*
X28998Y342755D02*
X28989Y343082D01*
X28973Y343409D01*
X28948Y343736D01*
X28916Y344062D01*
X28876Y344387D01*
X28828Y344711D01*
X28773Y345033D01*
X28709Y345355D01*
X28638Y345674D01*
X28559Y345992D01*
X28473Y346308D01*
X28379Y346622D01*
X28278Y346933D01*
X28169Y347242D01*
X28053Y347548D01*
X27929Y347852D01*
X27798Y348152D01*
X20603Y347552D02*
X20560Y347654D01*
X20513Y347754D01*
X20463Y347853D01*
X20410Y347950D01*
X20353Y348045D01*
X20292Y348138D01*
X20229Y348228D01*
X20162Y348316D01*
X20092Y348402D01*
X20019Y348486D01*
X19944Y348566D01*
X19865Y348644D01*
X19784Y348719D01*
X19700Y348791D01*
X19613Y348860D01*
X19525Y348926D01*
X19433Y348989D01*
X19340Y349049D01*
X19245Y349105D01*
X19147Y349157D01*
X19048Y349207D01*
X18948Y349252D01*
X18845Y349294D01*
X18741Y349333D01*
X18636Y349367D01*
X18530Y349398D01*
X18423Y349425D01*
X18315Y349449D01*
X18206Y349468D01*
X18096Y349484D01*
X17986Y349495D01*
X17876Y349503D01*
X17765Y349507D01*
X17654Y349506D01*
X17544Y349502D01*
X17433Y349494D01*
X17323Y349482D01*
X17214Y349466D01*
X17105Y349447D01*
X16997Y349423D01*
X16890Y349396D01*
X16784Y349364D01*
X16679Y349329D01*
X16575Y349291D01*
X16473Y349248D01*
X16372Y349202D01*
X16273Y349153D01*
X16176Y349100D01*
X16081Y349043D01*
X15988Y348983D01*
X15897Y348920D01*
X15808Y348854D01*
X15722Y348785D01*
X15638Y348712D01*
X15557Y348637D01*
X15479Y348559D01*
X15404Y348478D01*
X15331Y348394D01*
X15262Y348308D01*
X15195Y348220D01*
X15132Y348129D01*
X15072Y348036D01*
X15015Y347941D01*
X14962Y347844D01*
X14912Y347745D01*
X14866Y347644D01*
X14824Y347542D01*
X14785Y347439D01*
X14749Y347334D01*
X14718Y347228D01*
X14690Y347121D01*
X14667Y347012D01*
X14647Y346904D01*
X14630Y346794D01*
X14618Y346684D01*
X14610Y346574D01*
X14606Y346463D01*
X14605Y346353D01*
X14618Y345872D01*
X14642Y345391D01*
X14677Y344911D01*
X14723Y344432D01*
X14781Y343955D01*
X14851Y343479D01*
X14931Y343004D01*
X15023Y342532D01*
X15126Y342062D01*
X15239Y341595D01*
X15364Y341130D01*
X15500Y340668D01*
X15647Y340210D01*
X15805Y339756D01*
X28998Y356094D02*
X28998Y363290D01*
X36195Y358493D02*
X18203Y358493D01*
X18085Y358495D01*
X17968Y358501D01*
X17850Y358510D01*
X17733Y358524D01*
X17617Y358541D01*
X17501Y358562D01*
X17386Y358587D01*
X17272Y358616D01*
X17159Y358648D01*
X17046Y358684D01*
X16936Y358724D01*
X16826Y358767D01*
X16718Y358814D01*
X16612Y358864D01*
X16507Y358918D01*
X16404Y358975D01*
X16303Y359036D01*
X16204Y359099D01*
X16107Y359166D01*
X16013Y359237D01*
X15920Y359310D01*
X15831Y359386D01*
X15743Y359465D01*
X15659Y359547D01*
X15577Y359631D01*
X15498Y359719D01*
X15422Y359808D01*
X15349Y359901D01*
X15278Y359995D01*
X15211Y360092D01*
X15148Y360191D01*
X15087Y360292D01*
X15030Y360395D01*
X14976Y360500D01*
X14926Y360606D01*
X14879Y360714D01*
X14836Y360824D01*
X14796Y360934D01*
X14760Y361047D01*
X14728Y361160D01*
X14699Y361274D01*
X14674Y361389D01*
X14653Y361505D01*
X14636Y361621D01*
X14622Y361738D01*
X14613Y361856D01*
X14607Y361973D01*
X14605Y362091D01*
X14605Y363290D01*
X14605Y374672D02*
X14605Y380669D01*
X14605Y374672D02*
X14607Y374554D01*
X14613Y374437D01*
X14622Y374319D01*
X14636Y374202D01*
X14653Y374086D01*
X14674Y373970D01*
X14699Y373855D01*
X14728Y373741D01*
X14760Y373628D01*
X14796Y373515D01*
X14836Y373405D01*
X14879Y373295D01*
X14926Y373187D01*
X14976Y373081D01*
X15030Y372976D01*
X15087Y372873D01*
X15148Y372772D01*
X15211Y372673D01*
X15278Y372576D01*
X15349Y372482D01*
X15422Y372389D01*
X15498Y372300D01*
X15577Y372212D01*
X15659Y372128D01*
X15743Y372046D01*
X15831Y371967D01*
X15920Y371891D01*
X16013Y371818D01*
X16107Y371747D01*
X16204Y371680D01*
X16303Y371617D01*
X16404Y371556D01*
X16507Y371499D01*
X16612Y371445D01*
X16718Y371395D01*
X16826Y371348D01*
X16936Y371305D01*
X17046Y371265D01*
X17159Y371229D01*
X17272Y371197D01*
X17386Y371168D01*
X17501Y371143D01*
X17617Y371122D01*
X17733Y371105D01*
X17850Y371091D01*
X17968Y371082D01*
X18085Y371076D01*
X18203Y371074D01*
X24201Y371074D01*
X24339Y371076D01*
X24477Y371082D01*
X24615Y371092D01*
X24753Y371106D01*
X24890Y371124D01*
X25027Y371146D01*
X25162Y371171D01*
X25298Y371201D01*
X25432Y371235D01*
X25565Y371272D01*
X25697Y371313D01*
X25828Y371358D01*
X25957Y371407D01*
X26085Y371459D01*
X26211Y371515D01*
X26336Y371575D01*
X26459Y371639D01*
X26580Y371705D01*
X26699Y371776D01*
X26816Y371849D01*
X26931Y371926D01*
X27044Y372007D01*
X27154Y372090D01*
X27261Y372177D01*
X27367Y372267D01*
X27469Y372359D01*
X27569Y372455D01*
X27666Y372553D01*
X27760Y372655D01*
X27852Y372759D01*
X27940Y372865D01*
X28025Y372974D01*
X28107Y373085D01*
X28186Y373199D01*
X28261Y373315D01*
X28333Y373433D01*
X28402Y373553D01*
X28467Y373675D01*
X28528Y373799D01*
X28586Y373925D01*
X28640Y374052D01*
X28691Y374181D01*
X28738Y374311D01*
X28781Y374442D01*
X28820Y374575D01*
X28856Y374708D01*
X28887Y374843D01*
X28915Y374978D01*
X28939Y375115D01*
X28959Y375251D01*
X28975Y375389D01*
X28987Y375527D01*
X28995Y375665D01*
X28999Y375803D01*
X28999Y375941D01*
X28995Y376079D01*
X28987Y376217D01*
X28975Y376355D01*
X28959Y376493D01*
X28939Y376629D01*
X28915Y376766D01*
X28887Y376901D01*
X28856Y377036D01*
X28820Y377169D01*
X28781Y377302D01*
X28738Y377433D01*
X28691Y377563D01*
X28640Y377692D01*
X28586Y377819D01*
X28528Y377945D01*
X28467Y378069D01*
X28402Y378191D01*
X28333Y378311D01*
X28261Y378429D01*
X28186Y378545D01*
X28107Y378659D01*
X28025Y378770D01*
X27940Y378879D01*
X27852Y378985D01*
X27760Y379089D01*
X27666Y379191D01*
X27569Y379289D01*
X27469Y379385D01*
X27367Y379477D01*
X27261Y379567D01*
X27154Y379654D01*
X27044Y379737D01*
X26931Y379818D01*
X26816Y379895D01*
X26699Y379968D01*
X26580Y380039D01*
X26459Y380105D01*
X26336Y380169D01*
X26211Y380229D01*
X26085Y380285D01*
X25957Y380337D01*
X25828Y380386D01*
X25697Y380431D01*
X25565Y380472D01*
X25432Y380509D01*
X25298Y380543D01*
X25162Y380573D01*
X25027Y380598D01*
X24890Y380620D01*
X24753Y380638D01*
X24615Y380652D01*
X24477Y380662D01*
X24339Y380668D01*
X24201Y380670D01*
X24201Y380669D02*
X21802Y380669D01*
X21802Y371074D01*
X14605Y389996D02*
X28998Y389996D01*
X28998Y397193D01*
X26599Y397193D01*
X119800Y57503D02*
X119802Y57366D01*
X119808Y57229D01*
X119818Y57092D01*
X119831Y56956D01*
X119849Y56820D01*
X119870Y56685D01*
X119896Y56550D01*
X119925Y56416D01*
X119958Y56283D01*
X119994Y56151D01*
X120035Y56020D01*
X120079Y55891D01*
X120127Y55762D01*
X120178Y55635D01*
X120234Y55510D01*
X120292Y55386D01*
X120354Y55264D01*
X120420Y55144D01*
X120489Y55025D01*
X120562Y54909D01*
X120637Y54795D01*
X120716Y54683D01*
X120798Y54573D01*
X120884Y54466D01*
X120972Y54361D01*
X121063Y54259D01*
X121157Y54159D01*
X121254Y54062D01*
X121354Y53968D01*
X121456Y53877D01*
X121561Y53789D01*
X121668Y53703D01*
X121778Y53621D01*
X121890Y53542D01*
X122004Y53467D01*
X122120Y53394D01*
X122239Y53325D01*
X122359Y53259D01*
X122481Y53197D01*
X122605Y53139D01*
X122730Y53083D01*
X122857Y53032D01*
X122986Y52984D01*
X123115Y52940D01*
X123246Y52899D01*
X123378Y52863D01*
X123511Y52830D01*
X123645Y52801D01*
X123780Y52775D01*
X123915Y52754D01*
X124051Y52736D01*
X124187Y52723D01*
X124324Y52713D01*
X124461Y52707D01*
X124598Y52705D01*
X124841Y52708D01*
X125083Y52717D01*
X125325Y52731D01*
X125567Y52751D01*
X125808Y52777D01*
X126048Y52809D01*
X126288Y52847D01*
X126526Y52890D01*
X126764Y52939D01*
X127000Y52994D01*
X127235Y53054D01*
X127468Y53120D01*
X127700Y53191D01*
X127930Y53268D01*
X128158Y53351D01*
X128384Y53439D01*
X128608Y53532D01*
X128829Y53631D01*
X129048Y53734D01*
X129265Y53843D01*
X129479Y53958D01*
X129690Y54077D01*
X129898Y54201D01*
X130103Y54331D01*
X130305Y54465D01*
X130504Y54604D01*
X130699Y54747D01*
X130891Y54896D01*
X131080Y55048D01*
X131264Y55206D01*
X131445Y55367D01*
X131622Y55533D01*
X131794Y55703D01*
X131196Y69497D02*
X131194Y69634D01*
X131188Y69771D01*
X131178Y69908D01*
X131165Y70044D01*
X131147Y70180D01*
X131126Y70315D01*
X131100Y70450D01*
X131071Y70584D01*
X131038Y70717D01*
X131002Y70849D01*
X130961Y70980D01*
X130917Y71109D01*
X130869Y71238D01*
X130818Y71365D01*
X130762Y71490D01*
X130704Y71614D01*
X130642Y71736D01*
X130576Y71856D01*
X130507Y71975D01*
X130434Y72091D01*
X130359Y72205D01*
X130280Y72317D01*
X130198Y72427D01*
X130112Y72534D01*
X130024Y72639D01*
X129933Y72741D01*
X129839Y72841D01*
X129742Y72938D01*
X129642Y73032D01*
X129540Y73123D01*
X129435Y73211D01*
X129328Y73297D01*
X129218Y73379D01*
X129106Y73458D01*
X128992Y73533D01*
X128876Y73606D01*
X128757Y73675D01*
X128637Y73741D01*
X128515Y73803D01*
X128391Y73861D01*
X128266Y73917D01*
X128139Y73968D01*
X128010Y74016D01*
X127881Y74060D01*
X127750Y74101D01*
X127618Y74137D01*
X127485Y74170D01*
X127351Y74199D01*
X127216Y74225D01*
X127081Y74246D01*
X126945Y74264D01*
X126809Y74277D01*
X126672Y74287D01*
X126535Y74293D01*
X126398Y74295D01*
X126184Y74292D01*
X125969Y74285D01*
X125755Y74272D01*
X125542Y74254D01*
X125328Y74231D01*
X125116Y74203D01*
X124904Y74170D01*
X124693Y74132D01*
X124483Y74089D01*
X124274Y74041D01*
X124066Y73988D01*
X123860Y73930D01*
X123655Y73867D01*
X123452Y73799D01*
X123250Y73726D01*
X123050Y73649D01*
X122852Y73567D01*
X122656Y73480D01*
X122462Y73388D01*
X122270Y73292D01*
X122081Y73192D01*
X121894Y73086D01*
X121710Y72977D01*
X121528Y72863D01*
X121349Y72745D01*
X121173Y72622D01*
X121000Y72496D01*
X128797Y65299D02*
X128914Y65370D01*
X129029Y65444D01*
X129141Y65522D01*
X129252Y65602D01*
X129360Y65686D01*
X129466Y65773D01*
X129569Y65862D01*
X129670Y65955D01*
X129768Y66050D01*
X129863Y66148D01*
X129956Y66249D01*
X130045Y66352D01*
X130132Y66458D01*
X130216Y66566D01*
X130296Y66676D01*
X130374Y66789D01*
X130448Y66903D01*
X130520Y67020D01*
X130587Y67139D01*
X130652Y67260D01*
X130713Y67382D01*
X130771Y67506D01*
X130825Y67631D01*
X130875Y67758D01*
X130922Y67887D01*
X130966Y68017D01*
X131005Y68147D01*
X131041Y68279D01*
X131074Y68412D01*
X131102Y68546D01*
X131127Y68680D01*
X131148Y68816D01*
X131165Y68951D01*
X131179Y69087D01*
X131188Y69224D01*
X131194Y69360D01*
X131196Y69497D01*
X122199Y61701D02*
X122082Y61630D01*
X121967Y61556D01*
X121855Y61478D01*
X121744Y61398D01*
X121636Y61314D01*
X121530Y61227D01*
X121427Y61138D01*
X121327Y61045D01*
X121228Y60950D01*
X121133Y60852D01*
X121041Y60751D01*
X120951Y60648D01*
X120864Y60542D01*
X120780Y60434D01*
X120700Y60324D01*
X120622Y60211D01*
X120548Y60097D01*
X120476Y59980D01*
X120409Y59861D01*
X120344Y59741D01*
X120283Y59618D01*
X120225Y59494D01*
X120171Y59369D01*
X120121Y59242D01*
X120074Y59113D01*
X120030Y58983D01*
X119991Y58853D01*
X119955Y58721D01*
X119922Y58588D01*
X119894Y58454D01*
X119869Y58320D01*
X119848Y58184D01*
X119831Y58049D01*
X119817Y57913D01*
X119808Y57776D01*
X119802Y57640D01*
X119800Y57503D01*
X122199Y61701D02*
X128796Y65299D01*
X111298Y61101D02*
X96905Y61101D01*
X104102Y53904D02*
X104102Y68298D01*
X84298Y61101D02*
X69905Y61101D01*
D11*
X0Y0D02*
X203200Y0D01*
X203200Y525400D01*
X161639Y525400D01*
X161639Y659290D01*
X41623Y659290D01*
X41623Y525400D01*
X0Y525400D01*
X0Y0D01*
M02*
