G04 EAGLE Gerber RS-274X export*
G75*
%MOMM*%
%FSLAX34Y34*%
%LPD*%
%INSoldermask Top*%
%IPPOS*%
%AMOC8*
5,1,8,0,0,1.08239X$1,22.5*%
G01*
G04 Define Apertures*
%ADD10C,1.989200*%
%ADD11R,1.503200X1.703200*%
%ADD12R,1.367800X1.668500*%
%ADD13R,1.668500X1.367800*%
%ADD14R,1.477900X2.053200*%
%ADD15C,2.524000*%
%ADD16C,2.219200*%
%ADD17R,1.473200X12.903200*%
%ADD18R,1.473200X12.203200*%
%ADD19R,1.403200X1.403200*%
%ADD20C,2.203200*%
%ADD21C,5.203200*%
D10*
X58700Y406400D03*
X58700Y381000D03*
X58700Y355600D03*
X58700Y330200D03*
X141300Y330200D03*
X141300Y355600D03*
X141300Y381000D03*
X141300Y406400D03*
D11*
X164340Y381000D03*
X183340Y381000D03*
X111100Y101600D03*
X92100Y101600D03*
D12*
X130946Y279400D03*
X148454Y279400D03*
D13*
X173087Y328791D03*
X173087Y311283D03*
D14*
X67003Y100986D03*
X34597Y100986D03*
X166440Y101600D03*
X134034Y101600D03*
D15*
X60804Y127000D02*
X37596Y127000D01*
X88396Y254000D02*
X111604Y254000D01*
X139196Y127000D02*
X162404Y127000D01*
D16*
X127964Y35480D02*
X127964Y15320D01*
X102564Y15320D02*
X102564Y35480D01*
X77164Y35480D02*
X77164Y15320D01*
D17*
X63500Y588900D03*
D18*
X90800Y585400D03*
X112400Y585400D03*
D17*
X139700Y588900D03*
D19*
X154600Y63500D03*
X175600Y63500D03*
D11*
X117500Y68260D03*
X136500Y68260D03*
D20*
X50800Y203200D03*
X76200Y444500D03*
D21*
X25762Y482600D03*
D20*
X52240Y292100D03*
X77640Y304800D03*
D21*
X174860Y483324D03*
D20*
X53747Y23462D03*
X53747Y74262D03*
X165100Y431800D03*
X164600Y177800D03*
M02*
