G04 EAGLE Gerber RS-274X export*
G75*
%MOMM*%
%FSLAX34Y34*%
%LPD*%
%INSoldermask Top*%
%IPPOS*%
%AMOC8*
5,1,8,0,0,1.08239X$1,22.5*%
G01*
G04 Define Apertures*
%ADD10C,1.989200*%
%ADD11R,1.503200X1.703200*%
%ADD12R,1.367800X1.668500*%
%ADD13R,1.668500X1.367800*%
%ADD14R,1.477900X2.053200*%
%ADD15C,2.524000*%
%ADD16C,2.219200*%
%ADD17R,1.473200X12.903200*%
%ADD18R,1.473200X12.203200*%
%ADD19C,2.203200*%
%ADD20C,5.203200*%
D10*
X58700Y381000D03*
X58700Y355600D03*
X58700Y330200D03*
X58700Y304800D03*
X141300Y304800D03*
X141300Y330200D03*
X141300Y355600D03*
X141300Y381000D03*
D11*
X164340Y355600D03*
X183340Y355600D03*
X111100Y76200D03*
X92100Y76200D03*
D12*
X130946Y254000D03*
X148454Y254000D03*
D13*
X173087Y303391D03*
X173087Y285883D03*
D14*
X67003Y75586D03*
X34597Y75586D03*
X166440Y76200D03*
X134034Y76200D03*
D15*
X60804Y101600D02*
X37596Y101600D01*
X88396Y228600D02*
X111604Y228600D01*
X139196Y101600D02*
X162404Y101600D01*
D16*
X127964Y35480D02*
X127964Y15320D01*
X102564Y15320D02*
X102564Y35480D01*
X77164Y35480D02*
X77164Y15320D01*
D17*
X63500Y563500D03*
D18*
X90800Y560000D03*
X112400Y560000D03*
D17*
X139700Y563500D03*
D19*
X50800Y177800D03*
X76200Y419100D03*
D20*
X25762Y457200D03*
D19*
X52240Y266700D03*
X77640Y279400D03*
D20*
X174860Y457924D03*
D19*
X165100Y406400D03*
X164600Y152400D03*
M02*
