<svg version="1.1" xmlns="http://www.w3.org/2000/svg" xmlns:xlink="http://www.w3.org/1999/xlink" stroke-linecap="round" stroke-linejoin="round" stroke-width="0" fill-rule="evenodd" width="20.574mm" height="66.183mm" viewBox="-127 -127 20574 66183" id="c9bWmPly-DlXgIQykKFJ"><defs><mask id="c9bWmPly-DlXgIQykKFJ_clear-1" fill="#000" stroke="#000"><g><rect x="889" y="11601.8" width="18542" height="47364.4" fill="#fff"/><path d="M 12173.2 46819.3 13652.8 46819.3 14002.9 46964.3 14270.9 47232.2 14415.9 47582.3 14415.9 47961.2 14270.9 48311.3 14002.9 48579.2 13652.8 48724.3 12173.2 48724.3 11823.2 48579.2 11555.2 48311.3 11410.2 47961.2 11410.2 47582.3 11555.2 47232.2 11823.2 46964.3 12173.2 46819.3"/><path d="M 4723 40716.2 5793.8 40716.2 5793.8 41787 5641.8 41787 5220.3 41612.4 4897.6 41289.7 4723 40868.2 4723 40716.2"/><path d="M 5946.2 40716.2 7017 40716.2 7017 40868.2 6842.4 41289.7 6519.7 41612.4 6098.2 41787 5946.2 41787 5946.2 40716.2"/><path d="M 16470.8 30292 17232.5 30292 17232.5 31052.1 16322 31052.1 16322 30440.8 16470.8 30292"/><path d="M 14921.6 28016.2 15681.7 28016.2 15681.7 28777.9 15532.9 28926.7 14921.6 28926.7 14921.6 28016.2"/><path d="M 14921.6 26953.4 15532.9 26953.4 15681.7 27102.1 15681.7 27863.8 14921.6 27863.8 14921.6 26953.4"/></g></mask><mask id="c9bWmPly-DlXgIQykKFJ_clear-2" fill="#000" stroke="#000"><g><rect x="889" y="4937.2" width="18542" height="54029" fill="#fff"/><path d="M 10846 6902.2 11673.8 6902.2 11673.8 7830 10994.8 7830 10846 7681.2 10846 6902.2"/><path d="M 10994.8 5822 11673.8 5822 11673.8 6749.8 10846 6749.8 10846 5970.8 10994.8 5822"/></g></mask><circle cx="0" cy="0" r="893" id="c9bWmPly-DlXgIQykKFJ_pad-12"/><rect x="-650" y="-750" width="1300" height="1500" id="c9bWmPly-DlXgIQykKFJ_pad-13"/><rect x="-582.3" y="-732.65" width="1164.6" height="1465.3" id="c9bWmPly-DlXgIQykKFJ_pad-14"/><rect x="-732.65" y="-582.3" width="1465.3" height="1164.6" id="c9bWmPly-DlXgIQykKFJ_pad-15"/><rect x="-637.35" y="-925" width="1274.7" height="1850" id="c9bWmPly-DlXgIQykKFJ_pad-16"/><rect x="-635" y="-6350" width="1270" height="12700" id="c9bWmPly-DlXgIQykKFJ_pad-19"/><rect x="-635" y="-6000" width="1270" height="12000" id="c9bWmPly-DlXgIQykKFJ_pad-20"/><rect x="-600" y="-600" width="1200" height="1200" id="c9bWmPly-DlXgIQykKFJ_pad-21"/><circle cx="0" cy="0" r="1000" id="c9bWmPly-DlXgIQykKFJ_pad-24"/><circle cx="0" cy="0" r="2500" id="c9bWmPly-DlXgIQykKFJ_pad-25"/></defs><g transform="translate(0,65929) scale(1,-1)" fill="currentColor" stroke="currentColor"><g mask="url(#c9bWmPly-DlXgIQykKFJ_clear-2)"><g mask="url(#c9bWmPly-DlXgIQykKFJ_clear-1)"><path d="M 8143.1 11617.1 8073.4 11601.8 7993.6 11614.7 7925.1 11657.7 7878.8 11724.1 7862.1 11803.2 7877.6 11882.6 8053.6 12307.5 8053.6 13092.5 7753.2 13817.7 7198.1 14372.8 6472.9 14673.2 3900.6 14673.2 3830.4 14685.7 3761.6 14728.2 3714.8 14794.2 3697.4 14873.2 3712.3 14952.7 3756.9 15020.1 5941.3 17204.5 6096 17577.9 6096 18688.1 6110.9 18764.4 6155.5 18831.8 6616.8 19293.1 6892.8 19959.4 6892.8 20680.6 6616.8 21346.9 6106.9 21856.8 5440.6 22132.8 4719.4 22132.8 4053.1 21856.8 3543.2 21346.9 3267.2 20680.6 3267.2 19959.4 3543.2 19293.1 4004.5 18831.8 4047.9 18767.4 4064 18688.1 4064 18285 4049.1 18208.7 4004.5 18141.3 1235.9 15372.7 1177.4 15331.9 1098.7 15313.3 1019 15326.9 950.8 15370.5 905.1 15437.2 889 15516.4 889 42644.8 901.5 42715.1 944 42783.9 1010 42830.7 1089 42848 1168.5 42833.2 1235.9 42788.5 1420.5 42603.9 1770.6 42458.9 2149.5 42458.9 2499.6 42603.9 2767.5 42871.9 2818 42993.8 2860.9 43058.6 2928 43103.8 3049.9 43154.3 3317.9 43422.2 3462.9 43772.3 3462.9 44151.2 3317.9 44501.3 3150.5 44668.7 3099.7 44753.5 3092.1 44834.1 3116.6 44911.1 3169.2 44972.6 3241.6 45008.6 3854.9 45173 4610.3 45609.1 5093 46091.8 5154.4 46133.9 5233.4 46151.3 5312.9 46136.4 5380.3 46091.8 5961.4 45510.7 6004.2 45447.7 6020.9 45368.6 6005.5 45289.2 5807.2 44810.6 5807.2 44089.4 6083.2 43423.1 6593.1 42913.2 7259.4 42637.2 7980.6 42637.2 8646.9 42913.2 9156.8 43423.1 9432.8 44089.4 9432.8 44810.6 9156.8 45476.9 9000.3 45633.4 8956.9 45697.8 8940.8 45777.1 8940.8 45982.7 8739.7 46468.2 7730.3 47477.6 7686.9 47542 7670.8 47621.3 7670.8 51676.8 7683.9 51748.5 7726.9 51817 7793.3 51863.3 7872.4 51880 7951.8 51864.5 8283.3 51727.2 9876.7 51727.2 10082.2 51812.3 10158.4 51827.8 10237.8 51812.3 10443.3 51727.2 12036.7 51727.2 12335.4 51850.9 12564.1 52079.6 12703.1 52415.3 12742.7 52476.6 12808.6 52523.4 12887.6 52540.7 12967.1 52525.9 13034.5 52481.2 13229.8 52286 13893.8 52286 13893.8 58966.2 14046.2 58966.2 14046.2 52286 14710.2 52286 14859 52434.8 14859 53136.8 14872.7 53210.1 14916.2 53278.2 14982.9 53323.9 15062.2 53340 15067.8 53340 15141.1 53326.3 15209.2 53282.8 15254.9 53216.1 15271 53136.8 15271 52363.2 15406.3 52036.4 15656.4 51786.3 15983.2 51651 19227.8 51651 19301.1 51637.3 19369.2 51593.8 19414.9 51527.1 19431 51447.8 19431 41347.5 19418.5 41277.2 19376 41208.4 19310 41161.6 19231 41144.3 19151.5 41159.1 19084.1 41203.8 18528.2 41759.7 18166 41909.8 18103.5 41950.4 18057.2 42016.7 18040.5 42095.9 18056 42175.3 18322.8 42819.4 18322.8 43540.6 18046.8 44206.9 17536.9 44716.8 16870.6 44992.8 16149.4 44992.8 15483.1 44716.8 15326.6 44560.3 15262.2 44516.9 15182.9 44500.8 13227.3 44500.8 12741.8 44299.7 7555.9 39113.8 7494.5 39071.7 7415.5 39054.3 7336 39069.2 7268.6 39113.8 6836.3 39546.1 6807.5 39558 6746.2 39597.6 6699.4 39663.5 6682.1 39742.5 6696.9 39822 6741.6 39889.4 6842.4 39990.3 7017 40411.8 7017 40563.8 4723 40563.8 4723 40411.8 4897.6 39990.3 4998.5 39889.4 5039.9 39829.5 5057.9 39750.6 5043.7 39671 4999.6 39603.2 4932.5 39558 4903.7 39546.1 4838 39480.3 4773.5 39436.9 4694.3 39420.8 4385.5 39420.8 4360.1 39422.4 4194.2 39443.3 4138.6 39428 4084.9 39420.8 4027.3 39420.8 3872.8 39356.8 3848.7 39348.6 3687.5 39304.4 3641.9 39269 3595.1 39241.8 3541.8 39219.7 3423.6 39101.5 3404.5 39084.7 2451.9 38345 2405.1 38317.8 2351.8 38295.7 2233.6 38177.5 2214.5 38160.7 2082.4 38058.1 2053.9 38008 2021 37964.9 1980.3 37924.2 1916.3 37769.7 1905.1 37746.9 1822.3 37601.6 1815.1 37544.4 1801.3 37492 1779.2 37438.7 1779.2 37271.5 1777.6 37246.1 1756.7 37080.2 1772 37024.6 1779.2 36970.9 1779.2 27414.3 1769.1 27350.9 1763.2 27333 1778.6 27128.3 1779.2 27113 1779.2 26907.7 1786.4 26890.3 1801.3 26827.8 1802.7 26809.1 1895.3 26625.8 1901.7 26611.9 1980.3 26422.2 1993.6 26408.9 2031.2 26356.9 2039.7 26340.1 2195.4 26206.3 2206.6 26195.9 2351.8 26050.7 2369.2 26043.5 2423.9 26009.8 4091.8 24575.9 4103 24565.5 4248.2 24420.3 4265.6 24413.1 4320.3 24379.4 4334.5 24367.2 4529.6 24303.1 4544 24297.8 4733.7 24219.2 4752.5 24219.2 4815.9 24209.1 4833.7 24203.2 5038.5 24218.6 5053.8 24219.2 7145.7 24219.2 7222 24204.3 7289.4 24159.7 7721.9 23727.2 8447.1 23426.8 11552.9 23426.8 12278.1 23727.2 12833.2 24282.3 13133.6 25007.5 13133.6 25721.5 13148.5 25797.8 13193.1 25865.2 13662.9 26335 13727.4 26378.5 13806.6 26394.6 13838.6 26394.6 14137.3 26518.3 14366 26746.9 14399.5 26827.9 14441.3 26891.5 14508 26937.3 14587.2 26953.4 14769.2 26953.4 14769.2 28926.7 14587.2 28926.7 14512.5 28940.9 14444.7 28985 14399.5 29052.1 14366 29133.1 14137.3 29361.7 13838.6 29485.5 12350.6 29485.5 12051.9 29361.7 11823.2 29133.1 11711.7 28863.9 11674.4 28805 11609.2 28757.1 11530.5 28738.5 11450.8 28752.1 11382.6 28795.7 11336.9 28862.4 11320.8 28941.6 11320.8 30958.7 11335.7 31035 11380.3 31102.4 12365.7 32087.8 12425.7 32129.3 12504.6 32147.2 12584.2 32133 12651.9 32088.9 12658.5 32079.1 13163.7 31573.9 13790.7 31314.2 14469.3 31314.2 15096.3 31573.9 15162.1 31639.7 15226.5 31683.1 15305.7 31699.2 15395.3 31699.2 15473.1 31683.7 15775.9 31558.3 16118.8 31558.3 16192.1 31544.6 16260.2 31501.1 16305.9 31434.4 16322 31355.1 16322 31204.5 17384.9 31204.5 17384.9 30292 17910 30292 17983.3 30278.3 18051.4 30234.8 18097.1 30168.1 18113.2 30088.8 18113.2 24616.8 18098.3 24540.5 18053.7 24473.1 9990.3 16409.7 9789.2 15924.2 9789.2 11926 9775.5 11852.8 9732 11784.6 9665.3 11738.9 9586 11722.8 8398.3 11722.8 8143.1 11617.1"/></g><path d="M 11608.6 4954.6 11529.6 4937.2 11450.1 4952 11382.7 4996.7 11287.8 5091.6 10803.5 5292.2 10728.7 5345.7 10488.1 5619.2 10453.1 5675.4 10337.6 5790.9 10328.7 5800.4 10220.9 5923 10167.3 5961.3 10016.4 6023.8 10004.6 6029.1 9858 6101.1 9793.9 6116 9630.6 6116 9617.6 6116.4 9454.6 6126.8 9389.4 6116 3010.4 6116 2937.2 6129.7 2869 6173.2 2823.3 6239.9 2807.2 6319.2 2807.2 8157.6 2820.9 8230.9 2864.4 8299 2931.1 8344.7 3010.4 8360.8 4258.7 8360.8 4557.5 8484.5 4786.1 8713.2 4892.3 8969.5 4930.7 9029.6 4996.3 9076.9 5075.1 9094.9 5154.8 9080.7 5222.5 9036.5 5267.7 8969.5 5373.9 8713.2 5602.5 8484.5 5901.3 8360.8 7499.3 8360.8 7798.1 8484.5 7957.5 8644 8020.5 8686.8 8099.6 8703.5 8179 8688.1 8398.3 8597.2 10021.7 8597.2 10082.2 8622.3 10158.4 8637.7 10237.8 8622.3 10298.3 8597.2 11921.7 8597.2 12031.5 8642.7 12106 8658.1 12185.5 8643.3 12252.9 8598.6 12305.6 8545.9 12388.7 8511.5 12450 8472 12496.8 8406 12514.1 8327 12499.3 8247.5 12454.6 8180.1 12310.9 8036.4 12277.4 7955.4 12235.6 7891.8 12168.9 7846.1 12089.7 7830 11826.2 7830 11826.2 5822 12089.7 5822 12164.4 5807.7 12232.2 5763.6 12277.4 5696.6 12313 5610.7 12348 5560 12366 5481.2 12351.8 5401.6 12307.7 5333.8 12240.6 5288.6 11765 5091.6 11670.1 4996.7 11608.6 4954.6"/></g><path d="M 6391.9 905.1 6312.7 889 1092.2 889 1019 902.7 950.8 946.2 905.1 1012.9 889 1092.2 889 4728.6 901.5 4798.8 944 4867.7 1010 4914.4 1089 4931.8 1168.5 4917 1188.2 4903.9 1216.1 4892.4 1272.4 4857.3 1835.8 4362.6 1845.4 4353.6 1960.3 4238.7 1960.7 4238.5 2017 4203.5 2017.3 4203.2 2171.2 4150.9 2183.6 4146.2 2333.7 4084 2334.2 4084 2399.6 4073.2 2400 4073 2562.2 4083.6 2575.4 4084 6268.3 4084 6340.1 4070.9 6408.5 4027.9 6454.8 3961.5 6471.5 3882.4 6456.1 3803 6454.4 3799 6454.4 2616.2 7792.6 2616.2 7792.6 2463.8 6454.4 2463.8 6454.4 1281 6500.4 1170 6515.8 1098.7 6502.2 1019 6458.6 950.8 6391.9 905.1"/><path d="M 1409.7 43961.8 2510.4 43961.8 M 1960 43411.4 1960 44512.1 M 12362.7 47771.8 13463.4 47771.8" fill="none" stroke-width="279.4"/><path d="M 19558 1078.1 19557.8 1067.1 19557.2 1056 19556.3 1045.1 19554.9 1034.1 19553.2 1023.2 19551.1 1012.4 19548.6 1001.6 19545.8 991 19542.5 980.4 19538.9 970 19535 959.7 19530.7 949.5 19526 939.5 19521 929.7 19515.7 920 19510 910.6 19504 901.3 19497.6 892.3 19491 883.5 19484 874.9 19476.8 866.6 19469.3 858.5 19461.5 850.7 19453.4 843.2 19445.1 836 19436.5 829 19427.7 822.4 19418.7 816 19409.4 810 19399.9 804.3 19390.3 799 19380.5 794 19370.5 789.3 19360.3 785 19350 781.1 19339.6 777.5 19329 774.2 19318.4 771.4 19307.6 768.9 19296.8 766.8 19285.9 765.1 19274.9 763.7 19264 762.8 19252.9 762.2 19241.9 762 19225.9 762.2 19210 762.8 19194 763.7 19178.1 765.1 19162.2 766.8 19146.4 768.9 19130.6 771.3 19114.9 774.2 19099.2 777.4 19083.7 781 19068.2 785 19052.8 789.3 19037.5 794 19022.4 799.1 19007.4 804.5 18992.5 810.3 18977.7 816.5 18963.1 823 18948.7 829.8 18934.4 837 18920.3 844.5 18906.4 852.4 18892.7 860.6 18879.2 869.1 18865.9 877.9 18852.8 887.1 18839.9 896.6 18827.3 906.3 18814.9 916.4 18802.7 926.8 18790.8 937.4 18779.2 948.3 18767.8 959.5 M 18807.3 1868.3 18807.5 1879.3 18808.1 1890.4 18809 1901.3 18810.4 1912.3 18812.1 1923.2 18814.2 1934 18816.7 1944.8 18819.5 1955.4 18822.8 1966 18826.4 1976.4 18830.3 1986.7 18834.6 1996.9 18839.3 2006.9 18844.3 2016.7 18849.6 2026.4 18855.3 2035.8 18861.3 2045.1 18867.7 2054.1 18874.3 2062.9 18881.3 2071.5 18888.5 2079.8 18896 2087.9 18903.8 2095.7 18911.9 2103.2 18920.2 2110.4 18928.8 2117.4 18937.6 2124 18946.6 2130.4 18955.9 2136.4 18965.4 2142.1 18975 2147.4 18984.8 2152.4 18994.8 2157.1 19005 2161.4 19015.3 2165.3 19025.7 2168.9 19036.3 2172.2 19046.9 2175 19057.7 2177.5 19068.5 2179.6 19079.4 2181.3 19090.4 2182.7 19101.4 2183.6 19112.4 2184.2 19123.4 2184.4 19138.7 2184.2 19153.9 2183.6 19169.1 2182.6 19184.3 2181.3 19199.5 2179.5 19214.6 2177.3 19229.6 2174.8 19244.6 2171.9 19259.5 2168.6 19274.3 2164.9 19289 2160.8 19303.6 2156.3 19318.1 2151.5 19332.4 2146.3 19346.6 2140.8 19360.7 2134.8 19374.6 2128.6 19388.3 2121.9 19401.8 2114.9 19415.2 2107.6 19428.4 2099.9 19441.4 2091.9 19454.1 2083.5 19466.7 2074.9 19479 2065.9 M 18965.3 1591.7 18955.9 1597.6 18946.6 1603.7 18937.5 1610.1 18928.7 1616.9 18920.1 1623.9 18911.8 1631.3 18903.7 1638.9 18895.9 1646.8 18888.4 1655 18881.2 1663.4 18874.2 1672.1 18867.6 1681 18861.3 1690.1 18855.3 1699.5 18849.6 1709 18844.2 1718.8 18839.2 1728.7 18834.6 1738.8 18830.3 1749 18826.3 1759.4 18822.7 1769.9 18819.5 1780.6 18816.7 1791.3 18814.2 1802.1 18812.1 1813 18810.4 1824 18809 1835 18808.1 1846.1 18807.5 1857.2 18807.3 1868.3 M 19400 1354.7 19409.4 1348.9 19418.7 1342.7 19427.8 1336.3 19436.6 1329.5 19445.2 1322.5 19453.5 1315.1 19461.6 1307.5 19469.4 1299.6 19476.9 1291.4 19484.1 1283 19491.1 1274.3 19497.7 1265.4 19504 1256.3 19510 1246.9 19515.7 1237.4 19521 1227.6 19526.1 1217.7 19530.7 1207.6 19535 1197.4 19539 1187 19542.6 1176.5 19545.8 1165.8 19548.6 1155.1 19551.1 1144.3 19553.2 1133.4 19554.9 1122.4 19556.3 1111.4 19557.2 1100.3 19557.8 1089.2 19558 1078.1 M 19400 1354.7 18965.3 1591.7" fill="none" stroke-width="254"/><use xlink:href="#c9bWmPly-DlXgIQykKFJ_pad-12" x="5870" y="40640"/><use xlink:href="#c9bWmPly-DlXgIQykKFJ_pad-12" x="5870" y="38100"/><use xlink:href="#c9bWmPly-DlXgIQykKFJ_pad-12" x="5870" y="35560"/><use xlink:href="#c9bWmPly-DlXgIQykKFJ_pad-12" x="5870" y="33020"/><use xlink:href="#c9bWmPly-DlXgIQykKFJ_pad-12" x="14130" y="33020"/><use xlink:href="#c9bWmPly-DlXgIQykKFJ_pad-12" x="14130" y="35560"/><use xlink:href="#c9bWmPly-DlXgIQykKFJ_pad-12" x="14130" y="38100"/><use xlink:href="#c9bWmPly-DlXgIQykKFJ_pad-12" x="14130" y="40640"/><use xlink:href="#c9bWmPly-DlXgIQykKFJ_pad-13" x="16434" y="38100"/><use xlink:href="#c9bWmPly-DlXgIQykKFJ_pad-13" x="18334" y="38100"/><use xlink:href="#c9bWmPly-DlXgIQykKFJ_pad-13" x="11110" y="10160"/><use xlink:href="#c9bWmPly-DlXgIQykKFJ_pad-13" x="9210" y="10160"/><use xlink:href="#c9bWmPly-DlXgIQykKFJ_pad-14" x="13094.6" y="27940"/><use xlink:href="#c9bWmPly-DlXgIQykKFJ_pad-14" x="14845.4" y="27940"/><use xlink:href="#c9bWmPly-DlXgIQykKFJ_pad-15" x="17308.7" y="32879.1"/><use xlink:href="#c9bWmPly-DlXgIQykKFJ_pad-15" x="17308.7" y="31128.3"/><use xlink:href="#c9bWmPly-DlXgIQykKFJ_pad-16" x="6700.3" y="10098.6"/><use xlink:href="#c9bWmPly-DlXgIQykKFJ_pad-16" x="3459.7" y="10098.6"/><use xlink:href="#c9bWmPly-DlXgIQykKFJ_pad-16" x="16644" y="10160"/><use xlink:href="#c9bWmPly-DlXgIQykKFJ_pad-16" x="13403.4" y="10160"/><path d="M 6080.4 12700 3759.6 12700 M 8839.6 25400 11160.4 25400 M 13919.6 12700 16240.4 12700" fill="none" stroke-width="2320.8"/><path d="M 12796.4 3548 12796.4 1532 M 10256.4 1532 10256.4 3548 M 7716.4 3548 7716.4 1532" fill="none" stroke-width="2016"/><use xlink:href="#c9bWmPly-DlXgIQykKFJ_pad-19" x="6350" y="58890"/><use xlink:href="#c9bWmPly-DlXgIQykKFJ_pad-20" x="9080" y="58540"/><use xlink:href="#c9bWmPly-DlXgIQykKFJ_pad-20" x="11240" y="58540"/><use xlink:href="#c9bWmPly-DlXgIQykKFJ_pad-19" x="13970" y="58890"/><use xlink:href="#c9bWmPly-DlXgIQykKFJ_pad-21" x="15460" y="6350"/><use xlink:href="#c9bWmPly-DlXgIQykKFJ_pad-21" x="17560" y="6350"/><use xlink:href="#c9bWmPly-DlXgIQykKFJ_pad-13" x="11750" y="6826"/><use xlink:href="#c9bWmPly-DlXgIQykKFJ_pad-13" x="13650" y="6826"/><path d="M 10960 35460 10960 38000 M 10960 35460 8520 33020 5870 33020" fill="none" stroke-width="1016"/><path d="M 5080 20320 5080 17780" fill="none" stroke-width="406.4"/><use xlink:href="#c9bWmPly-DlXgIQykKFJ_pad-24" x="5080" y="20320"/><path d="M 18334 38100 18334 40086 17780 40640 14130 40640 M 13600 40640 10960 38000 M 13600 40640 14130 40640" fill="none" stroke-width="1016"/><use xlink:href="#c9bWmPly-DlXgIQykKFJ_pad-24" x="7620" y="44450"/><path d="M 7764 30480 5870 30480 5870 33020 M 7620 44450 7620 45720 6350 46990 5080 48260" fill="none" stroke-width="1016"/><use xlink:href="#c9bWmPly-DlXgIQykKFJ_pad-25" x="2576.2" y="48260"/><path d="M 6350 46990 6350 58890 M 5080 48260 2576.2 48260" fill="none" stroke-width="1016"/><path d="M 5080 17780 1791.2 14491.2 M 1791.2 5753.8 2535.8 5100 M 1791.2 5753.8 1791.2 14491.2" fill="none" stroke-width="406.4"/><use xlink:href="#c9bWmPly-DlXgIQykKFJ_pad-24" x="5224" y="29210"/><use xlink:href="#c9bWmPly-DlXgIQykKFJ_pad-24" x="7764" y="30480"/><path d="M 7764 30480 5224 30480 5224 29210" fill="none" stroke-width="1016"/><path d="M 10256.4 4344.5 10256.4 2540 M 10256.4 4344.5 9591.7 5100 2535.8 5100" fill="none" stroke-width="406.4"/><use xlink:href="#c9bWmPly-DlXgIQykKFJ_pad-25" x="17486" y="48332.4"/><path d="M 17486 48332.4 14946 45792.4 13437.5 45792.4 8285.1 40640 5870 40640" fill="none" stroke-width="400"/><path d="M 5870 40640 730 40640 M 17308.7 31128.3 17308.7 28715.1" fill="none" stroke-width="1016"/><path d="M 17308.7 28715.1 16533.6 27940" fill="none" stroke-width="400"/><path d="M 16533.6 27940 14845.4 27940" fill="none" stroke-width="1016"/><path d="M 12847.9 22270 730 22270 M 12847.9 22270 14845.4 24267.6 14845.4 27940" fill="none" stroke-width="400"/><path d="M 730 22270 730 40640 M 2234.3 2540 7716.4 2540 M 2234.3 2540 730 4044.3" fill="none" stroke-width="1016"/><use xlink:href="#c9bWmPly-DlXgIQykKFJ_pad-24" x="5374.7" y="2346.2"/><path d="M 730 4044.3 730 22270" fill="none" stroke-width="1016"/><use xlink:href="#c9bWmPly-DlXgIQykKFJ_pad-24" x="5374.7" y="7426.2"/><path d="M 8514.9 6826 11750 6826 M 8514.9 6826 7914.7 7426.2 5374.7 7426.2 M 14130 33020 15897.8 33020 M 16038.7 32879.1 17308.7 32879.1 M 16038.7 32879.1 15897.8 33020 M 13000 27540 11000 25540 10000 25540 M 13000 27540 13094.6 27940 M 5870 38100 4290 38100" fill="none" stroke-width="1016"/><path d="M 10000 25540 10000 25400" fill="none" stroke-width="400"/><path d="M 13970 35560 14130 35560 M 13970 35560 10000 31590 10000 25540 M 3100 37176 4290 38100 M 4996.4 25540 10000 25540 M 4996.4 25540 3100 27170.4 3100 37176 M 11110 10160 13403.4 10160 M 14130 38100 16434 38100 M 11110 15661.5 11110 10160 M 19434 33467.7 16434 36467.7 M 19434 33467.7 19434 23985.5 11110 15661.5 M 16434 36467.7 16434 38100" fill="none" stroke-width="1016"/><path d="M 6761.7 10160 6700.3 10098.6" fill="none" stroke-width="400"/><path d="M 6761.7 10160 9210 10160 M 16644 10160 16644 11136.1 15080 12700 M 3459.7 11239.7 3459.7 10098.6 M 3459.7 11239.7 4920 12700 M 13490 43180 16510 43180 M 13490 43180 5870 35560" fill="none" stroke-width="1016"/><use xlink:href="#c9bWmPly-DlXgIQykKFJ_pad-24" x="16510" y="43180"/><use xlink:href="#c9bWmPly-DlXgIQykKFJ_pad-24" x="16460" y="17780"/><path d="M 16460 17780 16510 17780" fill="none" stroke-width="406.4"/><path d="M 16510 17780 19050 15240 M 16359.6 2540 12796.4 2540 M 19050 5230.4 19050 6350 19050 15240 M 19050 5230.4 16359.6 2540 M 17560 6350 19050 6350 M 13650 6670 13650 6826 M 13650 6670 13970 6350 15460 6350" fill="none" stroke-width="1016"/><path d="M 0 0 20320 0 20320 52540 16163.9 52540 16163.9 65929 4162.3 65929 4162.3 52540 0 52540 0 0" fill="none" stroke-width="254"/></g></svg>