<svg version="1.1" xmlns="http://www.w3.org/2000/svg" xmlns:xlink="http://www.w3.org/1999/xlink" stroke-linecap="round" stroke-linejoin="round" stroke-width="0" fill-rule="evenodd" width="20.574mm" height="63.643mm" viewBox="-127 -127 20574 63643" id="q9wrHmIXSCnDoDeQtFMp"><defs><mask id="q9wrHmIXSCnDoDeQtFMp_clear-1" fill="#000" stroke="#000"><g><rect x="889" y="9061.8" width="18542" height="47364.4" fill="#fff"/><path d="M 12173.2 44279.3 13652.8 44279.3 14002.9 44424.3 14270.9 44692.2 14415.9 45042.3 14415.9 45421.2 14270.9 45771.3 14002.9 46039.2 13652.8 46184.3 12173.2 46184.3 11823.2 46039.2 11555.2 45771.3 11410.2 45421.2 11410.2 45042.3 11555.2 44692.2 11823.2 44424.3 12173.2 44279.3"/><path d="M 4723 38176.2 5793.8 38176.2 5793.8 39247 5641.8 39247 5220.3 39072.4 4897.6 38749.7 4723 38328.2 4723 38176.2"/><path d="M 5946.2 38176.2 7017 38176.2 7017 38328.2 6842.4 38749.7 6519.7 39072.4 6098.2 39247 5946.2 39247 5946.2 38176.2"/><path d="M 16470.8 27752 17232.5 27752 17232.5 28512.1 16322 28512.1 16322 27900.8 16470.8 27752"/><path d="M 14921.6 25476.2 15681.7 25476.2 15681.7 26237.9 15532.9 26386.7 14921.6 26386.7 14921.6 25476.2"/><path d="M 14921.6 24413.4 15532.9 24413.4 15681.7 24562.1 15681.7 25323.8 14921.6 25323.8 14921.6 24413.4"/></g></mask><circle cx="0" cy="0" r="893" id="q9wrHmIXSCnDoDeQtFMp_pad-12"/><rect x="-650" y="-750" width="1300" height="1500" id="q9wrHmIXSCnDoDeQtFMp_pad-13"/><rect x="-582.3" y="-732.65" width="1164.6" height="1465.3" id="q9wrHmIXSCnDoDeQtFMp_pad-14"/><rect x="-732.65" y="-582.3" width="1465.3" height="1164.6" id="q9wrHmIXSCnDoDeQtFMp_pad-15"/><rect x="-637.35" y="-925" width="1274.7" height="1850" id="q9wrHmIXSCnDoDeQtFMp_pad-16"/><rect x="-635" y="-6350" width="1270" height="12700" id="q9wrHmIXSCnDoDeQtFMp_pad-19"/><rect x="-635" y="-6000" width="1270" height="12000" id="q9wrHmIXSCnDoDeQtFMp_pad-20"/><circle cx="0" cy="0" r="1000" id="q9wrHmIXSCnDoDeQtFMp_pad-23"/><circle cx="0" cy="0" r="2500" id="q9wrHmIXSCnDoDeQtFMp_pad-24"/></defs><g transform="translate(0,63389) scale(1,-1)" fill="currentColor" stroke="currentColor"><g mask="url(#q9wrHmIXSCnDoDeQtFMp_clear-1)"><path d="M 8143.1 9077.1 8073.4 9061.8 7993.6 9074.7 7925.1 9117.7 7878.8 9184.1 7862.1 9263.2 7877.6 9342.6 8053.6 9767.5 8053.6 10552.5 7753.2 11277.7 7198.1 11832.8 6472.9 12133.2 3900.6 12133.2 3830.4 12145.7 3761.6 12188.2 3714.8 12254.2 3697.4 12333.2 3712.3 12412.7 3756.9 12480.1 5941.3 14664.5 6096 15037.9 6096 16148.1 6110.9 16224.4 6155.5 16291.8 6616.8 16753.1 6892.8 17419.4 6892.8 18140.6 6616.8 18806.9 6106.9 19316.8 5440.6 19592.8 4719.4 19592.8 4053.1 19316.8 3543.2 18806.9 3267.2 18140.6 3267.2 17419.4 3543.2 16753.1 4004.5 16291.8 4047.9 16227.4 4064 16148.1 4064 15745 4049.1 15668.7 4004.5 15601.3 1235.9 12832.7 1177.4 12791.9 1098.7 12773.3 1019 12786.9 950.8 12830.5 905.1 12897.2 889 12976.4 889 40104.8 901.5 40175.1 944 40243.9 1010 40290.7 1089 40308 1168.5 40293.2 1235.9 40248.5 1420.5 40063.9 1770.6 39918.9 2149.5 39918.9 2499.6 40063.9 2767.5 40331.9 2818 40453.8 2860.9 40518.6 2928 40563.8 3049.9 40614.3 3317.9 40882.2 3462.9 41232.3 3462.9 41611.2 3317.9 41961.3 3150.5 42128.7 3099.7 42213.5 3092.1 42294.1 3116.6 42371.1 3169.2 42432.6 3241.6 42468.6 3854.9 42633 4610.3 43069.1 5093 43551.8 5154.4 43593.9 5233.4 43611.3 5312.9 43596.4 5380.3 43551.8 5961.4 42970.7 6004.2 42907.7 6020.9 42828.6 6005.5 42749.2 5807.2 42270.6 5807.2 41549.4 6083.2 40883.1 6593.1 40373.2 7259.4 40097.2 7980.6 40097.2 8646.9 40373.2 9156.8 40883.1 9432.8 41549.4 9432.8 42270.6 9156.8 42936.9 9000.3 43093.4 8956.9 43157.8 8940.8 43237.1 8940.8 43442.7 8739.7 43928.2 7730.3 44937.6 7686.9 45002 7670.8 45081.3 7670.8 49136.8 7683.9 49208.5 7726.9 49277 7793.3 49323.3 7872.4 49340 7951.8 49324.5 8283.3 49187.2 9876.7 49187.2 10082.2 49272.3 10158.4 49287.8 10237.8 49272.3 10443.3 49187.2 12036.7 49187.2 12335.4 49310.9 12564.1 49539.6 12703.1 49875.3 12742.7 49936.6 12808.6 49983.4 12887.6 50000.7 12967.1 49985.9 13034.5 49941.2 13229.8 49746 13893.8 49746 13893.8 56426.2 14046.2 56426.2 14046.2 49746 14710.2 49746 14859 49894.8 14859 50596.8 14872.7 50670.1 14916.2 50738.2 14982.9 50783.9 15062.2 50800 15067.8 50800 15141.1 50786.3 15209.2 50742.8 15254.9 50676.1 15271 50596.8 15271 49823.2 15406.3 49496.4 15656.4 49246.3 15983.2 49111 19227.8 49111 19301.1 49097.3 19369.2 49053.8 19414.9 48987.1 19431 48907.8 19431 38807.5 19418.5 38737.2 19376 38668.4 19310 38621.6 19231 38604.3 19151.5 38619.1 19084.1 38663.8 18528.2 39219.7 18166 39369.8 18103.5 39410.4 18057.2 39476.7 18040.5 39555.9 18056 39635.3 18322.8 40279.4 18322.8 41000.6 18046.8 41666.9 17536.9 42176.8 16870.6 42452.8 16149.4 42452.8 15483.1 42176.8 15326.6 42020.3 15262.2 41976.9 15182.9 41960.8 13227.3 41960.8 12741.8 41759.7 7555.9 36573.8 7494.5 36531.7 7415.5 36514.3 7336 36529.2 7268.6 36573.8 6836.3 37006.1 6807.5 37018 6746.2 37057.6 6699.4 37123.5 6682.1 37202.5 6696.9 37282 6741.6 37349.4 6842.4 37450.3 7017 37871.8 7017 38023.8 4723 38023.8 4723 37871.8 4897.6 37450.3 4998.5 37349.4 5039.9 37289.5 5057.9 37210.6 5043.7 37131 4999.6 37063.2 4932.5 37018 4903.7 37006.1 4838 36940.3 4773.5 36896.9 4694.3 36880.8 4385.5 36880.8 4360.1 36882.4 4194.2 36903.3 4138.6 36888 4084.9 36880.8 4027.3 36880.8 3872.8 36816.8 3848.7 36808.6 3687.5 36764.4 3641.9 36729 3595.1 36701.8 3541.8 36679.7 3423.6 36561.5 3404.5 36544.7 2451.9 35805 2405.1 35777.8 2351.8 35755.7 2233.6 35637.5 2214.5 35620.7 2082.4 35518.1 2053.9 35468 2021 35424.9 1980.3 35384.2 1916.3 35229.7 1905.1 35206.9 1822.3 35061.6 1815.1 35004.4 1801.3 34952 1779.2 34898.7 1779.2 34731.5 1777.6 34706.1 1756.7 34540.2 1772 34484.6 1779.2 34430.9 1779.2 24874.3 1769.1 24810.9 1763.2 24793 1778.6 24588.3 1779.2 24573 1779.2 24367.7 1786.4 24350.3 1801.3 24287.8 1802.7 24269.1 1895.3 24085.8 1901.7 24071.9 1980.3 23882.2 1993.6 23868.9 2031.2 23816.9 2039.7 23800.1 2195.4 23666.3 2206.6 23655.9 2351.8 23510.7 2369.2 23503.5 2423.9 23469.8 4091.8 22035.9 4103 22025.5 4248.2 21880.3 4265.6 21873.1 4320.3 21839.4 4334.5 21827.2 4529.6 21763.1 4544 21757.8 4733.7 21679.2 4752.5 21679.2 4815.9 21669.1 4833.7 21663.2 5038.5 21678.6 5053.8 21679.2 7145.7 21679.2 7222 21664.3 7289.4 21619.7 7721.9 21187.2 8447.1 20886.8 11552.9 20886.8 12278.1 21187.2 12833.2 21742.3 13133.6 22467.5 13133.6 23181.5 13148.5 23257.8 13193.1 23325.2 13662.9 23795 13727.4 23838.5 13806.6 23854.6 13838.6 23854.6 14137.3 23978.3 14366 24206.9 14399.5 24287.9 14441.3 24351.5 14508 24397.3 14587.2 24413.4 14769.2 24413.4 14769.2 26386.7 14587.2 26386.7 14512.5 26400.9 14444.7 26445 14399.5 26512.1 14366 26593.1 14137.3 26821.7 13838.6 26945.5 12350.6 26945.5 12051.9 26821.7 11823.2 26593.1 11711.7 26323.9 11674.4 26265 11609.2 26217.1 11530.5 26198.5 11450.8 26212.1 11382.6 26255.7 11336.9 26322.4 11320.8 26401.6 11320.8 28418.7 11335.7 28495 11380.3 28562.4 12365.7 29547.8 12425.7 29589.3 12504.6 29607.2 12584.2 29593 12651.9 29548.9 12658.5 29539.1 13163.7 29033.9 13790.7 28774.2 14469.3 28774.2 15096.3 29033.9 15162.1 29099.7 15226.5 29143.1 15305.7 29159.2 15395.3 29159.2 15473.1 29143.7 15775.9 29018.3 16118.8 29018.3 16192.1 29004.6 16260.2 28961.1 16305.9 28894.4 16322 28815.1 16322 28664.5 17384.9 28664.5 17384.9 27752 17910 27752 17983.3 27738.3 18051.4 27694.8 18097.1 27628.1 18113.2 27548.8 18113.2 22076.8 18098.3 22000.5 18053.7 21933.1 9990.3 13869.7 9789.2 13384.2 9789.2 9386 9775.5 9312.8 9732 9244.6 9665.3 9198.9 9586 9182.8 8398.3 9182.8 8143.1 9077.1"/></g><path d="M 6391.9 905.1 6312.7 889 1092.2 889 1019 902.7 950.8 946.2 905.1 1012.9 889 1092.2 889 4728.6 901.5 4798.8 944 4867.7 1010 4914.4 1089 4931.8 1168.5 4917 1235.9 4872.3 1960.3 4147.9 2333.7 3993.2 6251.2 3993.2 6324.5 3979.5 6392.6 3936 6438.3 3869.3 6454.4 3790 6454.4 2616.2 7792.6 2616.2 7792.6 2463.8 6454.4 2463.8 6454.4 1281 6500.4 1170 6515.8 1098.7 6502.2 1019 6458.6 950.8 6391.9 905.1"/><path d="M 1409.7 41421.8 2510.4 41421.8 M 1960 40871.4 1960 41972.1 M 12362.7 45231.8 13463.4 45231.8" fill="none" stroke-width="279.4"/><path d="M 19340.4 1078.1 19340.2 1067.1 19339.6 1056 19338.7 1045.1 19337.3 1034.1 19335.6 1023.2 19333.5 1012.4 19331 1001.6 19328.2 991 19324.9 980.4 19321.3 970 19317.4 959.7 19313.1 949.5 19308.4 939.5 19303.4 929.7 19298.1 920 19292.4 910.6 19286.4 901.3 19280 892.3 19273.4 883.5 19266.4 874.9 19259.2 866.6 19251.7 858.5 19243.9 850.7 19235.8 843.2 19227.5 836 19218.9 829 19210.1 822.4 19201.1 816 19191.8 810 19182.3 804.3 19172.7 799 19162.9 794 19152.9 789.3 19142.7 785 19132.4 781.1 19122 777.5 19111.4 774.2 19100.8 771.4 19090 768.9 19079.2 766.8 19068.3 765.1 19057.3 763.7 19046.4 762.8 19035.3 762.2 19024.3 762 19008.3 762.2 18992.4 762.8 18976.4 763.7 18960.5 765.1 18944.6 766.8 18928.8 768.9 18913 771.3 18897.3 774.2 18881.6 777.4 18866.1 781 18850.6 785 18835.2 789.3 18819.9 794 18804.8 799.1 18789.8 804.5 18774.9 810.3 18760.1 816.5 18745.5 823 18731.1 829.8 18716.8 837 18702.7 844.5 18688.8 852.4 18675.1 860.6 18661.6 869.1 18648.3 877.9 18635.2 887.1 18622.3 896.6 18609.7 906.3 18597.3 916.4 18585.1 926.8 18573.2 937.4 18561.6 948.3 18550.2 959.5 M 18589.7 1868.3 18589.9 1879.3 18590.5 1890.4 18591.4 1901.3 18592.8 1912.3 18594.5 1923.2 18596.6 1934 18599.1 1944.8 18601.9 1955.4 18605.2 1966 18608.8 1976.4 18612.7 1986.7 18617 1996.9 18621.7 2006.9 18626.7 2016.7 18632 2026.4 18637.7 2035.8 18643.7 2045.1 18650.1 2054.1 18656.7 2062.9 18663.7 2071.5 18670.9 2079.8 18678.4 2087.9 18686.2 2095.7 18694.3 2103.2 18702.6 2110.4 18711.2 2117.4 18720 2124 18729 2130.4 18738.3 2136.4 18747.8 2142.1 18757.4 2147.4 18767.2 2152.4 18777.2 2157.1 18787.4 2161.4 18797.7 2165.3 18808.1 2168.9 18818.7 2172.2 18829.3 2175 18840.1 2177.5 18850.9 2179.6 18861.8 2181.3 18872.8 2182.7 18883.8 2183.6 18894.8 2184.2 18905.8 2184.4 18921.1 2184.2 18936.3 2183.6 18951.5 2182.6 18966.7 2181.3 18981.9 2179.5 18997 2177.3 19012 2174.8 19027 2171.9 19041.9 2168.6 19056.7 2164.9 19071.4 2160.8 19086 2156.3 19100.5 2151.5 19114.8 2146.3 19129 2140.8 19143.1 2134.8 19157 2128.6 19170.7 2121.9 19184.2 2114.9 19197.6 2107.6 19210.8 2099.9 19223.8 2091.9 19236.5 2083.5 19249.1 2074.9 19261.4 2065.9 M 18747.7 1591.7 18738.3 1597.6 18729 1603.7 18719.9 1610.1 18711.1 1616.9 18702.5 1623.9 18694.2 1631.3 18686.1 1638.9 18678.3 1646.8 18670.8 1655 18663.6 1663.4 18656.6 1672.1 18650 1681 18643.7 1690.1 18637.7 1699.5 18632 1709 18626.6 1718.8 18621.6 1728.7 18617 1738.8 18612.7 1749 18608.7 1759.4 18605.1 1769.9 18601.9 1780.6 18599.1 1791.3 18596.6 1802.1 18594.5 1813 18592.8 1824 18591.4 1835 18590.5 1846.1 18589.9 1857.2 18589.7 1868.3 M 19182.4 1354.7 19191.8 1348.9 19201.1 1342.7 19210.2 1336.3 19219 1329.5 19227.6 1322.5 19235.9 1315.1 19244 1307.5 19251.8 1299.6 19259.3 1291.4 19266.5 1283 19273.5 1274.3 19280.1 1265.4 19286.4 1256.3 19292.4 1246.9 19298.1 1237.4 19303.4 1227.6 19308.5 1217.7 19313.1 1207.6 19317.4 1197.4 19321.4 1187 19325 1176.5 19328.2 1165.8 19331 1155.1 19333.5 1144.3 19335.6 1133.4 19337.3 1122.4 19338.7 1111.4 19339.6 1100.3 19340.2 1089.2 19340.4 1078.1 M 19182.4 1354.7 18747.8 1591.7" fill="none" stroke-width="254"/><use xlink:href="#q9wrHmIXSCnDoDeQtFMp_pad-12" x="5870" y="38100"/><use xlink:href="#q9wrHmIXSCnDoDeQtFMp_pad-12" x="5870" y="35560"/><use xlink:href="#q9wrHmIXSCnDoDeQtFMp_pad-12" x="5870" y="33020"/><use xlink:href="#q9wrHmIXSCnDoDeQtFMp_pad-12" x="5870" y="30480"/><use xlink:href="#q9wrHmIXSCnDoDeQtFMp_pad-12" x="14130" y="30480"/><use xlink:href="#q9wrHmIXSCnDoDeQtFMp_pad-12" x="14130" y="33020"/><use xlink:href="#q9wrHmIXSCnDoDeQtFMp_pad-12" x="14130" y="35560"/><use xlink:href="#q9wrHmIXSCnDoDeQtFMp_pad-12" x="14130" y="38100"/><use xlink:href="#q9wrHmIXSCnDoDeQtFMp_pad-13" x="16434" y="35560"/><use xlink:href="#q9wrHmIXSCnDoDeQtFMp_pad-13" x="18334" y="35560"/><use xlink:href="#q9wrHmIXSCnDoDeQtFMp_pad-13" x="11110" y="7620"/><use xlink:href="#q9wrHmIXSCnDoDeQtFMp_pad-13" x="9210" y="7620"/><use xlink:href="#q9wrHmIXSCnDoDeQtFMp_pad-14" x="13094.6" y="25400"/><use xlink:href="#q9wrHmIXSCnDoDeQtFMp_pad-14" x="14845.4" y="25400"/><use xlink:href="#q9wrHmIXSCnDoDeQtFMp_pad-15" x="17308.7" y="30339.1"/><use xlink:href="#q9wrHmIXSCnDoDeQtFMp_pad-15" x="17308.7" y="28588.3"/><use xlink:href="#q9wrHmIXSCnDoDeQtFMp_pad-16" x="6700.3" y="7558.6"/><use xlink:href="#q9wrHmIXSCnDoDeQtFMp_pad-16" x="3459.7" y="7558.6"/><use xlink:href="#q9wrHmIXSCnDoDeQtFMp_pad-16" x="16644" y="7620"/><use xlink:href="#q9wrHmIXSCnDoDeQtFMp_pad-16" x="13403.4" y="7620"/><path d="M 6080.4 10160 3759.6 10160 M 8839.6 22860 11160.4 22860 M 13919.6 10160 16240.4 10160" fill="none" stroke-width="2320.8"/><path d="M 12796.4 3548 12796.4 1532 M 10256.4 1532 10256.4 3548 M 7716.4 3548 7716.4 1532" fill="none" stroke-width="2016"/><use xlink:href="#q9wrHmIXSCnDoDeQtFMp_pad-19" x="6350" y="56350"/><use xlink:href="#q9wrHmIXSCnDoDeQtFMp_pad-20" x="9080" y="56000"/><use xlink:href="#q9wrHmIXSCnDoDeQtFMp_pad-20" x="11240" y="56000"/><use xlink:href="#q9wrHmIXSCnDoDeQtFMp_pad-19" x="13970" y="56350"/><path d="M 10960 35460 10960 32920 8520 30480 5870 30480" fill="none" stroke-width="1016"/><path d="M 5080 17780 5080 15240 M 10256.4 4344.5 10256.4 2540 M 10256.4 4344.5 9591.7 5009.2" fill="none" stroke-width="406.4"/><use xlink:href="#q9wrHmIXSCnDoDeQtFMp_pad-23" x="5080" y="17780"/><path d="M 18334 35560 18334 37546 17780 38100 14130 38100 M 13600 38100 10960 35460 M 13600 38100 14130 38100" fill="none" stroke-width="1016"/><use xlink:href="#q9wrHmIXSCnDoDeQtFMp_pad-23" x="7620" y="41910"/><path d="M 7764 27940 5870 27940 5870 30480 M 7620 41910 7620 43180 6350 44450 5080 45720" fill="none" stroke-width="1016"/><use xlink:href="#q9wrHmIXSCnDoDeQtFMp_pad-24" x="2576.2" y="45720"/><path d="M 6350 44450 6350 56350 M 5080 45720 2576.2 45720" fill="none" stroke-width="1016"/><path d="M 5080 15240 1791.2 11951.2 M 2535.8 5009.2 9591.7 5009.2 M 2535.8 5009.2 1791.2 5753.8 1791.2 11951.2" fill="none" stroke-width="406.4"/><use xlink:href="#q9wrHmIXSCnDoDeQtFMp_pad-23" x="5224" y="26670"/><use xlink:href="#q9wrHmIXSCnDoDeQtFMp_pad-23" x="7764" y="27940"/><path d="M 7764 27940 5224 27940 5224 26670" fill="none" stroke-width="1016"/><use xlink:href="#q9wrHmIXSCnDoDeQtFMp_pad-24" x="17486" y="45792.4"/><path d="M 17486 45792.4 14946 43252.4 13437.5 43252.4 8285.1 38100 5870 38100" fill="none" stroke-width="400"/><path d="M 5870 38100 730 38100 M 17308.7 28588.3 17308.7 26175.1" fill="none" stroke-width="1016"/><path d="M 17308.7 26175.1 16533.6 25400" fill="none" stroke-width="400"/><path d="M 16533.6 25400 14845.4 25400" fill="none" stroke-width="1016"/><path d="M 12847.9 19730 730 19730 M 12847.9 19730 14845.4 21727.6 14845.4 25400" fill="none" stroke-width="400"/><path d="M 7716.4 2540 2469.6 2540 730 4279.6 730 19730 730 38100 M 14130 30480 15897.8 30480 M 16038.7 30339.1 17308.7 30339.1 M 16038.7 30339.1 15897.8 30480 M 13000 25000 11000 23000 10000 23000 M 13000 25000 13094.6 25400 M 5870 35560 4290 35560" fill="none" stroke-width="1016"/><path d="M 10000 23000 10000 22860" fill="none" stroke-width="400"/><path d="M 13970 33020 14130 33020 M 13970 33020 10000 29050 10000 23000 M 3100 34636 4290 35560 M 4996.4 23000 10000 23000 M 4996.4 23000 3100 24630.4 3100 34636 M 11110 7620 13403.4 7620 M 14130 35560 16434 35560 M 11110 13121.5 11110 7620 M 19434 30927.7 16434 33927.7 M 19434 30927.7 19434 21445.5 11110 13121.5 M 16434 33927.7 16434 35560" fill="none" stroke-width="1016"/><path d="M 6761.7 7620 6700.3 7558.6" fill="none" stroke-width="400"/><path d="M 6761.7 7620 9210 7620 M 16644 7620 16644 8596.1 15080 10160 M 3459.7 8699.7 3459.7 7558.6 M 3459.7 8699.7 4920 10160 M 13490 40640 16510 40640 M 13490 40640 5870 33020" fill="none" stroke-width="1016"/><use xlink:href="#q9wrHmIXSCnDoDeQtFMp_pad-23" x="16510" y="40640"/><use xlink:href="#q9wrHmIXSCnDoDeQtFMp_pad-23" x="16460" y="15240"/><path d="M 16460 15240 16510 15240" fill="none" stroke-width="406.4"/><path d="M 16510 15240 19050 12700 M 12870.6 2614.2 12796.4 2540 M 12870.6 2614.2 16216.2 2614.2 M 19050 5448 19050 12700 M 19050 5448 16216.2 2614.2" fill="none" stroke-width="1016"/><path d="M 0 0 20320 0 20320 50000 16163.9 50000 16163.9 63389 4162.3 63389 4162.3 50000 0 50000 0 0" fill="none" stroke-width="254"/></g></svg>