<svg version="1.1" xmlns="http://www.w3.org/2000/svg" xmlns:xlink="http://www.w3.org/1999/xlink" stroke-linecap="round" stroke-linejoin="round" stroke-width="0" fill-rule="evenodd" width="20.574mm" height="63.643mm" viewBox="-127 -127 20574 63643" id="GoD3WDFuqUYasQ47igIr"><g transform="translate(0,63389) scale(1,-1)" fill="currentColor" stroke="currentColor"><path d="M 3619.5 17420.2 3619.3 17433.9 3618.7 17447.6 3617.7 17461.3 3616.4 17474.9 3614.6 17488.5 3612.5 17502 3609.9 17515.5 3607 17528.9 3603.7 17542.2 3600.1 17555.4 3596 17568.5 3591.6 17581.4 3586.8 17594.3 3581.7 17607 3576.1 17619.5 3570.3 17631.9 3564.1 17644.1 3557.5 17656.1 3550.6 17668 3543.3 17679.6 3535.8 17691 3527.9 17702.2 3519.7 17713.2 3511.1 17723.9 3502.3 17734.4 3493.2 17744.6 3483.8 17754.6 3474.1 17764.3 3464.1 17773.7 3453.9 17782.8 3443.4 17791.6 3432.7 17800.2 3421.7 17808.4 3410.5 17816.3 3399.1 17823.8 3387.5 17831.1 3375.6 17838 3363.6 17844.6 3351.4 17850.8 3339 17856.6 3326.5 17862.2 3313.8 17867.3 3300.9 17872.1 3288 17876.5 3274.9 17880.6 3261.7 17884.2 3248.4 17887.5 3235 17890.4 3221.5 17893 3208 17895.1 3194.4 17896.9 3180.8 17898.2 3167.1 17899.2 3153.4 17899.8 3139.7 17900 M 3619.5 17420.2 3619.2 17396 3618.3 17371.7 3616.9 17347.5 3614.9 17323.3 3612.3 17299.2 3609.1 17275.2 3605.3 17251.2 3601 17227.4 3596.1 17203.6 3590.6 17180 3584.6 17156.5 3578 17133.2 3570.9 17110 3563.2 17087 3554.9 17064.2 3546.1 17041.6 3536.8 17019.2 3527 16997.1 3516.6 16975.2 3505.7 16953.5 3494.2 16932.1 3482.3 16911 3469.9 16890.2 3456.9 16869.7 3443.5 16849.5 3429.6 16829.6 3415.3 16810.1 3400.4 16790.9 3385.2 16772 3369.4 16753.6 3353.3 16735.5 3336.7 16717.8 3319.7 16700.6 M 1940.3 16760.5 1926.6 16760.7 1912.9 16761.3 1899.2 16762.3 1885.6 16763.6 1872 16765.4 1858.5 16767.5 1845 16770.1 1831.6 16773 1818.3 16776.3 1805.1 16779.9 1792 16784 1779.1 16788.4 1766.2 16793.2 1753.5 16798.3 1741 16803.9 1728.6 16809.7 1716.4 16815.9 1704.4 16822.5 1692.5 16829.4 1680.9 16836.7 1669.5 16844.2 1658.3 16852.1 1647.3 16860.3 1636.6 16868.9 1626.1 16877.7 1615.9 16886.8 1605.9 16896.2 1596.2 16905.9 1586.8 16915.9 1577.7 16926.1 1568.9 16936.6 1560.3 16947.3 1552.1 16958.3 1544.2 16969.5 1536.7 16980.9 1529.4 16992.5 1522.5 17004.4 1515.9 17016.4 1509.7 17028.6 1503.9 17041 1498.3 17053.5 1493.2 17066.2 1488.4 17079.1 1484 17092 1479.9 17105.1 1476.3 17118.3 1473 17131.6 1470.1 17145 1467.5 17158.5 1465.4 17172 1463.6 17185.6 1462.3 17199.2 1461.3 17212.9 1460.7 17226.6 1460.5 17240.3 1460.8 17261.7 1461.5 17283.2 1462.8 17304.6 1464.6 17325.9 1466.9 17347.3 1469.7 17368.5 1473 17389.7 1476.8 17410.8 1481.1 17431.8 1485.9 17452.7 1491.2 17473.5 1497 17494.1 1503.3 17514.6 1510.1 17534.9 1517.4 17555.1 1525.1 17575.1 1533.3 17594.9 1542 17614.5 1551.2 17633.9 1560.8 17653.1 1570.8 17672 1581.4 17690.7 1592.3 17709.1 1603.7 17727.3 1615.5 17745.2 1627.8 17762.8 1640.4 17780.1 M 2360.1 17000.4 2353 16988.7 2345.6 16977.2 2337.8 16966 2329.8 16954.9 2321.4 16944.1 2312.7 16933.5 2303.8 16923.2 2294.5 16913.1 2285 16903.3 2275.2 16893.8 2265.1 16884.5 2254.8 16875.6 2244.2 16866.9 2233.4 16858.5 2222.4 16850.5 2211.1 16842.7 2199.7 16835.3 2188 16828.1 2176.1 16821.4 2164 16814.9 2151.8 16808.8 2139.4 16803 2126.9 16797.6 2114.2 16792.6 2101.3 16787.9 2088.3 16783.5 2075.3 16779.6 2062.1 16776 2048.8 16772.7 2035.4 16769.9 2022 16767.4 2008.4 16765.3 1994.9 16763.6 1981.3 16762.2 1967.6 16761.3 1954 16760.7 1940.3 16760.5 M 2719.9 17660.1 2727 17671.8 2734.4 17683.3 2742.2 17694.5 2750.2 17705.6 2758.6 17716.4 2767.3 17727 2776.2 17737.3 2785.5 17747.3 2795 17757.2 2804.8 17766.7 2814.9 17775.9 2825.2 17784.9 2835.8 17793.6 2846.6 17802 2857.6 17810 2868.9 17817.8 2880.3 17825.2 2892 17832.4 2903.9 17839.1 2915.9 17845.6 2928.2 17851.7 2940.6 17857.5 2953.1 17862.9 2965.8 17867.9 2978.7 17872.6 2991.7 17877 3004.7 17880.9 3017.9 17884.5 3031.2 17887.8 3044.6 17890.6 3058 17893.1 3071.6 17895.2 3085.1 17896.9 3098.7 17898.3 3112.4 17899.2 3126 17899.8 3139.7 17900 M 2719.9 17660.1 2360.1 17000.4 M 3619.5 19059.4 3619.5 19659.1 M 3619.5 19059.4 3619.3 19047.6 3618.7 19035.9 3617.8 19024.1 3616.4 19012.4 3614.7 19000.8 3612.6 18989.2 3610.1 18977.7 3607.2 18966.3 3604 18955 3600.4 18943.7 3596.4 18932.7 3592.1 18921.7 3587.4 18910.9 3582.4 18900.3 3577 18889.8 3571.3 18879.5 3565.2 18869.4 3558.9 18859.5 3552.2 18849.8 3545.1 18840.4 3537.8 18831.1 3530.2 18822.2 3522.3 18813.4 3514.1 18805 3505.7 18796.8 3496.9 18788.9 3488 18781.3 3478.7 18774 3469.3 18766.9 3459.6 18760.2 3449.7 18753.9 3439.6 18747.8 3429.3 18742.1 3418.8 18736.7 3408.2 18731.7 3397.4 18727 3386.4 18722.7 3375.4 18718.7 3364.1 18715.1 3352.8 18711.9 3341.4 18709 3329.9 18706.5 3318.3 18704.4 3306.7 18702.7 3295 18701.3 3283.2 18700.4 3271.5 18699.8 3259.7 18699.6 M 3259.7 18699.5 2659.9 18699.5 2646.1 18699.7 2632.3 18700.3 2618.5 18701.3 2604.7 18702.7 2591 18704.5 2577.3 18706.7 2563.8 18709.2 2550.2 18712.2 2536.8 18715.6 2523.5 18719.3 2510.3 18723.4 2497.2 18727.9 2484.3 18732.8 2471.5 18738 2458.9 18743.6 2446.4 18749.6 2434.1 18756 2422 18762.6 2410.1 18769.7 2398.4 18777 2386.9 18784.7 2375.6 18792.8 2364.6 18801.1 2353.9 18809.8 2343.3 18818.8 2333.1 18828 2323.1 18837.6 2313.4 18847.4 2304 18857.6 2294.8 18868 2286 18878.6 2277.5 18889.5 2269.3 18900.6 2261.4 18912 2253.9 18923.6 2246.7 18935.4 2239.8 18947.4 2233.3 18959.6 2227.2 18972 2221.4 18984.6 2216 18997.3 2210.9 19010.2 2206.2 19023.2 2201.9 19036.3 2198 19049.6 2194.4 19062.9 2191.3 19076.4 2188.5 19089.9 2186.1 19103.6 2184.1 19117.2 2182.5 19131 2181.3 19144.8 2180.5 19158.6 2180.1 19172.4 2180.1 19186.2 2180.5 19200 2181.3 19213.8 2182.5 19227.6 2184.1 19241.4 2186.1 19255 2188.5 19268.7 2191.3 19282.2 2194.4 19295.7 2198 19309 2201.9 19322.3 2206.2 19335.4 2210.9 19348.4 2216 19361.3 2221.4 19374 2227.2 19386.6 2233.3 19399 2239.8 19411.2 2246.7 19423.2 2253.9 19435 2261.4 19446.6 2269.3 19458 2277.5 19469.1 2286 19480 2294.8 19490.6 2304 19501 2313.4 19511.2 2323.1 19521 2333.1 19530.6 2343.3 19539.8 2353.9 19548.8 2364.6 19557.5 2375.6 19565.8 2386.9 19573.9 2398.4 19581.6 2410.1 19588.9 2422 19596 2434.1 19602.6 2446.4 19609 2458.9 19615 2471.5 19620.6 2484.3 19625.8 2497.2 19630.7 2510.3 19635.2 2523.5 19639.3 2536.8 19643 2550.2 19646.4 2563.8 19649.4 2577.3 19651.9 2591 19654.1 2604.7 19655.9 2618.5 19657.3 2632.3 19658.3 2646.1 19658.9 2659.9 19659.1 2899.8 19659.1 2899.8 18699.5 M 3619.5 20591.7 2180.2 20591.7 2180.2 21311.4 2420.1 21311.4 M 2180.2 21900.9 3619.5 22380.7 2180.2 22860.5 M 2659.9 23640.8 3139.7 23640.8 M 2659.9 23640.8 2646.1 23641 2632.3 23641.6 2618.5 23642.6 2604.7 23644 2591 23645.8 2577.3 23648 2563.8 23650.5 2550.2 23653.5 2536.8 23656.9 2523.5 23660.6 2510.3 23664.7 2497.2 23669.2 2484.3 23674.1 2471.5 23679.3 2458.9 23684.9 2446.4 23690.9 2434.1 23697.3 2422 23703.9 2410.1 23711 2398.4 23718.3 2386.9 23726 2375.6 23734.1 2364.6 23742.4 2353.9 23751.1 2343.3 23760.1 2333.1 23769.3 2323.1 23778.9 2313.4 23788.7 2304 23798.9 2294.8 23809.3 2286 23819.9 2277.5 23830.8 2269.3 23841.9 2261.4 23853.3 2253.9 23864.9 2246.7 23876.7 2239.8 23888.7 2233.3 23900.9 2227.2 23913.3 2221.4 23925.9 2216 23938.6 2210.9 23951.5 2206.2 23964.5 2201.9 23977.6 2198 23990.9 2194.4 24004.2 2191.3 24017.7 2188.5 24031.2 2186.1 24044.9 2184.1 24058.5 2182.5 24072.3 2181.3 24086.1 2180.5 24099.9 2180.1 24113.7 2180.1 24127.5 2180.5 24141.3 2181.3 24155.1 2182.5 24168.9 2184.1 24182.7 2186.1 24196.3 2188.5 24210 2191.3 24223.5 2194.4 24237 2198 24250.3 2201.9 24263.6 2206.2 24276.7 2210.9 24289.7 2216 24302.6 2221.4 24315.3 2227.2 24327.9 2233.3 24340.3 2239.8 24352.5 2246.7 24364.5 2253.9 24376.3 2261.4 24387.9 2269.3 24399.3 2277.5 24410.4 2286 24421.3 2294.8 24431.9 2304 24442.3 2313.4 24452.5 2323.1 24462.3 2333.1 24471.9 2343.3 24481.1 2353.9 24490.1 2364.6 24498.8 2375.6 24507.1 2386.9 24515.2 2398.4 24522.9 2410.1 24530.2 2422 24537.3 2434.1 24543.9 2446.4 24550.3 2458.9 24556.3 2471.5 24561.9 2484.3 24567.1 2497.2 24572 2510.3 24576.5 2523.5 24580.6 2536.8 24584.3 2550.2 24587.7 2563.8 24590.7 2577.3 24593.2 2591 24595.4 2604.7 24597.2 2618.5 24598.6 2632.3 24599.6 2646.1 24600.2 2659.9 24600.4 3139.7 24600.4 3153.5 24600.2 3167.3 24599.6 3181.1 24598.6 3194.9 24597.2 3208.6 24595.4 3222.3 24593.2 3235.8 24590.7 3249.4 24587.7 3262.8 24584.3 3276.1 24580.6 3289.3 24576.5 3302.4 24572 3315.3 24567.1 3328.1 24561.9 3340.7 24556.3 3353.2 24550.3 3365.5 24543.9 3377.6 24537.3 3389.5 24530.2 3401.2 24522.9 3412.7 24515.2 3424 24507.1 3435 24498.8 3445.7 24490.1 3456.3 24481.1 3466.5 24471.9 3476.5 24462.3 3486.2 24452.5 3495.6 24442.3 3504.8 24431.9 3513.6 24421.3 3522.1 24410.4 3530.3 24399.3 3538.2 24387.9 3545.7 24376.3 3552.9 24364.5 3559.8 24352.5 3566.3 24340.3 3572.4 24327.9 3578.2 24315.3 3583.6 24302.6 3588.7 24289.7 3593.4 24276.7 3597.7 24263.6 3601.6 24250.3 3605.2 24237 3608.3 24223.5 3611.1 24210 3613.5 24196.3 3615.5 24182.7 3617.1 24168.9 3618.3 24155.1 3619.1 24141.3 3619.5 24127.5 3619.5 24113.7 3619.1 24099.9 3618.3 24086.1 3617.1 24072.3 3615.5 24058.5 3613.5 24044.9 3611.1 24031.2 3608.3 24017.7 3605.2 24004.2 3601.6 23990.9 3597.7 23977.6 3593.4 23964.5 3588.7 23951.5 3583.6 23938.6 3578.2 23925.9 3572.4 23913.3 3566.3 23900.9 3559.8 23888.7 3552.9 23876.7 3545.7 23864.9 3538.2 23853.3 3530.3 23841.9 3522.1 23830.8 3513.6 23819.9 3504.8 23809.3 3495.6 23798.9 3486.2 23788.7 3476.5 23778.9 3466.5 23769.3 3456.3 23760.1 3445.7 23751.1 3435 23742.4 3424 23734.1 3412.7 23726 3401.2 23718.3 3389.5 23711 3377.6 23703.9 3365.5 23697.3 3353.2 23690.9 3340.7 23684.9 3328.1 23679.3 3315.3 23674.1 3302.4 23669.2 3289.3 23664.7 3276.1 23660.6 3262.8 23656.9 3249.4 23653.5 3235.8 23650.5 3222.3 23648 3208.6 23645.8 3194.9 23644 3181.1 23642.6 3167.3 23641.6 3153.5 23641 3139.7 23640.8 M 2779.9 25488.8 2779.9 26928.2 M 3619.5 28296.4 1460.5 28296.4 M 1460.5 28896.1 1460.5 27696.6 M 3619.5 29985.9 3619.5 30585.6 M 3619.5 29985.9 3619.3 29974.1 3618.7 29962.4 3617.8 29950.6 3616.4 29938.9 3614.7 29927.3 3612.6 29915.7 3610.1 29904.2 3607.2 29892.8 3604 29881.5 3600.4 29870.2 3596.4 29859.2 3592.1 29848.2 3587.4 29837.4 3582.4 29826.8 3577 29816.3 3571.3 29806 3565.2 29795.9 3558.9 29786 3552.2 29776.3 3545.1 29766.9 3537.8 29757.6 3530.2 29748.7 3522.3 29739.9 3514.1 29731.5 3505.7 29723.3 3496.9 29715.4 3488 29707.8 3478.7 29700.5 3469.3 29693.4 3459.6 29686.7 3449.7 29680.4 3439.6 29674.3 3429.3 29668.6 3418.8 29663.2 3408.2 29658.2 3397.4 29653.5 3386.4 29649.2 3375.4 29645.2 3364.1 29641.6 3352.8 29638.4 3341.4 29635.5 3329.9 29633 3318.3 29630.9 3306.7 29629.2 3295 29627.8 3283.2 29626.9 3271.5 29626.3 3259.7 29626.1 2659.9 29626.1 2646.1 29626.3 2632.3 29626.9 2618.5 29627.9 2604.7 29629.3 2591 29631.1 2577.3 29633.3 2563.8 29635.8 2550.2 29638.8 2536.8 29642.2 2523.5 29645.9 2510.3 29650 2497.2 29654.5 2484.3 29659.4 2471.5 29664.6 2458.9 29670.2 2446.4 29676.2 2434.1 29682.6 2422 29689.2 2410.1 29696.3 2398.4 29703.6 2386.9 29711.3 2375.6 29719.4 2364.6 29727.7 2353.9 29736.4 2343.3 29745.4 2333.1 29754.6 2323.1 29764.2 2313.4 29774 2304 29784.2 2294.8 29794.6 2286 29805.2 2277.5 29816.1 2269.3 29827.2 2261.4 29838.6 2253.9 29850.2 2246.7 29862 2239.8 29874 2233.3 29886.2 2227.2 29898.6 2221.4 29911.2 2216 29923.9 2210.9 29936.8 2206.2 29949.8 2201.9 29962.9 2198 29976.2 2194.4 29989.5 2191.3 30003 2188.5 30016.5 2186.1 30030.2 2184.1 30043.8 2182.5 30057.6 2181.3 30071.4 2180.5 30085.2 2180.1 30099 2180.1 30112.8 2180.5 30126.6 2181.3 30140.4 2182.5 30154.2 2184.1 30168 2186.1 30181.6 2188.5 30195.3 2191.3 30208.8 2194.4 30222.3 2198 30235.6 2201.9 30248.9 2206.2 30262 2210.9 30275 2216 30287.9 2221.4 30300.6 2227.2 30313.2 2233.3 30325.6 2239.8 30337.8 2246.7 30349.8 2253.9 30361.6 2261.4 30373.2 2269.3 30384.6 2277.5 30395.7 2286 30406.6 2294.8 30417.2 2304 30427.6 2313.4 30437.8 2323.1 30447.6 2333.1 30457.2 2343.3 30466.4 2353.9 30475.4 2364.6 30484.1 2375.6 30492.4 2386.9 30500.5 2398.4 30508.2 2410.1 30515.5 2422 30522.6 2434.1 30529.2 2446.4 30535.6 2458.9 30541.6 2471.5 30547.2 2484.3 30552.4 2497.2 30557.3 2510.3 30561.8 2523.5 30565.9 2536.8 30569.6 2550.2 30573 2563.8 30576 2577.3 30578.5 2591 30580.7 2604.7 30582.5 2618.5 30583.9 2632.3 30584.9 2646.1 30585.5 2659.9 30585.7 M 2659.9 30585.6 2899.8 30585.6 2899.8 29626.1 M 2779.9 31615.5 3019.8 32215.2 M 2779.9 31615.5 2775.6 31605.3 2770.9 31595.3 2765.9 31585.4 2760.6 31575.7 2754.9 31566.2 2748.8 31556.9 2742.5 31547.9 2735.8 31539.1 2728.8 31530.5 2721.5 31522.1 2714 31514.1 2706.1 31506.3 2698 31498.8 2689.6 31491.6 2680.9 31484.7 2672.1 31478.1 2662.9 31471.8 2653.6 31465.8 2644.1 31460.2 2634.3 31455 2624.4 31450 2614.4 31445.5 2604.1 31441.3 2593.7 31437.4 2583.2 31434 2572.6 31430.9 2561.9 31428.2 2551.1 31425.8 2540.2 31423.9 2529.2 31422.3 2518.2 31421.2 2507.2 31420.4 2496.1 31420 2485 31420.1 2474 31420.5 2462.9 31421.3 2451.9 31422.5 2441 31424.1 2430.1 31426 2419.3 31428.4 2408.6 31431.1 2398 31434.3 2387.5 31437.8 2377.1 31441.6 2366.9 31445.9 2356.8 31450.5 2346.9 31455.4 2337.2 31460.7 2327.7 31466.4 2318.4 31472.4 2309.3 31478.7 2300.4 31485.3 2291.8 31492.2 2283.4 31499.5 2275.3 31507 2267.5 31514.8 2260 31522.9 2252.7 31531.3 2245.8 31539.9 2239.1 31548.7 2232.8 31557.8 2226.8 31567.1 2221.1 31576.6 2215.8 31586.3 2210.8 31596.2 2206.2 31606.3 2202 31616.5 2198.1 31626.8 2194.5 31637.3 2191.4 31647.9 2188.6 31658.6 2186.3 31669.5 2184.3 31680.3 2182.6 31691.3 2181.4 31702.3 2180.6 31713.3 2180.2 31724.4 2180.1 31735.4 M 2180.1 31735.5 2181 31768.2 2182.6 31800.9 2185.1 31833.6 2188.3 31866.2 2192.3 31898.7 2197.1 31931.1 2202.6 31963.3 2209 31995.5 2216.1 32027.4 2224 32059.2 2232.6 32090.8 2242 32122.2 2252.1 32153.3 2263 32184.2 2274.6 32214.9 2287 32245.2 2300.1 32275.2 M 3019.7 32215.2 3024 32225.4 3028.7 32235.4 3033.7 32245.3 3039 32255 3044.7 32264.5 3050.8 32273.8 3057.1 32282.8 3063.8 32291.6 3070.8 32300.2 3078.1 32308.6 3085.6 32316.6 3093.5 32324.4 3101.6 32331.9 3110 32339.1 3118.7 32346 3127.5 32352.6 3136.7 32358.9 3146 32364.9 3155.5 32370.5 3165.3 32375.7 3175.2 32380.7 3185.2 32385.2 3195.5 32389.4 3205.9 32393.3 3216.4 32396.7 3227 32399.8 3237.7 32402.5 3248.5 32404.9 3259.4 32406.8 3270.4 32408.4 3281.4 32409.5 3292.4 32410.3 3303.5 32410.7 3314.6 32410.6 3325.6 32410.2 3336.7 32409.4 3347.7 32408.2 3358.6 32406.6 3369.5 32404.7 3380.3 32402.3 3391 32399.6 3401.6 32396.4 3412.1 32392.9 3422.5 32389.1 3432.7 32384.8 3442.8 32380.2 3452.7 32375.3 3462.4 32370 3471.9 32364.3 3481.2 32358.3 3490.3 32352 3499.2 32345.4 3507.8 32338.5 3516.2 32331.2 3524.3 32323.7 3532.1 32315.9 3539.6 32307.8 3546.9 32299.4 3553.9 32290.8 3560.5 32282 3566.8 32272.9 3572.8 32263.6 3578.5 32254.1 3583.8 32244.4 3588.8 32234.5 3593.4 32224.4 3597.6 32214.2 3601.5 32203.9 3605.1 32193.4 3608.2 32182.8 3611 32172 3613.3 32161.2 3615.3 32150.4 3617 32139.4 3618.2 32128.4 3619 32117.4 3619.4 32106.3 3619.5 32095.3 M 3619.5 32095.2 3618.2 32047.1 3615.8 31999.1 3612.3 31951.1 3607.7 31903.2 3601.9 31855.5 3594.9 31807.8 3586.9 31760.4 3577.7 31713.2 3567.4 31666.2 3556.1 31619.4 3543.6 31573 3530 31526.8 3515.3 31481 3499.5 31435.5 M 2180.2 33069.4 2180.2 33789 M 1460.5 33309.3 3259.7 33309.3 3271.5 33309.5 3283.2 33310.1 3295 33311 3306.7 33312.4 3318.3 33314.1 3329.9 33316.2 3341.4 33318.7 3352.8 33321.6 3364.1 33324.8 3375.4 33328.4 3386.4 33332.4 3397.4 33336.7 3408.2 33341.4 3418.8 33346.4 3429.3 33351.8 3439.6 33357.5 3449.7 33363.6 3459.6 33369.9 3469.3 33376.6 3478.7 33383.7 3488 33391 3496.9 33398.6 3505.7 33406.5 3514.1 33414.7 3522.3 33423.1 3530.2 33431.9 3537.8 33440.8 3545.1 33450.1 3552.2 33459.5 3558.9 33469.2 3565.2 33479.1 3571.3 33489.2 3577 33499.5 3582.4 33510 3587.4 33520.6 3592.1 33531.4 3596.4 33542.4 3600.4 33553.4 3604 33564.7 3607.2 33576 3610.1 33587.4 3612.6 33598.9 3614.7 33610.5 3616.4 33622.1 3617.8 33633.8 3618.7 33645.6 3619.3 33657.3 3619.5 33669.1 3619.5 33789 M 3619.5 34927.2 3619.5 35526.9 M 3619.5 34927.2 3619.3 34915.4 3618.7 34903.7 3617.8 34891.9 3616.4 34880.2 3614.7 34868.6 3612.6 34857 3610.1 34845.5 3607.2 34834.1 3604 34822.8 3600.4 34811.5 3596.4 34800.5 3592.1 34789.5 3587.4 34778.7 3582.4 34768.1 3577 34757.6 3571.3 34747.3 3565.2 34737.2 3558.9 34727.3 3552.2 34717.6 3545.1 34708.2 3537.8 34698.9 3530.2 34690 3522.3 34681.2 3514.1 34672.8 3505.7 34664.6 3496.9 34656.7 3488 34649.1 3478.7 34641.8 3469.3 34634.7 3459.6 34628 3449.7 34621.7 3439.6 34615.6 3429.3 34609.9 3418.8 34604.5 3408.2 34599.5 3397.4 34594.8 3386.4 34590.5 3375.4 34586.5 3364.1 34582.9 3352.8 34579.7 3341.4 34576.8 3329.9 34574.3 3318.3 34572.2 3306.7 34570.5 3295 34569.1 3283.2 34568.2 3271.5 34567.6 3259.7 34567.4 2659.9 34567.4 2646.1 34567.6 2632.3 34568.2 2618.5 34569.2 2604.7 34570.6 2591 34572.4 2577.3 34574.6 2563.8 34577.1 2550.2 34580.1 2536.8 34583.5 2523.5 34587.2 2510.3 34591.3 2497.2 34595.8 2484.3 34600.7 2471.5 34605.9 2458.9 34611.5 2446.4 34617.5 2434.1 34623.9 2422 34630.5 2410.1 34637.6 2398.4 34644.9 2386.9 34652.6 2375.6 34660.7 2364.6 34669 2353.9 34677.7 2343.3 34686.7 2333.1 34695.9 2323.1 34705.5 2313.4 34715.3 2304 34725.5 2294.8 34735.9 2286 34746.5 2277.5 34757.4 2269.3 34768.5 2261.4 34779.9 2253.9 34791.5 2246.7 34803.3 2239.8 34815.3 2233.3 34827.5 2227.2 34839.9 2221.4 34852.5 2216 34865.2 2210.9 34878.1 2206.2 34891.1 2201.9 34904.2 2198 34917.5 2194.4 34930.8 2191.3 34944.3 2188.5 34957.8 2186.1 34971.5 2184.1 34985.1 2182.5 34998.9 2181.3 35012.7 2180.5 35026.5 2180.1 35040.3 2180.1 35054.1 2180.5 35067.9 2181.3 35081.7 2182.5 35095.5 2184.1 35109.3 2186.1 35122.9 2188.5 35136.6 2191.3 35150.1 2194.4 35163.6 2198 35176.9 2201.9 35190.2 2206.2 35203.3 2210.9 35216.3 2216 35229.2 2221.4 35241.9 2227.2 35254.5 2233.3 35266.9 2239.8 35279.1 2246.7 35291.1 2253.9 35302.9 2261.4 35314.5 2269.3 35325.9 2277.5 35337 2286 35347.9 2294.8 35358.5 2304 35368.9 2313.4 35379.1 2323.1 35388.9 2333.1 35398.5 2343.3 35407.7 2353.9 35416.7 2364.6 35425.4 2375.6 35433.7 2386.9 35441.8 2398.4 35449.5 2410.1 35456.8 2422 35463.9 2434.1 35470.5 2446.4 35476.9 2458.9 35482.9 2471.5 35488.5 2484.3 35493.7 2497.2 35498.6 2510.3 35503.1 2523.5 35507.2 2536.8 35510.9 2550.2 35514.3 2563.8 35517.3 2577.3 35519.8 2591 35522 2604.7 35523.8 2618.5 35525.2 2632.3 35526.2 2646.1 35526.8 2659.9 35527 M 2659.9 35526.9 2899.8 35526.9 2899.8 34567.4 M 3619.5 36459.6 2180.2 36459.6 2180.2 37179.3 2420.1 37179.3 M 13490 5750.3 13489.8 5736.6 13489.2 5722.9 13488.2 5709.2 13486.9 5695.6 13485.1 5682 13483 5668.5 13480.4 5655 13477.5 5641.6 13474.2 5628.3 13470.6 5615.1 13466.5 5602 13462.1 5589.1 13457.3 5576.2 13452.2 5563.5 13446.6 5551 13440.8 5538.6 13434.6 5526.4 13428 5514.4 13421.1 5502.5 13413.8 5490.9 13406.3 5479.5 13398.4 5468.3 13390.2 5457.3 13381.6 5446.6 13372.8 5436.1 13363.7 5425.9 13354.3 5415.9 13344.6 5406.2 13334.6 5396.8 13324.4 5387.7 13313.9 5378.9 13303.2 5370.3 13292.2 5362.1 13281 5354.2 13269.6 5346.7 13258 5339.4 13246.1 5332.5 13234.1 5325.9 13221.9 5319.7 13209.5 5313.9 13197 5308.3 13184.3 5303.2 13171.4 5298.4 13158.5 5294 13145.4 5289.9 13132.2 5286.3 13118.9 5283 13105.5 5280.1 13092 5277.5 13078.5 5275.4 13064.9 5273.6 13051.3 5272.3 13037.6 5271.3 13023.9 5270.7 13010.2 5270.5 12986 5270.8 12961.7 5271.7 12937.5 5273.1 12913.3 5275.1 12889.2 5277.7 12865.2 5280.9 12841.2 5284.7 12817.4 5289 12793.6 5293.9 12770 5299.4 12746.5 5305.4 12723.2 5312 12700 5319.1 12677 5326.8 12654.2 5335.1 12631.6 5343.9 12609.2 5353.2 12587.1 5363.1 12565.2 5373.4 12543.5 5384.3 12522.1 5395.8 12501 5407.7 12480.2 5420.1 12459.7 5433.1 12439.5 5446.5 12419.6 5460.4 12400.1 5474.7 12380.9 5489.6 12362 5504.8 12343.6 5520.6 12325.5 5536.7 12307.8 5553.3 12290.6 5570.3 M 12350.4 6949.7 12350.6 6963.4 12351.2 6977.1 12352.2 6990.8 12353.5 7004.4 12355.3 7018 12357.4 7031.5 12360 7045 12362.9 7058.4 12366.2 7071.7 12369.8 7084.9 12373.9 7098 12378.3 7110.9 12383.1 7123.8 12388.2 7136.5 12393.8 7149 12399.6 7161.4 12405.8 7173.6 12412.4 7185.6 12419.3 7197.5 12426.6 7209.1 12434.1 7220.5 12442 7231.7 12450.2 7242.7 12458.8 7253.4 12467.6 7263.9 12476.7 7274.1 12486.1 7284.1 12495.8 7293.8 12505.8 7303.2 12516 7312.3 12526.5 7321.1 12537.2 7329.7 12548.2 7337.9 12559.4 7345.8 12570.8 7353.3 12582.4 7360.6 12594.3 7367.5 12606.3 7374.1 12618.5 7380.3 12630.9 7386.1 12643.4 7391.7 12656.1 7396.8 12669 7401.6 12681.9 7406 12695 7410.1 12708.2 7413.7 12721.5 7417 12734.9 7419.9 12748.4 7422.5 12761.9 7424.6 12775.5 7426.4 12789.1 7427.7 12802.8 7428.7 12816.5 7429.3 12830.2 7429.5 12851.6 7429.2 12873.1 7428.5 12894.5 7427.2 12915.8 7425.4 12937.2 7423.1 12958.4 7420.3 12979.6 7417 13000.7 7413.2 13021.7 7408.9 13042.6 7404.1 13063.4 7398.8 13084 7393 13104.5 7386.7 13124.8 7379.9 13145 7372.6 13165 7364.9 13184.8 7356.7 13204.4 7348 13223.8 7338.8 13243 7329.2 13261.9 7319.2 13280.6 7308.6 13299 7297.7 13317.2 7286.3 13335.1 7274.5 13352.7 7262.2 13370 7249.6 M 12590.4 6529.9 12578.7 6537 12567.2 6544.4 12556 6552.2 12544.9 6560.2 12534.1 6568.6 12523.5 6577.3 12513.2 6586.2 12503.1 6595.5 12493.3 6605 12483.8 6614.8 12474.5 6624.9 12465.6 6635.2 12456.9 6645.8 12448.5 6656.6 12440.5 6667.6 12432.7 6678.9 12425.3 6690.3 12418.1 6702 12411.4 6713.9 12404.9 6726 12398.8 6738.2 12393 6750.6 12387.6 6763.1 12382.6 6775.8 12377.9 6788.7 12373.5 6801.7 12369.6 6814.7 12366 6827.9 12362.7 6841.2 12359.9 6854.6 12357.4 6868 12355.3 6881.6 12353.6 6895.1 12352.2 6908.7 12351.3 6922.4 12350.7 6936 12350.5 6949.7 M 13250.1 6170.1 13261.8 6163 13273.3 6155.6 13284.5 6147.8 13295.6 6139.8 13306.4 6131.4 13317 6122.7 13327.3 6113.8 13337.3 6104.5 13347.2 6095 13356.7 6085.2 13365.9 6075.1 13374.9 6064.8 13383.6 6054.2 13392 6043.4 13400 6032.4 13407.8 6021.1 13415.2 6009.7 13422.4 5998 13429.1 5986.1 13435.6 5974.1 13441.7 5961.8 13447.5 5949.4 13452.9 5936.9 13457.9 5924.2 13462.6 5911.3 13467 5898.3 13470.9 5885.3 13474.5 5872.1 13477.8 5858.8 13480.6 5845.4 13483.1 5832 13485.2 5818.4 13486.9 5804.9 13488.3 5791.3 13489.2 5777.6 13489.8 5764 13490 5750.3 M 13250.1 6170.1 12590.4 6529.9 M 11129.8 6110.1 9690.5 6110.1 M 10410.2 5390.4 10410.2 6829.8 M 8429.8 6110.1 6990.5 6110.1" fill="none" stroke-width="381"/><path d="M 0 0 20320 0 20320 50000 16163.9 50000 16163.9 63389 4162.3 63389 4162.3 50000 0 50000 0 0" fill="none" stroke-width="254"/></g></svg>