<svg version="1.1" xmlns="http://www.w3.org/2000/svg" xmlns:xlink="http://www.w3.org/1999/xlink" stroke-linecap="round" stroke-linejoin="round" stroke-width="0" fill-rule="evenodd" width="20.574mm" height="66.183mm" viewBox="-127 -127 20574 66183" id="YZJUsCzHjGp45b2sGIxu"><g transform="translate(0,65929) scale(1,-1)" fill="currentColor" stroke="currentColor"><path d="M 1940.3 20440 1926.6 20439.8 1912.9 20439.2 1899.2 20438.2 1885.6 20436.9 1872 20435.1 1858.5 20433 1845 20430.4 1831.6 20427.5 1818.3 20424.2 1805.1 20420.6 1792 20416.5 1779.1 20412.1 1766.2 20407.3 1753.5 20402.2 1741 20396.6 1728.6 20390.8 1716.4 20384.6 1704.4 20378 1692.5 20371.1 1680.9 20363.8 1669.5 20356.3 1658.3 20348.4 1647.3 20340.2 1636.6 20331.6 1626.1 20322.8 1615.9 20313.7 1605.9 20304.3 1596.2 20294.6 1586.8 20284.6 1577.7 20274.4 1568.9 20263.9 1560.3 20253.2 1552.1 20242.2 1544.2 20231 1536.7 20219.6 1529.4 20208 1522.5 20196.1 1515.9 20184.1 1509.7 20171.9 1503.9 20159.5 1498.3 20147 1493.2 20134.3 1488.4 20121.4 1484 20108.5 1479.9 20095.4 1476.3 20082.2 1473 20068.9 1470.1 20055.5 1467.5 20042 1465.4 20028.5 1463.6 20014.9 1462.3 20001.3 1461.3 19987.6 1460.7 19973.9 1460.5 19960.2 1460.8 19936 1461.7 19911.7 1463.1 19887.5 1465.1 19863.3 1467.7 19839.2 1470.9 19815.2 1474.7 19791.2 1479 19767.4 1483.9 19743.6 1489.4 19720 1495.4 19696.5 1502 19673.2 1509.1 19650 1516.8 19627 1525.1 19604.2 1533.9 19581.6 1543.2 19559.2 1553.1 19537.1 1563.4 19515.2 1574.3 19493.5 1585.8 19472.1 1597.7 19451 1610.1 19430.2 1623.1 19409.7 1636.5 19389.5 1650.4 19369.6 1664.7 19350.1 1679.6 19330.9 1694.8 19312 1710.6 19293.6 1726.7 19275.5 1743.3 19257.8 1760.3 19240.6 M 3139.7 19300.4 3153.4 19300.6 3167.1 19301.2 3180.8 19302.2 3194.4 19303.5 3208 19305.3 3221.5 19307.4 3235 19310 3248.4 19312.9 3261.7 19316.2 3274.9 19319.8 3288 19323.9 3300.9 19328.3 3313.8 19333.1 3326.5 19338.2 3339 19343.8 3351.4 19349.6 3363.6 19355.8 3375.6 19362.4 3387.5 19369.3 3399.1 19376.6 3410.5 19384.1 3421.7 19392 3432.7 19400.2 3443.4 19408.8 3453.9 19417.6 3464.1 19426.7 3474.1 19436.1 3483.8 19445.8 3493.2 19455.8 3502.3 19466 3511.1 19476.5 3519.7 19487.2 3527.9 19498.2 3535.8 19509.4 3543.3 19520.8 3550.6 19532.4 3557.5 19544.3 3564.1 19556.3 3570.3 19568.5 3576.1 19580.9 3581.7 19593.4 3586.8 19606.1 3591.6 19619 3596 19631.9 3600.1 19645 3603.7 19658.2 3607 19671.5 3609.9 19684.9 3612.5 19698.4 3614.6 19711.9 3616.4 19725.5 3617.7 19739.1 3618.7 19752.8 3619.3 19766.5 3619.5 19780.2 3619.2 19801.6 3618.5 19823.1 3617.2 19844.5 3615.4 19865.8 3613.1 19887.2 3610.3 19908.4 3607 19929.6 3603.2 19950.7 3598.9 19971.7 3594.1 19992.6 3588.8 20013.4 3583 20034 3576.7 20054.5 3569.9 20074.8 3562.6 20095 3554.9 20115 3546.7 20134.8 3538 20154.4 3528.8 20173.8 3519.2 20193 3509.2 20211.9 3498.6 20230.6 3487.7 20249 3476.3 20267.2 3464.5 20285.1 3452.2 20302.7 3439.6 20320 M 2719.9 19540.4 2727 19528.7 2734.4 19517.2 2742.2 19506 2750.2 19494.9 2758.6 19484.1 2767.3 19473.5 2776.2 19463.2 2785.5 19453.1 2795 19443.3 2804.8 19433.8 2814.9 19424.5 2825.2 19415.6 2835.8 19406.9 2846.6 19398.5 2857.6 19390.5 2868.9 19382.7 2880.3 19375.3 2892 19368.1 2903.9 19361.4 2916 19354.9 2928.2 19348.8 2940.6 19343 2953.1 19337.6 2965.8 19332.6 2978.7 19327.9 2991.7 19323.5 3004.7 19319.6 3017.9 19316 3031.2 19312.7 3044.6 19309.9 3058 19307.4 3071.6 19305.3 3085.1 19303.6 3098.7 19302.2 3112.4 19301.3 3126 19300.7 3139.7 19300.5 M 2360.1 20200.1 2353 20211.8 2345.6 20223.3 2337.8 20234.5 2329.8 20245.6 2321.4 20256.4 2312.7 20267 2303.8 20277.3 2294.5 20287.3 2285 20297.2 2275.2 20306.7 2265.1 20315.9 2254.8 20324.9 2244.2 20333.6 2233.4 20342 2222.4 20350 2211.1 20357.8 2199.7 20365.2 2188 20372.4 2176.1 20379.1 2164.1 20385.6 2151.8 20391.7 2139.4 20397.5 2126.9 20402.9 2114.2 20407.9 2101.3 20412.6 2088.3 20417 2075.3 20420.9 2062.1 20424.5 2048.8 20427.8 2035.4 20430.6 2022 20433.1 2008.4 20435.2 1994.9 20436.9 1981.3 20438.3 1967.6 20439.2 1954 20439.8 1940.3 20440 M 2360.1 20200.1 2719.9 19540.4 M 1460.5 21599.4 1460.5 22199.1 M 1460.5 21599.4 1460.7 21587.6 1461.3 21575.9 1462.2 21564.1 1463.6 21552.4 1465.3 21540.8 1467.4 21529.2 1469.9 21517.7 1472.8 21506.3 1476 21495 1479.6 21483.7 1483.6 21472.7 1487.9 21461.7 1492.6 21450.9 1497.6 21440.3 1503 21429.8 1508.7 21419.5 1514.8 21409.4 1521.1 21399.5 1527.8 21389.8 1534.9 21380.4 1542.2 21371.1 1549.8 21362.2 1557.7 21353.4 1565.9 21345 1574.3 21336.8 1583.1 21328.9 1592 21321.3 1601.3 21314 1610.7 21306.9 1620.4 21300.2 1630.3 21293.9 1640.4 21287.8 1650.7 21282.1 1661.2 21276.7 1671.8 21271.7 1682.6 21267 1693.6 21262.7 1704.6 21258.7 1715.9 21255.1 1727.2 21251.9 1738.6 21249 1750.1 21246.5 1761.7 21244.4 1773.3 21242.7 1785 21241.3 1796.8 21240.4 1808.5 21239.8 1820.3 21239.6 M 1820.3 21239.5 2420.1 21239.5 2433.9 21239.7 2447.7 21240.3 2461.5 21241.3 2475.3 21242.7 2489 21244.5 2502.7 21246.7 2516.2 21249.2 2529.8 21252.2 2543.2 21255.6 2556.5 21259.3 2569.7 21263.4 2582.8 21267.9 2595.7 21272.8 2608.5 21278 2621.1 21283.6 2633.6 21289.6 2645.9 21296 2658 21302.6 2669.9 21309.7 2681.6 21317 2693.1 21324.7 2704.4 21332.8 2715.4 21341.1 2726.1 21349.8 2736.7 21358.8 2746.9 21368 2756.9 21377.6 2766.6 21387.4 2776 21397.6 2785.2 21408 2794 21418.6 2802.5 21429.5 2810.7 21440.6 2818.6 21452 2826.1 21463.6 2833.3 21475.4 2840.2 21487.4 2846.7 21499.6 2852.8 21512 2858.6 21524.6 2864 21537.3 2869.1 21550.2 2873.8 21563.2 2878.1 21576.3 2882 21589.6 2885.6 21602.9 2888.7 21616.4 2891.5 21629.9 2893.9 21643.6 2895.9 21657.2 2897.5 21671 2898.7 21684.8 2899.5 21698.6 2899.9 21712.4 2899.9 21726.2 2899.5 21740 2898.7 21753.8 2897.5 21767.6 2895.9 21781.4 2893.9 21795 2891.5 21808.7 2888.7 21822.2 2885.6 21835.7 2882 21849 2878.1 21862.3 2873.8 21875.4 2869.1 21888.4 2864 21901.3 2858.6 21914 2852.8 21926.6 2846.7 21939 2840.2 21951.2 2833.3 21963.2 2826.1 21975 2818.6 21986.6 2810.7 21998 2802.5 22009.1 2794 22020 2785.2 22030.6 2776 22041 2766.6 22051.2 2756.9 22061 2746.9 22070.6 2736.7 22079.8 2726.1 22088.8 2715.4 22097.5 2704.4 22105.8 2693.1 22113.9 2681.6 22121.6 2669.9 22128.9 2658 22136 2645.9 22142.6 2633.6 22149 2621.1 22155 2608.5 22160.6 2595.7 22165.8 2582.8 22170.7 2569.7 22175.2 2556.5 22179.3 2543.2 22183 2529.8 22186.4 2516.2 22189.4 2502.7 22191.9 2489 22194.1 2475.3 22195.9 2461.5 22197.3 2447.7 22198.3 2433.9 22198.9 2420.1 22199.1 2180.2 22199.1 2180.2 21239.5 M 1460.5 23131.7 2899.8 23131.7 2899.8 23851.4 2659.9 23851.4 M 2899.8 24440.9 1460.5 24920.7 2899.8 25400.5 M 2420.1 26180.8 1940.3 26180.8 M 2420.1 26180.8 2433.9 26181 2447.7 26181.6 2461.5 26182.6 2475.3 26184 2489 26185.8 2502.7 26188 2516.2 26190.5 2529.8 26193.5 2543.2 26196.9 2556.5 26200.6 2569.7 26204.7 2582.8 26209.2 2595.7 26214.1 2608.5 26219.3 2621.1 26224.9 2633.6 26230.9 2645.9 26237.3 2658 26243.9 2669.9 26251 2681.6 26258.3 2693.1 26266 2704.4 26274.1 2715.4 26282.4 2726.1 26291.1 2736.7 26300.1 2746.9 26309.3 2756.9 26318.9 2766.6 26328.7 2776 26338.9 2785.2 26349.3 2794 26359.9 2802.5 26370.8 2810.7 26381.9 2818.6 26393.3 2826.1 26404.9 2833.3 26416.7 2840.2 26428.7 2846.7 26440.9 2852.8 26453.3 2858.6 26465.9 2864 26478.6 2869.1 26491.5 2873.8 26504.5 2878.1 26517.6 2882 26530.9 2885.6 26544.2 2888.7 26557.7 2891.5 26571.2 2893.9 26584.9 2895.9 26598.5 2897.5 26612.3 2898.7 26626.1 2899.5 26639.9 2899.9 26653.7 2899.9 26667.5 2899.5 26681.3 2898.7 26695.1 2897.5 26708.9 2895.9 26722.7 2893.9 26736.3 2891.5 26750 2888.7 26763.5 2885.6 26777 2882 26790.3 2878.1 26803.6 2873.8 26816.7 2869.1 26829.7 2864 26842.6 2858.6 26855.3 2852.8 26867.9 2846.7 26880.3 2840.2 26892.5 2833.3 26904.5 2826.1 26916.3 2818.6 26927.9 2810.7 26939.3 2802.5 26950.4 2794 26961.3 2785.2 26971.9 2776 26982.3 2766.6 26992.5 2756.9 27002.3 2746.9 27011.9 2736.7 27021.1 2726.1 27030.1 2715.4 27038.8 2704.4 27047.1 2693.1 27055.2 2681.6 27062.9 2669.9 27070.2 2658 27077.3 2645.9 27083.9 2633.6 27090.3 2621.1 27096.3 2608.5 27101.9 2595.7 27107.1 2582.8 27112 2569.7 27116.5 2556.5 27120.6 2543.2 27124.3 2529.8 27127.7 2516.2 27130.7 2502.7 27133.2 2489 27135.4 2475.3 27137.2 2461.5 27138.6 2447.7 27139.6 2433.9 27140.2 2420.1 27140.4 1940.3 27140.4 1926.5 27140.2 1912.7 27139.6 1898.9 27138.6 1885.1 27137.2 1871.4 27135.4 1857.7 27133.2 1844.2 27130.7 1830.6 27127.7 1817.2 27124.3 1803.9 27120.6 1790.7 27116.5 1777.6 27112 1764.7 27107.1 1751.9 27101.9 1739.3 27096.3 1726.8 27090.3 1714.5 27083.9 1702.4 27077.3 1690.5 27070.2 1678.8 27062.9 1667.3 27055.2 1656 27047.1 1645 27038.8 1634.3 27030.1 1623.7 27021.1 1613.5 27011.9 1603.5 27002.3 1593.8 26992.5 1584.4 26982.3 1575.2 26971.9 1566.4 26961.3 1557.9 26950.4 1549.7 26939.3 1541.8 26927.9 1534.3 26916.3 1527.1 26904.5 1520.2 26892.5 1513.7 26880.3 1507.6 26867.9 1501.8 26855.3 1496.4 26842.6 1491.3 26829.7 1486.6 26816.7 1482.3 26803.6 1478.4 26790.3 1474.8 26777 1471.7 26763.5 1468.9 26750 1466.5 26736.3 1464.5 26722.7 1462.9 26708.9 1461.7 26695.1 1460.9 26681.3 1460.5 26667.5 1460.5 26653.7 1460.9 26639.9 1461.7 26626.1 1462.9 26612.3 1464.5 26598.5 1466.5 26584.9 1468.9 26571.2 1471.7 26557.7 1474.8 26544.2 1478.4 26530.9 1482.3 26517.6 1486.6 26504.5 1491.3 26491.5 1496.4 26478.6 1501.8 26465.9 1507.6 26453.3 1513.7 26440.9 1520.2 26428.7 1527.1 26416.7 1534.3 26404.9 1541.8 26393.3 1549.7 26381.9 1557.9 26370.8 1566.4 26359.9 1575.2 26349.3 1584.4 26338.9 1593.8 26328.7 1603.5 26318.9 1613.5 26309.3 1623.7 26300.1 1634.3 26291.1 1645 26282.4 1656 26274.1 1667.3 26266 1678.8 26258.3 1690.5 26251 1702.4 26243.9 1714.5 26237.3 1726.8 26230.9 1739.3 26224.9 1751.9 26219.3 1764.7 26214.1 1777.6 26209.2 1790.7 26204.7 1803.9 26200.6 1817.2 26196.9 1830.6 26193.5 1844.2 26190.5 1857.7 26188 1871.4 26185.8 1885.1 26184 1898.9 26182.6 1912.7 26181.6 1926.5 26181 1940.3 26180.8 M 2300.1 28028.8 2300.1 29468.2 M 1460.5 30836.4 3619.5 30836.4 M 3619.5 31436.1 3619.5 30236.6 M 1460.5 32525.9 1460.5 33125.6 M 1460.5 32525.9 1460.7 32514.1 1461.3 32502.4 1462.2 32490.6 1463.6 32478.9 1465.3 32467.3 1467.4 32455.7 1469.9 32444.2 1472.8 32432.8 1476 32421.5 1479.6 32410.2 1483.6 32399.2 1487.9 32388.2 1492.6 32377.4 1497.6 32366.8 1503 32356.3 1508.7 32346 1514.8 32335.9 1521.1 32326 1527.8 32316.3 1534.9 32306.9 1542.2 32297.6 1549.8 32288.7 1557.7 32279.9 1565.9 32271.5 1574.3 32263.3 1583.1 32255.4 1592 32247.8 1601.3 32240.5 1610.7 32233.4 1620.4 32226.7 1630.3 32220.4 1640.4 32214.3 1650.7 32208.6 1661.2 32203.2 1671.8 32198.2 1682.6 32193.5 1693.6 32189.2 1704.6 32185.2 1715.9 32181.6 1727.2 32178.4 1738.6 32175.5 1750.1 32173 1761.7 32170.9 1773.3 32169.2 1785 32167.8 1796.8 32166.9 1808.5 32166.3 1820.3 32166.1 2420.1 32166.1 2433.9 32166.3 2447.7 32166.9 2461.5 32167.9 2475.3 32169.3 2489 32171.1 2502.7 32173.3 2516.2 32175.8 2529.8 32178.8 2543.2 32182.2 2556.5 32185.9 2569.7 32190 2582.8 32194.5 2595.7 32199.4 2608.5 32204.6 2621.1 32210.2 2633.6 32216.2 2645.9 32222.6 2658 32229.2 2669.9 32236.3 2681.6 32243.6 2693.1 32251.3 2704.4 32259.4 2715.4 32267.7 2726.1 32276.4 2736.7 32285.4 2746.9 32294.6 2756.9 32304.2 2766.6 32314 2776 32324.2 2785.2 32334.6 2794 32345.2 2802.5 32356.1 2810.7 32367.2 2818.6 32378.6 2826.1 32390.2 2833.3 32402 2840.2 32414 2846.7 32426.2 2852.8 32438.6 2858.6 32451.2 2864 32463.9 2869.1 32476.8 2873.8 32489.8 2878.1 32502.9 2882 32516.2 2885.6 32529.5 2888.7 32543 2891.5 32556.5 2893.9 32570.2 2895.9 32583.8 2897.5 32597.6 2898.7 32611.4 2899.5 32625.2 2899.9 32639 2899.9 32652.8 2899.5 32666.6 2898.7 32680.4 2897.5 32694.2 2895.9 32708 2893.9 32721.6 2891.5 32735.3 2888.7 32748.8 2885.6 32762.3 2882 32775.6 2878.1 32788.9 2873.8 32802 2869.1 32815 2864 32827.9 2858.6 32840.6 2852.8 32853.2 2846.7 32865.6 2840.2 32877.8 2833.3 32889.8 2826.1 32901.6 2818.6 32913.2 2810.7 32924.6 2802.5 32935.7 2794 32946.6 2785.2 32957.2 2776 32967.6 2766.6 32977.8 2756.9 32987.6 2746.9 32997.2 2736.7 33006.4 2726.1 33015.4 2715.4 33024.1 2704.4 33032.4 2693.1 33040.5 2681.6 33048.2 2669.9 33055.5 2658 33062.6 2645.9 33069.2 2633.6 33075.6 2621.1 33081.6 2608.5 33087.2 2595.7 33092.4 2582.8 33097.3 2569.7 33101.8 2556.5 33105.9 2543.2 33109.6 2529.8 33113 2516.2 33116 2502.7 33118.5 2489 33120.7 2475.3 33122.5 2461.5 33123.9 2447.7 33124.9 2433.9 33125.5 2420.1 33125.7 M 2420.1 33125.6 2180.2 33125.6 2180.2 32166.1 M 2300.1 34155.5 2060.2 34755.2 M 2300.1 34155.5 2304.4 34145.3 2309.1 34135.3 2314.1 34125.4 2319.4 34115.7 2325.1 34106.2 2331.2 34096.9 2337.5 34087.9 2344.2 34079.1 2351.2 34070.5 2358.5 34062.1 2366 34054.1 2373.9 34046.3 2382 34038.8 2390.4 34031.6 2399.1 34024.7 2407.9 34018.1 2417.1 34011.8 2426.4 34005.8 2435.9 34000.2 2445.7 33995 2455.6 33990 2465.6 33985.5 2475.9 33981.3 2486.3 33977.4 2496.8 33974 2507.4 33970.9 2518.1 33968.2 2528.9 33965.8 2539.8 33963.9 2550.8 33962.3 2561.8 33961.2 2572.8 33960.4 2583.9 33960 2595 33960.1 2606 33960.5 2617.1 33961.3 2628.1 33962.5 2639 33964.1 2649.9 33966 2660.7 33968.4 2671.4 33971.1 2682 33974.3 2692.5 33977.8 2702.9 33981.6 2713.1 33985.9 2723.2 33990.5 2733.1 33995.4 2742.8 34000.7 2752.3 34006.4 2761.6 34012.4 2770.7 34018.7 2779.6 34025.3 2788.2 34032.2 2796.6 34039.5 2804.7 34047 2812.5 34054.8 2820 34062.9 2827.3 34071.3 2834.3 34079.9 2840.9 34088.7 2847.2 34097.8 2853.2 34107.1 2858.9 34116.6 2864.2 34126.3 2869.2 34136.2 2873.8 34146.3 2878 34156.5 2881.9 34166.8 2885.5 34177.3 2888.6 34187.9 2891.4 34198.7 2893.7 34209.5 2895.7 34220.3 2897.4 34231.3 2898.6 34242.3 2899.4 34253.3 2899.8 34264.4 2899.9 34275.4 M 2899.8 34275.5 2898.9 34308.2 2897.3 34340.9 2894.8 34373.6 2891.6 34406.2 2887.6 34438.7 2882.8 34471.1 2877.3 34503.3 2870.9 34535.5 2863.8 34567.4 2855.9 34599.2 2847.3 34630.8 2837.9 34662.2 2827.8 34693.3 2816.9 34724.2 2805.3 34754.8 2792.9 34785.2 2779.8 34815.2 M 2060.3 34755.2 2056 34765.4 2051.3 34775.4 2046.3 34785.3 2041 34795 2035.3 34804.5 2029.2 34813.8 2022.9 34822.8 2016.2 34831.6 2009.2 34840.2 2001.9 34848.6 1994.4 34856.6 1986.5 34864.4 1978.4 34871.9 1970 34879.1 1961.3 34886 1952.5 34892.6 1943.3 34898.9 1934 34904.9 1924.5 34910.5 1914.7 34915.7 1904.8 34920.7 1894.8 34925.2 1884.5 34929.4 1874.1 34933.3 1863.6 34936.7 1853 34939.8 1842.3 34942.5 1831.5 34944.9 1820.6 34946.8 1809.6 34948.4 1798.6 34949.5 1787.6 34950.3 1776.5 34950.7 1765.4 34950.6 1754.4 34950.2 1743.3 34949.4 1732.3 34948.2 1721.4 34946.6 1710.5 34944.7 1699.7 34942.3 1689 34939.6 1678.4 34936.4 1667.9 34932.9 1657.5 34929.1 1647.3 34924.8 1637.2 34920.2 1627.3 34915.3 1617.6 34910 1608.1 34904.3 1598.8 34898.3 1589.7 34892 1580.8 34885.4 1572.2 34878.5 1563.8 34871.2 1555.7 34863.7 1547.9 34855.9 1540.4 34847.8 1533.1 34839.4 1526.2 34830.8 1519.5 34822 1513.2 34812.9 1507.2 34803.6 1501.5 34794.1 1496.2 34784.4 1491.2 34774.5 1486.6 34764.4 1482.4 34754.2 1478.5 34743.9 1474.9 34733.4 1471.8 34722.8 1469 34712.1 1466.7 34701.2 1464.7 34690.4 1463 34679.4 1461.8 34668.4 1461 34657.4 1460.6 34646.3 1460.5 34635.3 1461.8 34587.2 1464.2 34539.1 1467.7 34491.1 1472.3 34443.2 1478.1 34395.5 1485.1 34347.9 1493.1 34300.4 1502.3 34253.2 1512.6 34206.2 1523.9 34159.5 1536.4 34113 1550 34066.8 1564.7 34021 1580.5 33975.6 M 2899.8 35609.4 2899.8 36329 M 3619.5 35849.3 1820.3 35849.3 1808.5 35849.5 1796.8 35850.1 1785 35851 1773.3 35852.4 1761.7 35854.1 1750.1 35856.2 1738.6 35858.7 1727.2 35861.6 1715.9 35864.8 1704.6 35868.4 1693.6 35872.4 1682.6 35876.7 1671.8 35881.4 1661.2 35886.4 1650.7 35891.8 1640.4 35897.5 1630.3 35903.6 1620.4 35909.9 1610.7 35916.6 1601.3 35923.7 1592 35931 1583.1 35938.6 1574.3 35946.5 1565.9 35954.7 1557.7 35963.1 1549.8 35971.9 1542.2 35980.8 1534.9 35990.1 1527.8 35999.5 1521.1 36009.2 1514.8 36019.1 1508.7 36029.2 1503 36039.5 1497.6 36050 1492.6 36060.6 1487.9 36071.4 1483.6 36082.4 1479.6 36093.4 1476 36104.7 1472.8 36116 1469.9 36127.4 1467.4 36138.9 1465.3 36150.5 1463.6 36162.1 1462.2 36173.8 1461.3 36185.6 1460.7 36197.3 1460.5 36209.1 1460.5 36329 M 1460.5 37467.2 1460.5 38066.9 M 1460.5 37467.2 1460.7 37455.4 1461.3 37443.7 1462.2 37431.9 1463.6 37420.2 1465.3 37408.6 1467.4 37397 1469.9 37385.5 1472.8 37374.1 1476 37362.8 1479.6 37351.5 1483.6 37340.5 1487.9 37329.5 1492.6 37318.7 1497.6 37308.1 1503 37297.6 1508.7 37287.3 1514.8 37277.2 1521.1 37267.3 1527.8 37257.6 1534.9 37248.2 1542.2 37238.9 1549.8 37230 1557.7 37221.2 1565.9 37212.8 1574.3 37204.6 1583.1 37196.7 1592 37189.1 1601.3 37181.8 1610.7 37174.7 1620.4 37168 1630.3 37161.7 1640.4 37155.6 1650.7 37149.9 1661.2 37144.5 1671.8 37139.5 1682.6 37134.8 1693.6 37130.5 1704.6 37126.5 1715.9 37122.9 1727.2 37119.7 1738.6 37116.8 1750.1 37114.3 1761.7 37112.2 1773.3 37110.5 1785 37109.1 1796.8 37108.2 1808.5 37107.6 1820.3 37107.4 2420.1 37107.4 2433.9 37107.6 2447.7 37108.2 2461.5 37109.2 2475.3 37110.6 2489 37112.4 2502.7 37114.6 2516.2 37117.1 2529.8 37120.1 2543.2 37123.5 2556.5 37127.2 2569.7 37131.3 2582.8 37135.8 2595.7 37140.7 2608.5 37145.9 2621.1 37151.5 2633.6 37157.5 2645.9 37163.9 2658 37170.5 2669.9 37177.6 2681.6 37184.9 2693.1 37192.6 2704.4 37200.7 2715.4 37209 2726.1 37217.7 2736.7 37226.7 2746.9 37235.9 2756.9 37245.5 2766.6 37255.3 2776 37265.5 2785.2 37275.9 2794 37286.5 2802.5 37297.4 2810.7 37308.5 2818.6 37319.9 2826.1 37331.5 2833.3 37343.3 2840.2 37355.3 2846.7 37367.5 2852.8 37379.9 2858.6 37392.5 2864 37405.2 2869.1 37418.1 2873.8 37431.1 2878.1 37444.2 2882 37457.5 2885.6 37470.8 2888.7 37484.3 2891.5 37497.8 2893.9 37511.5 2895.9 37525.1 2897.5 37538.9 2898.7 37552.7 2899.5 37566.5 2899.9 37580.3 2899.9 37594.1 2899.5 37607.9 2898.7 37621.7 2897.5 37635.5 2895.9 37649.3 2893.9 37662.9 2891.5 37676.6 2888.7 37690.1 2885.6 37703.6 2882 37716.9 2878.1 37730.2 2873.8 37743.3 2869.1 37756.3 2864 37769.2 2858.6 37781.9 2852.8 37794.5 2846.7 37806.9 2840.2 37819.1 2833.3 37831.1 2826.1 37842.9 2818.6 37854.5 2810.7 37865.9 2802.5 37877 2794 37887.9 2785.2 37898.5 2776 37908.9 2766.6 37919.1 2756.9 37928.9 2746.9 37938.5 2736.7 37947.7 2726.1 37956.7 2715.4 37965.4 2704.4 37973.7 2693.1 37981.8 2681.6 37989.5 2669.9 37996.8 2658 38003.9 2645.9 38010.5 2633.6 38016.9 2621.1 38022.9 2608.5 38028.5 2595.7 38033.7 2582.8 38038.6 2569.7 38043.1 2556.5 38047.2 2543.2 38050.9 2529.8 38054.3 2516.2 38057.3 2502.7 38059.8 2489 38062 2475.3 38063.8 2461.5 38065.2 2447.7 38066.2 2433.9 38066.8 2420.1 38067 M 2420.1 38066.9 2180.2 38066.9 2180.2 37107.4 M 1460.5 38999.6 2899.8 38999.6 2899.8 39719.3 2659.9 39719.3 M 11980 5750.3 11980.2 5736.6 11980.8 5722.9 11981.8 5709.2 11983.1 5695.6 11984.9 5682 11987 5668.5 11989.6 5655 11992.5 5641.6 11995.8 5628.3 11999.4 5615.1 12003.5 5602 12007.9 5589.1 12012.7 5576.2 12017.8 5563.5 12023.4 5551 12029.2 5538.6 12035.4 5526.4 12042 5514.4 12048.9 5502.5 12056.2 5490.9 12063.7 5479.5 12071.6 5468.3 12079.8 5457.3 12088.4 5446.6 12097.2 5436.1 12106.3 5425.9 12115.7 5415.9 12125.4 5406.2 12135.4 5396.8 12145.6 5387.7 12156.1 5378.9 12166.8 5370.3 12177.8 5362.1 12189 5354.2 12200.4 5346.7 12212 5339.4 12223.9 5332.5 12235.9 5325.9 12248.1 5319.7 12260.5 5313.9 12273 5308.3 12285.7 5303.2 12298.6 5298.4 12311.5 5294 12324.6 5289.9 12337.8 5286.3 12351.1 5283 12364.5 5280.1 12378 5277.5 12391.5 5275.4 12405.1 5273.6 12418.7 5272.3 12432.4 5271.3 12446.1 5270.7 12459.8 5270.5 12484.1 5270.8 12508.3 5271.7 12532.5 5273.1 12556.7 5275.1 12580.8 5277.7 12604.8 5280.9 12628.8 5284.7 12652.6 5289 12676.4 5293.9 12700 5299.4 12723.5 5305.4 12746.8 5312 12770 5319.1 12793 5326.8 12815.8 5335.1 12838.4 5343.9 12860.8 5353.2 12882.9 5363.1 12904.8 5373.4 12926.5 5384.3 12947.9 5395.8 12969 5407.7 12989.8 5420.1 13010.3 5433.1 13030.5 5446.5 13050.4 5460.4 13069.9 5474.7 13089.1 5489.6 13108 5504.8 13126.4 5520.6 13144.5 5536.7 13162.2 5553.3 13179.4 5570.3 M 13119.6 6949.7 13119.4 6963.4 13118.8 6977.1 13117.8 6990.8 13116.5 7004.4 13114.7 7018 13112.6 7031.5 13110 7045 13107.1 7058.4 13103.8 7071.7 13100.2 7084.9 13096.1 7098 13091.7 7110.9 13086.9 7123.8 13081.8 7136.5 13076.2 7149 13070.4 7161.4 13064.2 7173.6 13057.6 7185.6 13050.7 7197.5 13043.4 7209.1 13035.9 7220.5 13028 7231.7 13019.8 7242.7 13011.2 7253.4 13002.4 7263.9 12993.3 7274.1 12983.9 7284.1 12974.2 7293.8 12964.2 7303.2 12954 7312.3 12943.5 7321.1 12932.8 7329.7 12921.8 7337.9 12910.6 7345.8 12899.2 7353.3 12887.6 7360.6 12875.7 7367.5 12863.7 7374.1 12851.5 7380.3 12839.1 7386.1 12826.6 7391.7 12813.9 7396.8 12801 7401.6 12788.1 7406 12775 7410.1 12761.8 7413.7 12748.5 7417 12735.1 7419.9 12721.6 7422.5 12708.1 7424.6 12694.5 7426.4 12680.9 7427.7 12667.2 7428.7 12653.5 7429.3 12639.8 7429.5 12618.4 7429.2 12596.9 7428.5 12575.5 7427.2 12554.2 7425.4 12532.8 7423.1 12511.6 7420.3 12490.4 7417 12469.3 7413.2 12448.3 7408.9 12427.4 7404.1 12406.6 7398.8 12386 7393 12365.5 7386.7 12345.2 7379.9 12325 7372.6 12305 7364.9 12285.2 7356.7 12265.6 7348 12246.2 7338.8 12227 7329.2 12208.1 7319.2 12189.4 7308.6 12171 7297.7 12152.8 7286.3 12134.9 7274.5 12117.3 7262.2 12100 7249.6 M 12879.7 6529.9 12891.4 6537 12902.9 6544.4 12914.1 6552.2 12925.2 6560.2 12936 6568.6 12946.6 6577.3 12956.9 6586.2 12967 6595.5 12976.8 6605 12986.3 6614.8 12995.6 6624.9 13004.5 6635.2 13013.2 6645.8 13021.6 6656.6 13029.6 6667.6 13037.4 6678.9 13044.8 6690.3 13052 6702 13058.7 6713.9 13065.2 6726 13071.3 6738.2 13077.1 6750.6 13082.5 6763.1 13087.5 6775.8 13092.2 6788.7 13096.6 6801.7 13100.5 6814.7 13104.1 6827.9 13107.4 6841.2 13110.2 6854.6 13112.7 6868 13114.8 6881.6 13116.5 6895.1 13117.9 6908.7 13118.8 6922.4 13119.4 6936 13119.6 6949.7 M 12219.9 6170.1 12208.2 6163 12196.7 6155.6 12185.5 6147.8 12174.4 6139.8 12163.6 6131.4 12153 6122.7 12142.7 6113.8 12132.7 6104.5 12122.8 6095 12113.3 6085.2 12104.1 6075.1 12095.1 6064.8 12086.4 6054.2 12078 6043.4 12070 6032.4 12062.2 6021.1 12054.8 6009.7 12047.6 5998 12040.9 5986.1 12034.4 5974.1 12028.3 5961.8 12022.5 5949.4 12017.1 5936.9 12012.1 5924.2 12007.4 5911.3 12003 5898.3 11999.1 5885.3 11995.5 5872.1 11992.2 5858.8 11989.4 5845.4 11986.9 5832 11984.8 5818.4 11983.1 5804.9 11981.7 5791.3 11980.8 5777.6 11980.2 5764 11980 5750.3 M 12219.9 6170.1 12879.6 6529.9 M 11129.8 6110.1 9690.5 6110.1 M 10410.2 5390.4 10410.2 6829.8 M 8429.8 6110.1 6990.5 6110.1" fill="none" stroke-width="381"/><path d="M 0 0 20320 0 20320 52540 16163.9 52540 16163.9 65929 4162.3 65929 4162.3 52540 0 52540 0 0" fill="none" stroke-width="254"/></g></svg>