<svg version="1.1" xmlns="http://www.w3.org/2000/svg" xmlns:xlink="http://www.w3.org/1999/xlink" stroke-linecap="round" stroke-linejoin="round" stroke-width="0" fill-rule="evenodd" width="20.574mm" height="74.692mm" viewBox="-127 -8636 20574 74692" id="PguhyUk4YdoCSRjrX8Do"><defs><circle cx="0" cy="0" r="250" id="PguhyUk4YdoCSRjrX8Do_pad-12"/><rect x="-381" y="-254" width="762" height="508" id="PguhyUk4YdoCSRjrX8Do_pad-18"/><rect x="-381" y="-508" width="762" height="1016" id="PguhyUk4YdoCSRjrX8Do_pad-19"/><rect x="-150" y="-75" width="300" height="150" id="PguhyUk4YdoCSRjrX8Do_pad-20"/><rect x="-150" y="-150" width="300" height="300" id="PguhyUk4YdoCSRjrX8Do_pad-21"/></defs><g transform="translate(0,57420) scale(1,-1)" fill="currentColor" stroke="currentColor"><path d="M 1910.5 2300.1 3349.8 2300.1" fill="none" stroke-width="381"/><path d="M 5080 10160 4570.1 10669.9 4566.6 10669.9 M 5080 10160 4525.8 9605.8 4508.3 9605.8 4508.3 10669.9 M 5296.1 10830.3 5296.1 9474.7 M 14730.1 10669.9 15240 10160 14685.8 9605.8 M 14668.3 9605.8 14668.3 10669.9 M 15456.1 10830.3 15456.1 9474.7" fill="none" stroke-width="406.4"/><use xlink:href="#PguhyUk4YdoCSRjrX8Do_pad-12" x="4673" y="40640"/><path d="M 6700 41587 6700 41910 13300 41910 13300 41587 M 6700 32073 6700 31750 13300 31750 13300 32073" fill="none" stroke-width="120"/><path d="M 8852.9 42646.6 8852.9 43865.8 M 8717.5 42646.6 8988.4 42646.6 M 8988.4 43865.8 8717.5 43865.8 M 9804.2 42646.6 10075.1 42646.6 M 9804.2 42646.6 9794.1 42646.8 9784 42647.4 9773.9 42648.3 9763.8 42649.6 9753.8 42651.3 9743.9 42653.4 9734.1 42655.8 9724.4 42658.6 9714.7 42661.8 9705.2 42665.3 9695.9 42669.2 9686.7 42673.4 9677.6 42678 9668.8 42682.9 9660.1 42688.1 9651.6 42693.7 9643.3 42699.5 9635.3 42705.7 9627.5 42712.2 9619.9 42718.9 9612.6 42725.9 9605.6 42733.2 9598.9 42740.8 9592.4 42748.6 9586.2 42756.6 9580.4 42764.9 9574.8 42773.4 9569.6 42782.1 9564.7 42790.9 9560.1 42800 9555.9 42809.2 9552 42818.5 9548.5 42828 9545.3 42837.7 9542.5 42847.4 9540.1 42857.2 9538 42867.1 9536.3 42877.1 9535 42887.2 9534.1 42897.3 9533.5 42907.4 9533.3 42917.5 M 9533.2 42917.5 9533.2 43594.9 M 9533.3 43594.9 9533.5 43605.3 9534.1 43615.6 9535.1 43626 9536.5 43636.3 9538.3 43646.5 9540.4 43656.6 9543 43666.7 9545.9 43676.6 9549.2 43686.5 9552.9 43696.2 9557 43705.7 9561.4 43715.1 9566.2 43724.3 9571.3 43733.3 9576.8 43742.2 9582.6 43750.8 9588.8 43759.1 9595.2 43767.3 9602 43775.1 9609 43782.7 9616.3 43790.1 9624 43797.1 9631.8 43803.9 9640 43810.3 9648.3 43816.5 9656.9 43822.3 9665.8 43827.8 9674.8 43832.9 9684 43837.7 9693.4 43842.1 9702.9 43846.2 9712.6 43849.9 9722.5 43853.2 9732.4 43856.1 9742.5 43858.7 9752.6 43860.8 9762.8 43862.6 9773.1 43864 9783.5 43865 9793.8 43865.6 9804.2 43865.8 10075.1 43865.8 M 10605.2 43594.9 10943.9 43865.8 10943.9 42646.6 M 11282.5 42646.6 10605.2 42646.6 M 16850.6 40690.8 16850.6 39471.6 M 16850.6 40690.8 17189.3 40690.8 17200.9 40690.6 17212.4 40690 17223.9 40689 17235.4 40687.6 17246.8 40685.9 17258.2 40683.7 17269.5 40681.2 17280.7 40678.2 17291.8 40674.9 17302.7 40671.2 17313.6 40667.2 17324.2 40662.8 17334.8 40658 17345.1 40652.8 17355.3 40647.3 17365.3 40641.5 17375.1 40635.3 17384.6 40628.8 17394 40622 17403 40614.8 17411.9 40607.4 17420.5 40599.6 17428.8 40591.6 17436.8 40583.3 17444.6 40574.7 17452 40565.8 17459.2 40556.8 17466 40547.4 17472.5 40537.9 17478.7 40528.1 17484.5 40518.1 17490 40507.9 17495.2 40497.6 17500 40487 17504.4 40476.4 17508.4 40465.5 17512.1 40454.6 17515.4 40443.5 17518.4 40432.3 17520.9 40421 17523.1 40409.6 17524.8 40398.2 17526.2 40386.7 17527.2 40375.2 17527.8 40363.7 17528 40352.1 17527.8 40340.5 17527.2 40329 17526.2 40317.5 17524.8 40306 17523.1 40294.6 17520.9 40283.2 17518.4 40271.9 17515.4 40260.7 17512.1 40249.6 17508.4 40238.7 17504.4 40227.8 17500 40217.2 17495.2 40206.6 17490 40196.3 17484.5 40186.1 17478.7 40176.1 17472.5 40166.3 17466 40156.8 17459.2 40147.4 17452 40138.4 17444.6 40129.5 17436.8 40120.9 17428.8 40112.6 17420.5 40104.6 17411.9 40096.8 17403 40089.4 17394 40082.2 17384.6 40075.4 17375.1 40068.9 17365.3 40062.7 17355.3 40056.9 17345.1 40051.4 17334.8 40046.2 17324.2 40041.4 17313.6 40037 17302.7 40033 17291.8 40029.3 17280.7 40026 17269.5 40023 17258.2 40020.5 17246.8 40018.3 17235.4 40016.6 17223.9 40015.2 17212.4 40014.2 17200.9 40013.6 17189.3 40013.4 M 17189.3 40013.5 16850.6 40013.5 M 17257 40013.5 17527.9 39471.6 M 18119.3 40419.9 18457.9 40690.8 18457.9 39471.6 M 18119.3 39471.6 18796.6 39471.6 M 8747.4 12598.4 8747.4 11379.2 M 8747.4 12598.4 9086.1 12598.4 9097.7 12598.2 9109.2 12597.6 9120.7 12596.6 9132.2 12595.2 9143.6 12593.5 9155 12591.3 9166.3 12588.8 9177.5 12585.8 9188.6 12582.5 9199.5 12578.8 9210.4 12574.8 9221 12570.4 9231.6 12565.6 9241.9 12560.4 9252.1 12554.9 9262.1 12549.1 9271.9 12542.9 9281.4 12536.4 9290.8 12529.6 9299.8 12522.4 9308.7 12515 9317.3 12507.2 9325.6 12499.2 9333.6 12490.9 9341.4 12482.3 9348.8 12473.4 9356 12464.4 9362.8 12455 9369.3 12445.5 9375.5 12435.7 9381.3 12425.7 9386.8 12415.5 9392 12405.2 9396.8 12394.6 9401.2 12384 9405.2 12373.1 9408.9 12362.2 9412.2 12351.1 9415.2 12339.9 9417.7 12328.6 9419.9 12317.2 9421.6 12305.8 9423 12294.3 9424 12282.8 9424.6 12271.3 9424.8 12259.7 9424.6 12248.1 9424 12236.6 9423 12225.1 9421.6 12213.6 9419.9 12202.2 9417.7 12190.8 9415.2 12179.5 9412.2 12168.3 9408.9 12157.2 9405.2 12146.3 9401.2 12135.4 9396.8 12124.8 9392 12114.2 9386.8 12103.9 9381.3 12093.7 9375.5 12083.7 9369.3 12073.9 9362.8 12064.4 9356 12055 9348.8 12046 9341.4 12037.1 9333.6 12028.5 9325.6 12020.2 9317.3 12012.2 9308.7 12004.4 9299.8 11997 9290.8 11989.8 9281.4 11983 9271.9 11976.5 9262.1 11970.3 9252.1 11964.5 9241.9 11959 9231.6 11953.8 9221 11949 9210.4 11944.6 9199.5 11940.6 9188.6 11936.9 9177.5 11933.6 9166.3 11930.6 9155 11928.1 9143.6 11925.9 9132.2 11924.2 9120.7 11922.8 9109.2 11921.8 9097.7 11921.2 9086.1 11921 M 9086.1 11921.1 8747.4 11921.1 M 9153.8 11921.1 9424.7 11379.2 M 10388.6 12598.4 10399.5 12598.2 10410.3 12597.6 10421.2 12596.7 10432 12595.3 10442.7 12593.6 10453.4 12591.4 10464 12588.9 10474.5 12586.1 10484.9 12582.8 10495.1 12579.2 10505.2 12575.2 10515.2 12570.9 10525 12566.2 10534.7 12561.1 10544.1 12555.7 10553.4 12550 10562.4 12544 10571.3 12537.6 10579.9 12530.9 10588.2 12524 10596.3 12516.7 10604.1 12509.1 10611.7 12501.3 10619 12493.2 10625.9 12484.9 10632.6 12476.3 10639 12467.4 10645 12458.4 10650.7 12449.1 10656.1 12439.7 10661.2 12430 10665.9 12420.2 10670.2 12410.2 10674.2 12400.1 10677.8 12389.9 10681.1 12379.5 10683.9 12369 10686.4 12358.4 10688.6 12347.7 10690.3 12337 10691.7 12326.2 10692.6 12315.3 10693.2 12304.5 10693.4 12293.6 M 10388.6 12598.4 10376.3 12598.2 10364 12597.6 10351.7 12596.7 10339.5 12595.3 10327.3 12593.6 10315.2 12591.5 10303.1 12589 10291.1 12586.1 10279.3 12582.8 10267.5 12579.2 10255.9 12575.2 10244.3 12570.9 10233 12566.1 10221.7 12561.1 10210.7 12555.7 10199.8 12549.9 10189.1 12543.8 10178.6 12537.3 10168.3 12530.6 10158.3 12523.5 10148.4 12516.1 10138.8 12508.4 10129.5 12500.4 10120.4 12492.1 10111.5 12483.5 10103 12474.7 10094.7 12465.6 10086.7 12456.2 10079 12446.6 10071.6 12436.7 10064.6 12426.7 10057.8 12416.4 10051.4 12405.9 10045.3 12395.2 10039.5 12384.3 10034.1 12373.2 10029.1 12362 10024.4 12350.6 10020 12339.1 10016.1 12327.5 M 10591.8 12056.5 10599.7 12064.3 10607.3 12072.3 10614.6 12080.5 10621.6 12089.1 10628.4 12097.8 10634.9 12106.8 10641 12115.9 10646.8 12125.3 10652.4 12134.9 10657.5 12144.6 10662.4 12154.6 10666.9 12164.6 10671.1 12174.9 10674.9 12185.2 10678.4 12195.7 10681.5 12206.3 10684.3 12217 10686.7 12227.8 10688.8 12238.6 10690.4 12249.5 10691.7 12260.5 10692.7 12271.5 10693.2 12282.6 10693.4 12293.6 M 10591.8 12056.5 10016.1 11379.2 10693.4 11379.2" fill="none" stroke-width="203.2"/><path d="M 12870 28986.7 15070 28986.7 M 15070 26893.3 12870 26893.3" fill="none" stroke-width="127"/><path d="M 13366.3 29723.3 13637.2 29723.3 M 13366.3 29723.3 13356.2 29723.5 13346.1 29724.1 13336 29725 13325.9 29726.3 13315.9 29728 13306 29730.1 13296.2 29732.5 13286.5 29735.3 13276.8 29738.5 13267.3 29742 13258 29745.9 13248.8 29750.1 13239.7 29754.7 13230.9 29759.6 13222.2 29764.8 13213.7 29770.4 13205.4 29776.2 13197.4 29782.4 13189.6 29788.9 13182 29795.6 13174.7 29802.6 13167.7 29809.9 13161 29817.5 13154.5 29825.3 13148.3 29833.3 13142.5 29841.6 13136.9 29850.1 13131.7 29858.8 13126.8 29867.6 13122.2 29876.7 13118 29885.9 13114.1 29895.2 13110.6 29904.7 13107.4 29914.4 13104.6 29924.1 13102.2 29933.9 13100.1 29943.8 13098.4 29953.8 13097.1 29963.9 13096.2 29974 13095.6 29984.1 13095.4 29994.2 M 13095.3 29994.2 13095.3 30671.6 M 13095.4 30671.6 13095.6 30682 13096.2 30692.3 13097.2 30702.7 13098.6 30713 13100.4 30723.2 13102.5 30733.3 13105.1 30743.4 13108 30753.3 13111.3 30763.2 13115 30772.9 13119.1 30782.4 13123.5 30791.8 13128.3 30801 13133.4 30810 13138.9 30818.9 13144.7 30827.5 13150.9 30835.8 13157.3 30844 13164.1 30851.8 13171.1 30859.4 13178.4 30866.8 13186.1 30873.8 13193.9 30880.6 13202.1 30887 13210.4 30893.2 13219 30899 13227.9 30904.5 13236.9 30909.6 13246.1 30914.4 13255.5 30918.8 13265 30922.9 13274.7 30926.6 13284.6 30929.9 13294.5 30932.8 13304.6 30935.4 13314.7 30937.5 13324.9 30939.3 13335.2 30940.7 13345.6 30941.7 13355.9 30942.3 13366.3 30942.5 13637.2 30942.5 M 14167.3 30671.6 14506 30942.5 14506 29723.3 M 14167.3 29723.3 14844.7 29723.3" fill="none" stroke-width="203.2"/><path d="M 18355.4 30903.7 18355.4 33103.7 M 16262 33103.7 16262 30903.7" fill="none" stroke-width="127"/><path d="M 16922.6 34332 17193.5 34332 M 16922.6 34332 16912.5 34332.2 16902.4 34332.8 16892.3 34333.7 16882.2 34335 16872.2 34336.7 16862.3 34338.8 16852.5 34341.2 16842.8 34344 16833.1 34347.2 16823.6 34350.7 16814.3 34354.6 16805.1 34358.8 16796 34363.4 16787.2 34368.3 16778.5 34373.5 16770 34379.1 16761.7 34384.9 16753.7 34391.1 16745.9 34397.6 16738.3 34404.3 16731 34411.3 16724 34418.6 16717.3 34426.2 16710.8 34434 16704.6 34442 16698.8 34450.3 16693.2 34458.8 16688 34467.5 16683.1 34476.3 16678.5 34485.4 16674.3 34494.6 16670.4 34503.9 16666.9 34513.4 16663.7 34523.1 16660.9 34532.8 16658.5 34542.6 16656.4 34552.5 16654.7 34562.5 16653.4 34572.6 16652.5 34582.7 16651.9 34592.8 16651.7 34602.9 M 16651.6 34602.9 16651.6 35280.2 M 16651.7 35280.2 16651.9 35290.6 16652.5 35300.9 16653.5 35311.3 16654.9 35321.6 16656.7 35331.8 16658.8 35341.9 16661.4 35352 16664.3 35361.9 16667.6 35371.8 16671.3 35381.5 16675.4 35391 16679.8 35400.4 16684.6 35409.6 16689.7 35418.6 16695.2 35427.5 16701 35436.1 16707.2 35444.4 16713.6 35452.6 16720.4 35460.4 16727.4 35468 16734.7 35475.4 16742.4 35482.4 16750.2 35489.2 16758.4 35495.6 16766.7 35501.8 16775.3 35507.6 16784.2 35513.1 16793.2 35518.2 16802.4 35523 16811.8 35527.4 16821.3 35531.5 16831 35535.2 16840.9 35538.5 16850.8 35541.4 16860.9 35544 16871 35546.1 16881.2 35547.9 16891.5 35549.3 16901.9 35550.3 16912.2 35550.9 16922.6 35551.1 M 16922.6 35551.2 17193.5 35551.2 M 18096.2 35551.2 18107.1 35551 18117.9 35550.4 18128.8 35549.5 18139.6 35548.1 18150.3 35546.4 18161 35544.2 18171.6 35541.7 18182.1 35538.9 18192.5 35535.6 18202.7 35532 18212.8 35528 18222.8 35523.7 18232.6 35519 18242.3 35513.9 18251.7 35508.5 18261 35502.8 18270 35496.8 18278.9 35490.4 18287.5 35483.7 18295.8 35476.8 18303.9 35469.5 18311.7 35461.9 18319.3 35454.1 18326.6 35446 18333.5 35437.7 18340.2 35429.1 18346.6 35420.2 18352.6 35411.2 18358.3 35401.9 18363.7 35392.5 18368.8 35382.8 18373.5 35373 18377.8 35363 18381.8 35352.9 18385.4 35342.7 18388.7 35332.3 18391.5 35321.8 18394 35311.2 18396.2 35300.5 18397.9 35289.8 18399.3 35279 18400.2 35268.1 18400.8 35257.3 18401 35246.4 M 18096.2 35551.2 18083.9 35551 18071.6 35550.4 18059.3 35549.5 18047.1 35548.1 18034.9 35546.4 18022.8 35544.3 18010.7 35541.8 17998.7 35538.9 17986.9 35535.6 17975.1 35532 17963.5 35528 17951.9 35523.7 17940.6 35518.9 17929.3 35513.9 17918.3 35508.5 17907.4 35502.7 17896.7 35496.6 17886.2 35490.1 17875.9 35483.4 17865.9 35476.3 17856 35468.9 17846.4 35461.2 17837.1 35453.2 17828 35444.9 17819.1 35436.3 17810.6 35427.5 17802.3 35418.4 17794.3 35409 17786.6 35399.4 17779.2 35389.5 17772.2 35379.5 17765.4 35369.2 17759 35358.7 17752.9 35348 17747.1 35337.1 17741.7 35326 17736.7 35314.8 17732 35303.4 17727.6 35291.9 17723.7 35280.3 M 18299.4 35009.3 18307.3 35017.1 18314.9 35025.1 18322.2 35033.3 18329.2 35041.9 18336 35050.6 18342.5 35059.6 18348.6 35068.7 18354.4 35078.1 18360 35087.7 18365.1 35097.4 18370 35107.4 18374.5 35117.4 18378.7 35127.7 18382.5 35138 18386 35148.5 18389.1 35159.1 18391.9 35169.8 18394.3 35180.6 18396.4 35191.4 18398 35202.3 18399.3 35213.3 18400.3 35224.3 18400.8 35235.4 18401 35246.4 M 18299.4 35009.3 17723.6 34332 18401 34332" fill="none" stroke-width="203.2"/><path d="M 7651.7 8859.6 4097 8859.6 M 7651.7 8859.6 7651.7 11337.6 4097 11337.6" fill="none" stroke-width="120"/><path d="M 269.9 10663 269.9 9443.8 M 269.9 10663 608.6 10663 620.2 10662.8 631.7 10662.2 643.2 10661.2 654.7 10659.8 666.1 10658.1 677.5 10655.9 688.8 10653.4 700 10650.4 711.1 10647.1 722 10643.4 732.9 10639.4 743.5 10635 754.1 10630.2 764.4 10625 774.6 10619.5 784.6 10613.7 794.4 10607.5 803.9 10601 813.3 10594.2 822.4 10587 831.2 10579.6 839.8 10571.8 848.1 10563.8 856.1 10555.5 863.9 10546.9 871.3 10538 878.5 10529 885.3 10519.6 891.8 10510.1 898 10500.3 903.8 10490.3 909.3 10480.1 914.5 10469.8 919.3 10459.2 923.7 10448.6 927.7 10437.7 931.4 10426.8 934.7 10415.7 937.7 10404.5 940.2 10393.2 942.4 10381.8 944.1 10370.4 945.5 10358.9 946.5 10347.4 947.1 10335.9 947.3 10324.3 947.3 9782.5 947.1 9770.9 946.5 9759.4 945.5 9747.9 944.1 9736.4 942.4 9725 940.2 9713.6 937.7 9702.3 934.7 9691.1 931.4 9680 927.7 9669.1 923.7 9658.2 919.3 9647.6 914.5 9637 909.3 9626.7 903.8 9616.5 898 9606.5 891.8 9596.7 885.3 9587.2 878.5 9577.8 871.3 9568.8 863.9 9559.9 856.1 9551.3 848.1 9543 839.8 9535 831.2 9527.2 822.4 9519.8 813.3 9512.6 803.9 9505.8 794.4 9499.3 784.6 9493.1 774.6 9487.3 764.4 9481.8 754.1 9476.6 743.5 9471.8 732.9 9467.4 722 9463.4 711.1 9459.7 700 9456.4 688.8 9453.4 677.5 9450.9 666.2 9448.7 654.7 9447 643.2 9445.6 631.7 9444.6 620.2 9444 608.6 9443.8 269.9 9443.8 M 1592.7 10392.1 1931.4 10663 1931.4 9443.8 M 1592.7 9443.8 2270.1 9443.8" fill="none" stroke-width="203.2"/><path d="M 14040.7 8921 17595.4 8921 17595.4 11399 14040.7 11399" fill="none" stroke-width="120"/><path d="M 17833.6 10724.4 17833.6 9505.2 M 17833.6 10724.4 18172.2 10724.4 18183.8 10724.2 18195.3 10723.6 18206.8 10722.6 18218.3 10721.2 18229.7 10719.5 18241.1 10717.3 18252.4 10714.8 18263.6 10711.8 18274.7 10708.5 18285.6 10704.8 18296.5 10700.8 18307.1 10696.4 18317.7 10691.6 18328 10686.4 18338.2 10680.9 18348.2 10675.1 18358 10668.9 18367.5 10662.4 18376.9 10655.6 18386 10648.4 18394.8 10641 18403.4 10633.2 18411.7 10625.2 18419.7 10616.9 18427.5 10608.3 18434.9 10599.4 18442.1 10590.4 18448.9 10581 18455.4 10571.5 18461.6 10561.7 18467.4 10551.7 18472.9 10541.5 18478.1 10531.2 18482.9 10520.6 18487.3 10510 18491.3 10499.1 18495 10488.2 18498.3 10477.1 18501.3 10465.9 18503.8 10454.6 18506 10443.2 18507.7 10431.8 18509.1 10420.3 18510.1 10408.8 18510.7 10397.3 18510.9 10385.7 18510.9 9843.9 18510.7 9832.3 18510.1 9820.8 18509.1 9809.3 18507.7 9797.8 18506 9786.4 18503.8 9775 18501.3 9763.7 18498.3 9752.5 18495 9741.4 18491.3 9730.5 18487.3 9719.6 18482.9 9709 18478.1 9698.4 18472.9 9688.1 18467.4 9677.9 18461.6 9667.9 18455.4 9658.1 18448.9 9648.6 18442.1 9639.2 18434.9 9630.2 18427.5 9621.3 18419.7 9612.7 18411.7 9604.4 18403.4 9596.4 18394.8 9588.6 18386 9581.2 18376.9 9574 18367.5 9567.2 18358 9560.7 18348.2 9554.5 18338.2 9548.7 18328 9543.2 18317.7 9538 18307.1 9533.2 18296.5 9528.8 18285.6 9524.8 18274.7 9521.1 18263.6 9517.8 18252.4 9514.8 18241.1 9512.3 18229.8 9510.1 18218.3 9508.4 18206.8 9507 18195.3 9506 18183.8 9505.4 18172.2 9505.2 17833.6 9505.2 M 19528.9 10724.4 19539.8 10724.2 19550.6 10723.6 19561.5 10722.7 19572.3 10721.3 19583 10719.6 19593.7 10717.4 19604.3 10714.9 19614.8 10712.1 19625.2 10708.8 19635.4 10705.2 19645.5 10701.2 19655.5 10696.9 19665.3 10692.2 19675 10687.1 19684.4 10681.7 19693.7 10676 19702.7 10670 19711.6 10663.6 19720.2 10656.9 19728.5 10650 19736.6 10642.7 19744.4 10635.1 19752 10627.3 19759.3 10619.2 19766.2 10610.9 19772.9 10602.3 19779.3 10593.4 19785.3 10584.4 19791 10575.1 19796.4 10565.7 19801.5 10556 19806.2 10546.2 19810.5 10536.2 19814.5 10526.1 19818.1 10515.9 19821.4 10505.5 19824.2 10495 19826.7 10484.4 19828.9 10473.7 19830.6 10463 19832 10452.2 19832.9 10441.3 19833.5 10430.5 19833.7 10419.6 M 19528.9 10724.4 19516.6 10724.2 19504.3 10723.6 19492 10722.7 19479.8 10721.3 19467.6 10719.6 19455.5 10717.5 19443.4 10715 19431.4 10712.1 19419.6 10708.8 19407.8 10705.2 19396.2 10701.2 19384.6 10696.9 19373.3 10692.1 19362 10687.1 19351 10681.7 19340.1 10675.9 19329.4 10669.8 19318.9 10663.3 19308.6 10656.6 19298.6 10649.5 19288.7 10642.1 19279.1 10634.4 19269.8 10626.4 19260.7 10618.1 19251.8 10609.5 19243.3 10600.7 19235 10591.6 19227 10582.2 19219.3 10572.6 19211.9 10562.7 19204.9 10552.7 19198.1 10542.4 19191.7 10531.9 19185.6 10521.2 19179.8 10510.3 19174.4 10499.2 19169.4 10488 19164.7 10476.6 19160.3 10465.1 19156.4 10453.5 M 19732.1 10182.5 19740 10190.3 19747.6 10198.3 19754.9 10206.5 19761.9 10215.1 19768.7 10223.8 19775.2 10232.8 19781.3 10241.9 19787.1 10251.3 19792.7 10260.9 19797.8 10270.6 19802.7 10280.6 19807.2 10290.6 19811.4 10300.9 19815.2 10311.2 19818.7 10321.7 19821.8 10332.3 19824.6 10343 19827 10353.8 19829.1 10364.6 19830.7 10375.5 19832 10386.5 19833 10397.5 19833.5 10408.6 19833.7 10419.6 M 19732.1 10182.5 19156.4 9505.2 19833.7 9505.2" fill="none" stroke-width="203.2"/><path d="M 4920 16510 4031 15875 M 4920 16510 6825 15240 6825 13970 6444 13970 6444 12700 M 13556 12700 13556 13970 13175 13970 13175 15240 15080 16510 15969 15875 M 10889 21717 9873 20701 9492 21082 9492 20320 8603 19431 M 10381 20193 11397 21209 M 10381 20193 10762 19812 10000 19812 9111 18923 M 6444 12700 13556 12700 M 15969 13970 15969 15875 M 4031 15875 4031 13970 M 16350 13716 16350 16129 M 3650 16129 3650 13589 M 2380 20320 2382.3 20505.6 2389 20691 2400.3 20876.2 2416.1 21061.1 2436.4 21245.6 2461.2 21429.5 2490.5 21612.7 2524.2 21795.2 2562.3 21976.8 2604.9 22157.4 2651.8 22337 2703.1 22515.3 2758.7 22692.4 2818.6 22868 2882.8 23042.1 2951.2 23214.6 3023.8 23385.4 3100.5 23554.4 3181.3 23721.4 3266.1 23886.4 3355 24049.4 3447.8 24210.1 3544.4 24368.5 3644.9 24524.5 3749.2 24678 3857.2 24828.9 3968.8 24977.1 4084 25122.6 4202.7 25265.3 4324.8 25405 4450.3 25541.7 4579.1 25675.2 4711.2 25805.7 4846.3 25932.8 4984.5 26056.7 5125.7 26177.1 5269.8 26294 5416.6 26407.5 5566.2 26517.3 5718.5 26623.4 5873.2 26725.8 6030.4 26824.4 6190 26919.1 6351.8 27009.9 6515.8 27096.8 6681.9 27179.6 6849.9 27258.4 7019.8 27333 7191.4 27403.5 7364.8 27469.8 7539.7 27531.9 7716 27589.6 7893.7 27643.1 8072.6 27692.2 8252.7 27737 8433.9 27777.3 8615.9 27813.2 8798.8 27844.7 8982.4 27871.7 9166.6 27894.3 9351.3 27912.3 9536.4 27925.9 9721.7 27934.9 9907.2 27939.4 10092.8 27939.4 10278.3 27934.9 10463.6 27925.9 10648.7 27912.3 10833.4 27894.3 11017.6 27871.7 11201.2 27844.7 11384.1 27813.2 11566.1 27777.3 11747.3 27737 11927.4 27692.2 12106.3 27643.1 12284 27589.6 12460.3 27531.9 12635.2 27469.8 12808.6 27403.5 12980.2 27333 13150.1 27258.4 13318.1 27179.6 13484.2 27096.8 13648.2 27009.9 13810 26919.1 13969.6 26824.4 14126.8 26725.8 14281.5 26623.4 14433.8 26517.3 14583.4 26407.5 14730.2 26294 14874.3 26177.1 15015.5 26056.7 15153.7 25932.8 15288.8 25805.7 15420.9 25675.2 15549.7 25541.7 15675.2 25405 15797.3 25265.3 15916 25122.6 16031.2 24977.1 16142.8 24828.9 16250.8 24678 16355.1 24524.5 16455.6 24368.5 16552.2 24210.1 16645 24049.4 16733.9 23886.4 16818.7 23721.4 16899.5 23554.4 16976.2 23385.4 17048.8 23214.6 17117.2 23042.1 17181.4 22868 17241.3 22692.4 17296.9 22515.3 17348.2 22337 17395.1 22157.4 17437.7 21976.8 17475.8 21795.2 17509.5 21612.7 17538.8 21429.5 17563.6 21245.6 17583.9 21061.1 17599.7 20876.2 17611 20691 17617.7 20505.6 17620 20320 17617.7 20133.4 17610.9 19946.8 17599.4 19760.5 17583.4 19574.5 17562.9 19388.9 17537.8 19203.9 17508.2 19019.6 17474.1 18836.1 17435.5 18653.4 17392.4 18471.8 17344.9 18291.2 17293 18111.9 17236.7 17933.9 17176.1 17757.3 17111.2 17582.3 17042 17408.9 16968.5 17237.3 16890.9 17067.5 16809.2 16899.7 16723.3 16733.9 16633.5 16570.2 16539.6 16408.9 16441.8 16249.8 16340.2 16093.2 M 3659.8 16093.2 3558.2 16249.8 3460.4 16408.9 3366.5 16570.2 3276.7 16733.9 3190.8 16899.7 3109.1 17067.5 3031.5 17237.3 2958 17408.9 2888.8 17582.3 2823.9 17757.3 2763.3 17933.9 2707 18111.9 2655.1 18291.2 2607.6 18471.8 2564.5 18653.4 2525.9 18836.1 2491.8 19019.6 2462.2 19203.9 2437.1 19388.9 2416.6 19574.5 2400.6 19760.5 2389.1 19946.8 2382.3 20133.4 2380 20320 M 8196.6 20320 8197.1 20364.3 8198.8 20408.5 8201.5 20452.7 8205.3 20496.8 8210.2 20540.8 8216.1 20584.6 8223.2 20628.3 8231.3 20671.8 8240.4 20715.1 8250.6 20758.2 8261.9 20801 8274.3 20843.5 8287.6 20885.7 8302 20927.5 8317.4 20969 8333.9 21010.1 8351.3 21050.8 8369.7 21091.1 8389.2 21130.8 8409.5 21170.1 8430.9 21208.9 8453.2 21247.1 8476.4 21284.8 8500.5 21321.9 8525.6 21358.4 8551.5 21394.3 8578.3 21429.5 8606 21464.1 8634.4 21497.9 8663.8 21531.1 8693.9 21563.5 8724.8 21595.2 8756.5 21626.1 8788.9 21656.2 8822.1 21685.6 8855.9 21714 8890.5 21741.7 8925.7 21768.5 8961.6 21794.4 8998.1 21819.5 9035.2 21843.6 9072.9 21866.8 9111.1 21889.1 9149.9 21910.5 9189.2 21930.8 9228.9 21950.3 9269.2 21968.7 9309.9 21986.1 9351 22002.6 9392.5 22018 9434.3 22032.4 9476.5 22045.7 9519 22058.1 9561.8 22069.4 9604.9 22079.6 9648.2 22088.7 9691.7 22096.8 9735.4 22103.9 9779.2 22109.8 9823.2 22114.7 9867.3 22118.5 9911.5 22121.2 9955.7 22122.9 10000 22123.4 10044.3 22122.9 10088.5 22121.2 10132.7 22118.5 10176.8 22114.7 10220.8 22109.8 10264.6 22103.9 10308.3 22096.8 10351.8 22088.7 10395.1 22079.6 10438.2 22069.4 10481 22058.1 10523.5 22045.7 10565.7 22032.4 10607.5 22018 10649 22002.6 10690.1 21986.1 10730.8 21968.7 10771.1 21950.3 10810.8 21930.8 10850.1 21910.5 10888.9 21889.1 10927.1 21866.8 10964.8 21843.6 11001.9 21819.5 11038.4 21794.4 11074.3 21768.5 11109.5 21741.7 11144.1 21714 11177.9 21685.6 11211.1 21656.2 11243.5 21626.1 11275.2 21595.2 11306.1 21563.5 11336.2 21531.1 11365.6 21497.9 11394 21464.1 11421.7 21429.5 11448.5 21394.3 11474.4 21358.4 11499.5 21321.9 11523.6 21284.8 11546.8 21247.1 11569.1 21208.9 11590.5 21170.1 11610.8 21130.8 11630.3 21091.1 11648.7 21050.8 11666.1 21010.1 11682.6 20969 11698 20927.5 11712.4 20885.7 11725.7 20843.5 11738.1 20801 11749.4 20758.2 11759.6 20715.1 11768.7 20671.8 11776.8 20628.3 11783.9 20584.6 11789.8 20540.8 11794.7 20496.8 11798.5 20452.7 11801.2 20408.5 11802.9 20364.3 11803.4 20320 11802.9 20275.7 11801.2 20231.5 11798.5 20187.3 11794.7 20143.2 11789.8 20099.2 11783.9 20055.4 11776.8 20011.7 11768.7 19968.2 11759.6 19924.9 11749.4 19881.8 11738.1 19839 11725.7 19796.5 11712.4 19754.3 11698 19712.5 11682.6 19671 11666.1 19629.9 11648.7 19589.2 11630.3 19548.9 11610.8 19509.2 11590.5 19469.9 11569.1 19431.1 11546.8 19392.9 11523.6 19355.2 11499.5 19318.1 11474.4 19281.6 11448.5 19245.7 11421.7 19210.5 11394 19175.9 11365.6 19142.1 11336.2 19108.9 11306.1 19076.5 11275.2 19044.8 11243.5 19013.9 11211.1 18983.8 11177.9 18954.4 11144.1 18926 11109.5 18898.3 11074.3 18871.5 11038.4 18845.6 11001.9 18820.5 10964.8 18796.4 10927.1 18773.2 10888.9 18750.9 10850.1 18729.5 10810.8 18709.2 10771.1 18689.7 10730.8 18671.3 10690.1 18653.9 10649 18637.4 10607.5 18622 10565.7 18607.6 10523.5 18594.3 10481 18581.9 10438.2 18570.6 10395.1 18560.4 10351.8 18551.3 10308.3 18543.2 10264.6 18536.1 10220.8 18530.2 10176.8 18525.3 10132.7 18521.5 10088.5 18518.8 10044.3 18517.1 10000 18516.6 9955.7 18517.1 9911.5 18518.8 9867.3 18521.5 9823.2 18525.3 9779.2 18530.2 9735.4 18536.1 9691.7 18543.2 9648.2 18551.3 9604.9 18560.4 9561.8 18570.6 9519 18581.9 9476.5 18594.3 9434.3 18607.6 9392.5 18622 9351 18637.4 9309.9 18653.9 9269.2 18671.3 9228.9 18689.7 9189.2 18709.2 9149.9 18729.5 9111.1 18750.9 9072.9 18773.2 9035.2 18796.4 8998.1 18820.5 8961.6 18845.6 8925.7 18871.5 8890.5 18898.3 8855.9 18926 8822.1 18954.4 8788.9 18983.8 8756.5 19013.9 8724.8 19044.8 8693.9 19076.5 8663.8 19108.9 8634.4 19142.1 8606 19175.9 8578.3 19210.5 8551.5 19245.7 8525.6 19281.6 8500.5 19318.1 8476.4 19355.2 8453.2 19392.9 8430.9 19431.1 8409.5 19469.9 8389.2 19509.2 8369.7 19548.9 8351.3 19589.2 8333.9 19629.9 8317.4 19671 8302 19712.5 8287.6 19754.3 8274.3 19796.5 8261.9 19839 8250.6 19881.8 8240.4 19924.9 8231.3 19968.2 8223.2 20011.7 8216.1 20055.4 8210.2 20099.2 8205.3 20143.2 8201.5 20187.3 8198.8 20231.5 8197.1 20275.7 8196.6 20320 M 7206 20320 7206.8 20388.6 7209.4 20457.1 7213.6 20525.5 7219.5 20593.9 7227 20662 7236.2 20730 7247.1 20797.7 7259.7 20865.1 7273.9 20932.2 7289.7 20998.9 7307.2 21065.2 7326.3 21131.1 7347 21196.4 7369.3 21261.3 7393.2 21325.5 7418.7 21389.2 7445.7 21452.2 7474.3 21514.6 7504.3 21576.2 7535.9 21637.1 7569 21697.2 7603.5 21756.4 7639.5 21814.8 7676.9 21872.3 7715.7 21928.8 7755.8 21984.4 7797.4 22039 7840.2 22092.5 7884.4 22145 7929.8 22196.3 7976.5 22246.6 8024.3 22295.7 8073.4 22343.5 8123.7 22390.2 8175 22435.6 8227.5 22479.8 8281 22522.6 8335.6 22564.2 8391.2 22604.3 8447.7 22643.1 8505.2 22680.5 8563.6 22716.5 8622.8 22751 8682.9 22784.1 8743.8 22815.7 8805.4 22845.7 8867.8 22874.3 8930.8 22901.3 8994.5 22926.8 9058.7 22950.7 9123.6 22973 9188.9 22993.7 9254.8 23012.8 9321.1 23030.3 9387.8 23046.1 9454.9 23060.3 9522.3 23072.9 9590 23083.8 9658 23093 9726.1 23100.5 9794.5 23106.4 9862.9 23110.6 9931.4 23113.2 10000 23114 10068.6 23113.2 10137.1 23110.6 10205.5 23106.4 10273.9 23100.5 10342 23093 10410 23083.8 10477.7 23072.9 10545.1 23060.3 10612.2 23046.1 10678.9 23030.3 10745.2 23012.8 10811.1 22993.7 10876.4 22973 10941.3 22950.7 11005.5 22926.8 11069.2 22901.3 11132.2 22874.3 11194.6 22845.7 11256.2 22815.7 11317.1 22784.1 11377.2 22751 11436.4 22716.5 11494.8 22680.5 11552.3 22643.1 11608.8 22604.3 11664.4 22564.2 11719 22522.6 11772.5 22479.8 11825 22435.6 11876.3 22390.2 11926.6 22343.5 11975.7 22295.7 12023.5 22246.6 12070.2 22196.3 12115.6 22145 12159.8 22092.5 12202.6 22039 12244.2 21984.4 12284.3 21928.8 12323.1 21872.3 12360.5 21814.8 12396.5 21756.4 12431 21697.2 12464.1 21637.1 12495.7 21576.2 12525.7 21514.6 12554.3 21452.2 12581.3 21389.2 12606.8 21325.5 12630.7 21261.3 12653 21196.4 12673.7 21131.1 12692.8 21065.2 12710.3 20998.9 12726.1 20932.2 12740.3 20865.1 12752.9 20797.7 12763.8 20730 12773 20662 12780.5 20593.9 12786.4 20525.5 12790.6 20457.1 12793.2 20388.6 12794 20320 12793.2 20251.4 12790.6 20182.9 12786.4 20114.5 12780.5 20046.1 12773 19978 12763.8 19910 12752.9 19842.3 12740.3 19774.9 12726.1 19707.8 12710.3 19641.1 12692.8 19574.8 12673.7 19508.9 12653 19443.6 12630.7 19378.7 12606.8 19314.5 12581.3 19250.8 12554.3 19187.8 12525.7 19125.4 12495.7 19063.8 12464.1 19002.9 12431 18942.8 12396.5 18883.6 12360.5 18825.2 12323.1 18767.7 12284.3 18711.2 12244.2 18655.6 12202.6 18601 12159.8 18547.5 12115.6 18495 12070.2 18443.7 12023.5 18393.4 11975.7 18344.3 11926.6 18296.5 11876.3 18249.8 11825 18204.4 11772.5 18160.2 11719 18117.4 11664.4 18075.8 11608.8 18035.7 11552.3 17996.9 11494.8 17959.5 11436.4 17923.5 11377.2 17889 11317.1 17855.9 11256.2 17824.3 11194.6 17794.3 11132.2 17765.7 11069.2 17738.7 11005.5 17713.2 10941.3 17689.3 10876.4 17667 10811.1 17646.3 10745.2 17627.2 10678.9 17609.7 10612.2 17593.9 10545.1 17579.7 10477.7 17567.1 10410 17556.2 10342 17547 10273.9 17539.5 10205.5 17533.6 10137.1 17529.4 10068.6 17526.8 10000 17526 9931.4 17526.8 9862.9 17529.4 9794.5 17533.6 9726.1 17539.5 9658 17547 9590 17556.2 9522.3 17567.1 9454.9 17579.7 9387.8 17593.9 9321.1 17609.7 9254.8 17627.2 9188.9 17646.3 9123.6 17667 9058.7 17689.3 8994.5 17713.2 8930.8 17738.7 8867.8 17765.7 8805.4 17794.3 8743.8 17824.3 8682.9 17855.9 8622.8 17889 8563.6 17923.5 8505.2 17959.5 8447.7 17996.9 8391.2 18035.7 8335.6 18075.8 8281 18117.4 8227.5 18160.2 8175 18204.4 8123.7 18249.8 8073.4 18296.5 8024.3 18344.3 7976.5 18393.4 7929.8 18443.7 7884.4 18495 7840.2 18547.5 7797.4 18601 7755.8 18655.6 7715.7 18711.2 7676.9 18767.7 7639.5 18825.2 7603.5 18883.6 7569 18942.8 7535.9 19002.9 7504.3 19063.8 7474.3 19125.4 7445.7 19187.8 7418.7 19250.8 7393.2 19314.5 7369.3 19378.7 7347 19443.6 7326.3 19508.9 7307.2 19574.8 7289.7 19641.1 7273.9 19707.8 7259.7 19774.9 7247.1 19842.3 7236.2 19910 7227 19978 7219.5 20046.1 7213.6 20114.5 7209.4 20182.9 7206.8 20251.4 7206 20320" fill="none" stroke-width="152.4"/><path d="M 17721.6 18592.8 17721.6 17373.6 M 17721.6 18592.8 18060.3 18592.8 18071.9 18592.6 18083.4 18592 18094.9 18591 18106.4 18589.6 18117.8 18587.9 18129.2 18585.7 18140.5 18583.2 18151.7 18580.2 18162.8 18576.9 18173.7 18573.2 18184.6 18569.2 18195.2 18564.8 18205.8 18560 18216.1 18554.8 18226.3 18549.3 18236.3 18543.5 18246.1 18537.3 18255.6 18530.8 18265 18524 18274 18516.8 18282.9 18509.4 18291.5 18501.6 18299.8 18493.6 18307.8 18485.3 18315.6 18476.7 18323 18467.8 18330.2 18458.8 18337 18449.4 18343.5 18439.9 18349.7 18430.1 18355.5 18420.1 18361 18409.9 18366.2 18399.6 18371 18389 18375.4 18378.4 18379.4 18367.5 18383.1 18356.6 18386.4 18345.5 18389.4 18334.3 18391.9 18323 18394.1 18311.6 18395.8 18300.2 18397.2 18288.7 18398.2 18277.2 18398.8 18265.7 18399 18254.1 18398.8 18242.5 18398.2 18231 18397.2 18219.5 18395.8 18208 18394.1 18196.6 18391.9 18185.2 18389.4 18173.9 18386.4 18162.7 18383.1 18151.6 18379.4 18140.7 18375.4 18129.8 18371 18119.2 18366.2 18108.6 18361 18098.3 18355.5 18088.1 18349.7 18078.1 18343.5 18068.3 18337 18058.8 18330.2 18049.4 18323 18040.4 18315.6 18031.5 18307.8 18022.9 18299.8 18014.6 18291.5 18006.6 18282.9 17998.8 18274 17991.4 18265 17984.2 18255.6 17977.4 18246.1 17970.9 18236.3 17964.7 18226.3 17958.9 18216.1 17953.4 18205.8 17948.2 18195.2 17943.4 18184.6 17939 18173.7 17935 18162.8 17931.3 18151.7 17928 18140.5 17925 18129.2 17922.5 18117.8 17920.3 18106.4 17918.6 18094.9 17917.2 18083.4 17916.2 18071.9 17915.6 18060.3 17915.4 M 18060.3 17915.5 17721.6 17915.5 M 18128 17915.5 18398.9 17373.6 M 18990.3 17373.6 19328.9 17373.6 19340.5 17373.8 19352 17374.4 19363.5 17375.4 19375 17376.8 19386.4 17378.5 19397.8 17380.7 19409.1 17383.2 19420.3 17386.2 19431.4 17389.5 19442.3 17393.2 19453.2 17397.2 19463.8 17401.6 19474.4 17406.4 19484.7 17411.6 19494.9 17417.1 19504.9 17422.9 19514.7 17429.1 19524.2 17435.6 19533.6 17442.4 19542.6 17449.6 19551.5 17457 19560.1 17464.8 19568.4 17472.8 19576.4 17481.1 19584.2 17489.7 19591.6 17498.6 19598.8 17507.6 19605.6 17517 19612.1 17526.5 19618.3 17536.3 19624.1 17546.3 19629.6 17556.5 19634.8 17566.8 19639.6 17577.4 19644 17588 19648 17598.9 19651.7 17609.8 19655 17620.9 19658 17632.1 19660.5 17643.4 19662.7 17654.8 19664.4 17666.2 19665.8 17677.7 19666.8 17689.2 19667.4 17700.7 19667.6 17712.3 19667.4 17723.9 19666.8 17735.4 19665.8 17746.9 19664.4 17758.4 19662.7 17769.8 19660.5 17781.2 19658 17792.5 19655 17803.7 19651.7 17814.8 19648 17825.7 19644 17836.6 19639.6 17847.2 19634.8 17857.8 19629.6 17868.1 19624.1 17878.3 19618.3 17888.3 19612.1 17898.1 19605.6 17907.6 19598.8 17917 19591.6 17926 19584.2 17934.9 19576.4 17943.5 19568.4 17951.8 19560.1 17959.8 19551.5 17967.6 19542.6 17975 19533.6 17982.2 19524.2 17989 19514.7 17995.5 19504.9 18001.7 19494.9 18007.5 19484.7 18013 19474.4 18018.2 19463.8 18023 19453.2 18027.4 19442.3 18031.4 19431.4 18035.1 19420.3 18038.4 19409.1 18041.4 19397.8 18043.9 19386.4 18046.1 19375 18047.8 19363.5 18049.2 19352 18050.2 19340.5 18050.8 19328.9 18051 M 19396.7 18592.8 18990.3 18592.8 M 19396.7 18592.8 19407 18592.6 19417.2 18592 19427.4 18591.1 19437.6 18589.7 19447.7 18588 19457.7 18585.8 19467.6 18583.3 19477.5 18580.5 19487.2 18577.2 19496.8 18573.6 19506.3 18569.7 19515.6 18565.3 19524.7 18560.7 19533.6 18555.6 19542.4 18550.3 19550.9 18544.6 19559.2 18538.6 19567.3 18532.3 19575.2 18525.7 19582.7 18518.8 19590.1 18511.6 19597.1 18504.2 19603.9 18496.5 19610.3 18488.5 19616.5 18480.3 19622.3 18471.9 19627.8 18463.2 19633 18454.4 19637.8 18445.3 19642.3 18436.1 19646.5 18426.8 19650.3 18417.2 19653.7 18407.6 19656.8 18397.8 19659.4 18387.9 19661.8 18377.9 19663.7 18367.8 19665.2 18357.7 19666.4 18347.5 19667.2 18337.3 19667.6 18327 19667.6 18316.8 19667.2 18306.5 19666.4 18296.3 19665.2 18286.1 19663.7 18276 19661.8 18265.9 19659.4 18255.9 19656.8 18246 19653.7 18236.2 19650.3 18226.6 19646.5 18217 19642.3 18207.7 19637.8 18198.5 19633 18189.4 19627.8 18180.6 19622.3 18171.9 19616.5 18163.5 19610.3 18155.3 19603.9 18147.3 19597.1 18139.6 19590.1 18132.2 19582.7 18125 19575.2 18118.1 19567.3 18111.5 19559.2 18105.2 19550.9 18099.2 19542.4 18093.5 19533.6 18088.2 19524.7 18083.1 19515.6 18078.5 19506.3 18074.1 19496.8 18070.2 19487.2 18066.6 19477.5 18063.3 19467.6 18060.5 19457.7 18058 19447.7 18055.8 19437.6 18054.1 19427.4 18052.7 19417.2 18051.8 19407 18051.2 19396.7 18051 M 19396.7 18050.9 19125.7 18050.9" fill="none" stroke-width="203.2"/><path d="M 14066.4 635 11526.4 635 11526.4 -1905 14066.4 -1905 14066.4 635" fill="none" stroke-width="152.4"/><path d="M 12796.4 -2540 12796.4 -8255" fill="none" stroke-width="762"/><path d="M 11526.4 635 8986.4 635 8986.4 -1905 11526.4 -1905" fill="none" stroke-width="152.4"/><path d="M 10256.4 -2540 10256.4 -8255" fill="none" stroke-width="762"/><path d="M 8986.4 635 6446.4 635 6446.4 -1905 8986.4 -1905" fill="none" stroke-width="152.4"/><path d="M 7716.4 -2540 7716.4 -8255" fill="none" stroke-width="762"/><use xlink:href="#PguhyUk4YdoCSRjrX8Do_pad-18" x="12796.4" y="-2159"/><use xlink:href="#PguhyUk4YdoCSRjrX8Do_pad-18" x="10256.4" y="-2159"/><use xlink:href="#PguhyUk4YdoCSRjrX8Do_pad-18" x="7716.4" y="-2159"/><use xlink:href="#PguhyUk4YdoCSRjrX8Do_pad-19" x="12796.4" y="1143"/><use xlink:href="#PguhyUk4YdoCSRjrX8Do_pad-19" x="10256.4" y="1143"/><use xlink:href="#PguhyUk4YdoCSRjrX8Do_pad-19" x="7716.4" y="1143"/><path d="M 14478 1103.9 14478 2052.2 M 14478 1103.9 14477.8 1093.8 14477.2 1083.7 14476.3 1073.6 14475 1063.5 14473.3 1053.5 14471.2 1043.6 14468.8 1033.8 14466 1024.1 14462.8 1014.4 14459.3 1004.9 14455.4 995.6 14451.2 986.4 14446.6 977.3 14441.7 968.4 14436.5 959.8 14430.9 951.3 14425.1 943 14418.9 935 14412.4 927.2 14405.7 919.6 14398.7 912.3 14391.4 905.3 14383.8 898.6 14376 892.1 14368 885.9 14359.7 880.1 14351.2 874.5 14342.6 869.3 14333.7 864.4 14324.6 859.8 14315.4 855.6 14306.1 851.7 14296.6 848.2 14286.9 845 14277.2 842.2 14267.4 839.8 14257.5 837.7 14247.5 836 14237.4 834.7 14227.3 833.8 14217.2 833.2 14207.1 833 14071.6 833 M 15185.3 833 15185.3 2052.2 15524 2052.2 15535.6 2052 15547.1 2051.4 15558.6 2050.4 15570.1 2049 15581.5 2047.3 15592.9 2045.1 15604.2 2042.6 15615.4 2039.6 15626.5 2036.3 15637.4 2032.6 15648.3 2028.6 15658.9 2024.2 15669.5 2019.4 15679.8 2014.2 15690 2008.7 15700 2002.9 15709.8 1996.7 15719.3 1990.2 15728.7 1983.4 15737.7 1976.2 15746.6 1968.8 15755.2 1961 15763.5 1953 15771.5 1944.7 15779.3 1936.1 15786.7 1927.2 15793.9 1918.2 15800.7 1908.8 15807.2 1899.3 15813.4 1889.5 15819.2 1879.5 15824.7 1869.3 15829.9 1859 15834.7 1848.4 15839.1 1837.8 15843.1 1826.9 15846.8 1816 15850.1 1804.9 15853.1 1793.7 15855.6 1782.4 15857.8 1771 15859.5 1759.6 15860.9 1748.1 15861.9 1736.6 15862.5 1725.1 15862.7 1713.5 15862.5 1701.9 15861.9 1690.4 15860.9 1678.9 15859.5 1667.4 15857.8 1656 15855.6 1644.6 15853.1 1633.3 15850.1 1622.1 15846.8 1611 15843.1 1600.1 15839.1 1589.2 15834.7 1578.6 15829.9 1568 15824.7 1557.7 15819.2 1547.5 15813.4 1537.5 15807.2 1527.7 15800.7 1518.2 15793.9 1508.8 15786.7 1499.8 15779.3 1490.9 15771.5 1482.3 15763.5 1474 15755.2 1466 15746.6 1458.2 15737.7 1450.8 15728.7 1443.6 15719.3 1436.8 15709.8 1430.3 15700 1424.1 15690 1418.3 15679.8 1412.8 15669.5 1407.6 15658.9 1402.8 15648.3 1398.4 15637.4 1394.4 15626.5 1390.7 15615.4 1387.4 15604.2 1384.4 15592.9 1381.9 15581.5 1379.7 15570.1 1378 15558.6 1376.6 15547.1 1375.6 15535.6 1375 15524 1374.8 M 15524 1374.9 15185.3 1374.9 M 16396.4 1781.3 16735.1 2052.2 16735.1 833 M 17073.7 833 16396.4 833 M 10261.6 49870.3 10261.6 50750.8 M 10261.6 49870.3 10261.8 49858.7 10262.4 49847.2 10263.4 49835.7 10264.8 49824.2 10266.5 49812.8 10268.7 49801.4 10271.2 49790.1 10274.2 49778.9 10277.5 49767.8 10281.2 49756.9 10285.2 49746 10289.6 49735.4 10294.4 49724.8 10299.6 49714.5 10305.1 49704.3 10310.9 49694.3 10317.1 49684.5 10323.6 49675 10330.4 49665.6 10337.6 49656.6 10345 49647.7 10352.8 49639.1 10360.8 49630.8 10369.1 49622.8 10377.7 49615 10386.6 49607.6 10395.6 49600.4 10405 49593.6 10414.5 49587.1 10424.3 49580.9 10434.3 49575.1 10444.5 49569.6 10454.8 49564.4 10465.4 49559.6 10476 49555.2 10486.9 49551.2 10497.8 49547.5 10508.9 49544.2 10520.1 49541.2 10531.4 49538.7 10542.8 49536.5 10554.2 49534.8 10565.7 49533.4 10577.2 49532.4 10588.7 49531.8 10600.3 49531.6 10611.9 49531.8 10623.4 49532.4 10634.9 49533.4 10646.4 49534.8 10657.8 49536.5 10669.2 49538.7 10680.5 49541.2 10691.7 49544.2 10702.8 49547.5 10713.7 49551.2 10724.6 49555.2 10735.2 49559.6 10745.8 49564.4 10756.1 49569.6 10766.3 49575.1 10776.3 49580.9 10786.1 49587.1 10795.6 49593.6 10805 49600.4 10814 49607.6 10822.9 49615 10831.5 49622.8 10839.8 49630.8 10847.8 49639.1 10855.6 49647.7 10863 49656.6 10870.2 49665.6 10877 49675 10883.5 49684.5 10889.7 49694.3 10895.5 49704.3 10901 49714.5 10906.2 49724.8 10911 49735.4 10915.4 49746 10919.4 49756.9 10923.1 49767.8 10926.4 49778.9 10929.4 49790.1 10931.9 49801.4 10934.1 49812.8 10935.8 49824.2 10937.2 49835.7 10938.2 49847.2 10938.8 49858.7 10939 49870.3 M 10938.9 49870.3 10938.9 50750.8 M 11837.8 50750.8 11837.8 49531.6 M 11837.8 50141.2 11668.4 50242.8 11660.9 50247.6 11653.6 50252.7 11646.5 50258 11639.6 50263.7 11633.1 50269.7 11626.7 50276 11620.7 50282.6 11615 50289.4 11609.5 50296.4 11604.4 50303.7 11599.6 50311.2 11595.2 50318.9 11591.1 50326.8 11587.3 50334.9 11583.9 50343.1 11580.9 50351.5 11578.2 50360 11575.9 50368.6 11574 50377.3 11572.5 50386 11571.3 50394.9 11570.6 50403.7 11570.2 50412.6 11570.3 50421.5 11570.7 50430.4 11571.5 50439.3 11572.7 50448.1 11574.3 50456.9 11576.3 50465.5 11578.6 50474.1 11581.4 50482.6 11584.5 50490.9 11587.9 50499.1 11591.8 50507.2 11595.9 50515 11600.4 50522.7 11605.3 50530.2 11610.5 50537.4 11616 50544.4 11621.7 50551.2 11627.8 50557.7 11634.2 50563.9 11640.8 50569.9 11647.7 50575.5 11654.8 50580.9 11662.2 50585.9 11669.7 50590.6 11677.5 50594.9 11685.5 50598.9 11693.6 50602.6 11701.8 50605.9 11710.3 50608.8 11718.8 50611.3 11727.4 50613.5 11736.1 50615.3 M 11736.1 50615.4 11750.3 50617.7 11764.5 50619.8 11778.7 50621.4 11793 50622.6 11807.3 50623.5 11821.6 50624 11835.9 50624.1 11850.3 50623.8 11864.6 50623.1 11878.9 50622.1 11893.1 50620.7 11907.4 50618.9 11921.5 50616.7 11935.6 50614.1 11949.7 50611.2 11963.6 50607.9 11977.5 50604.2 11991.2 50600.1 12004.8 50595.7 12018.3 50590.9 12031.7 50585.8 12045 50580.3 12058 50574.4 12071 50568.2 12083.7 50561.7 12096.3 50554.8 12108.7 50547.6 M 11837.8 50141.2 12007.1 50039.6 12014.6 50034.8 12021.9 50029.8 12029 50024.4 12035.9 50018.7 12042.4 50012.7 12048.7 50006.4 12054.8 49999.8 12060.5 49993 12065.9 49986 12071.1 49978.7 12075.9 49971.2 12080.3 49963.5 12084.4 49955.6 12088.2 49947.5 12091.6 49939.3 12094.6 49930.9 12097.3 49922.4 12099.6 49913.8 12101.5 49905.1 12103 49896.4 12104.2 49887.5 12104.9 49878.7 12105.3 49869.8 12105.2 49860.9 12104.8 49852 12104 49843.1 12102.8 49834.3 12101.2 49825.5 12099.2 49816.9 12096.9 49808.3 12094.1 49799.8 12091 49791.5 12087.6 49783.3 12083.7 49775.2 12079.6 49767.4 12075 49759.7 12070.2 49752.2 12065 49745 12059.5 49738 12053.8 49731.2 12047.7 49724.7 12041.3 49718.5 12034.7 49712.5 12027.8 49706.9 12020.7 49701.5 12013.3 49696.5 12005.8 49691.8 11998 49687.5 11990 49683.5 11981.9 49679.8 11973.6 49676.5 11965.2 49673.6 11956.7 49671.1 11948.1 49668.9 11939.4 49667.1 M 11939.3 49667 11925.2 49664.7 11911 49662.6 11896.8 49661 11882.5 49659.8 11868.2 49658.9 11853.9 49658.4 11839.5 49658.3 11825.2 49658.6 11810.9 49659.3 11796.6 49660.3 11782.3 49661.7 11768.1 49663.5 11754 49665.7 11739.9 49668.3 11725.8 49671.2 11711.9 49674.5 11698 49678.2 11684.3 49682.3 11670.7 49686.7 11657.2 49691.5 11643.8 49696.6 11630.5 49702.1 11617.5 49708 11604.5 49714.2 11591.8 49720.7 11579.2 49727.6 11566.8 49734.8 M 12693.9 50479.9 13032.6 50750.8 13032.6 49531.6 M 13371.2 49531.6 12693.9 49531.6" fill="none" stroke-width="203.2"/><use xlink:href="#PguhyUk4YdoCSRjrX8Do_pad-20" x="16360" y="5750"/><use xlink:href="#PguhyUk4YdoCSRjrX8Do_pad-20" x="16360" y="6950"/><use xlink:href="#PguhyUk4YdoCSRjrX8Do_pad-21" x="16360" y="6350"/><path d="M 14732.8 4978.4 14732.8 3759.2 15274.7 3759.2 M 15842.3 3759.2 16384.2 3759.2 M 15842.3 3759.2 15842.3 4978.4 16384.2 4978.4 M 16248.7 4436.5 15842.3 4436.5 M 16948.2 4978.4 16948.2 3759.2 M 16948.2 4978.4 17286.9 4978.4 17298.5 4978.2 17310 4977.6 17321.5 4976.6 17333 4975.2 17344.4 4973.5 17355.8 4971.3 17367.1 4968.8 17378.3 4965.8 17389.4 4962.5 17400.3 4958.8 17411.2 4954.8 17421.8 4950.4 17432.4 4945.6 17442.7 4940.4 17452.9 4934.9 17462.9 4929.1 17472.7 4922.9 17482.2 4916.4 17491.6 4909.6 17500.7 4902.4 17509.5 4895 17518.1 4887.2 17526.4 4879.2 17534.4 4870.9 17542.2 4862.3 17549.6 4853.4 17556.8 4844.4 17563.6 4835 17570.1 4825.5 17576.3 4815.7 17582.1 4805.7 17587.6 4795.5 17592.8 4785.2 17597.6 4774.6 17602 4764 17606 4753.1 17609.7 4742.2 17613 4731.1 17616 4719.9 17618.5 4708.6 17620.7 4697.2 17622.4 4685.8 17623.8 4674.3 17624.8 4662.8 17625.4 4651.3 17625.6 4639.7 17625.6 4097.9 17625.4 4086.3 17624.8 4074.8 17623.8 4063.3 17622.4 4051.8 17620.7 4040.4 17618.5 4029 17616 4017.7 17613 4006.5 17609.7 3995.4 17606 3984.5 17602 3973.6 17597.6 3963 17592.8 3952.4 17587.6 3942.1 17582.1 3931.9 17576.3 3921.9 17570.1 3912.1 17563.6 3902.6 17556.8 3893.2 17549.6 3884.2 17542.2 3875.3 17534.4 3866.7 17526.4 3858.4 17518.1 3850.4 17509.5 3842.6 17500.7 3835.2 17491.6 3828 17482.2 3821.2 17472.7 3814.7 17462.9 3808.5 17452.9 3802.7 17442.7 3797.2 17432.4 3792 17421.8 3787.2 17411.2 3782.8 17400.3 3778.8 17389.4 3775.1 17378.3 3771.8 17367.1 3768.8 17355.8 3766.3 17344.5 3764.1 17333 3762.4 17321.5 3761 17310 3760 17298.5 3759.4 17286.9 3759.2 16948.2 3759.2 M 18271.1 4707.5 18609.7 4978.4 18609.7 3759.2 M 18271.1 3759.2 18948.4 3759.2 M 8751.6 6331.6 8751.6 7550.8 9090.3 7550.8 9101.9 7550.6 9113.4 7550 9124.9 7549 9136.4 7547.6 9147.8 7545.9 9159.2 7543.7 9170.5 7541.2 9181.7 7538.2 9192.8 7534.9 9203.7 7531.2 9214.6 7527.2 9225.2 7522.8 9235.8 7518 9246.1 7512.8 9256.3 7507.3 9266.3 7501.5 9276.1 7495.3 9285.6 7488.8 9295 7482 9304 7474.8 9312.9 7467.4 9321.5 7459.6 9329.8 7451.6 9337.8 7443.3 9345.6 7434.7 9353 7425.8 9360.2 7416.8 9367 7407.4 9373.5 7397.9 9379.7 7388.1 9385.5 7378.1 9391 7367.9 9396.2 7357.6 9401 7347 9405.4 7336.4 9409.4 7325.5 9413.1 7314.6 9416.4 7303.5 9419.4 7292.3 9421.9 7281 9424.1 7269.6 9425.8 7258.2 9427.2 7246.7 9428.2 7235.2 9428.8 7223.7 9429 7212.1 9428.8 7200.5 9428.2 7189 9427.2 7177.5 9425.8 7166 9424.1 7154.6 9421.9 7143.2 9419.4 7131.9 9416.4 7120.7 9413.1 7109.6 9409.4 7098.7 9405.4 7087.8 9401 7077.2 9396.2 7066.6 9391 7056.3 9385.5 7046.1 9379.7 7036.1 9373.5 7026.3 9367 7016.8 9360.2 7007.4 9353 6998.4 9345.6 6989.5 9337.8 6980.9 9329.8 6972.6 9321.5 6964.6 9312.9 6956.8 9304 6949.4 9295 6942.2 9285.6 6935.4 9276.1 6928.9 9266.3 6922.7 9256.3 6916.9 9246.1 6911.4 9235.8 6906.2 9225.2 6901.4 9214.6 6897 9203.7 6893 9192.8 6889.3 9181.7 6886 9170.5 6883 9159.2 6880.5 9147.8 6878.3 9136.4 6876.6 9124.9 6875.2 9113.4 6874.2 9101.9 6873.6 9090.3 6873.4 M 9090.3 6873.5 8751.6 6873.5 M 9158 6873.5 9428.9 6331.6 M 10020.3 6602.5 10291.2 7550.8 M 10020.3 6602.5 10697.6 6602.5 M 10494.4 6331.6 10494.4 6873.5" fill="none" stroke-width="203.2"/><path d="M 0 0 20320 0 20320 52540 16163.9 52540 16163.9 65929 4162.3 65929 4162.3 52540 0 52540 0 0" fill="none" stroke-width="254"/></g></svg>