<svg version="1.1" xmlns="http://www.w3.org/2000/svg" xmlns:xlink="http://www.w3.org/1999/xlink" stroke-linecap="round" stroke-linejoin="round" stroke-width="0" fill-rule="evenodd" width="20.574mm" height="72.152mm" viewBox="-127 -8636 20574 72152" id="QmVb6uGUDceyTnwR7K_T"><defs><circle cx="0" cy="0" r="250" id="QmVb6uGUDceyTnwR7K_T_pad-11"/><rect x="-381" y="-254" width="762" height="508" id="QmVb6uGUDceyTnwR7K_T_pad-17"/><rect x="-381" y="-508" width="762" height="1016" id="QmVb6uGUDceyTnwR7K_T_pad-18"/></defs><g transform="translate(0,54880) scale(1,-1)" fill="currentColor" stroke="currentColor"><path d="M 4450.5 2300.1 5889.8 2300.1" fill="none" stroke-width="381"/><use xlink:href="#QmVb6uGUDceyTnwR7K_T_pad-11" x="4673" y="38100"/><path d="M 6700 39047 6700 39370 13300 39370 13300 39047 M 6700 29533 6700 29210 13300 29210 13300 29533" fill="none" stroke-width="120"/><path d="M 8852.9 40106.6 8852.9 41325.8 M 8717.5 40106.6 8988.4 40106.6 M 8988.4 41325.8 8717.5 41325.8 M 9804.2 40106.6 10075.1 40106.6 M 9804.2 40106.6 9794.1 40106.8 9784 40107.4 9773.9 40108.3 9763.8 40109.6 9753.8 40111.3 9743.9 40113.4 9734.1 40115.8 9724.4 40118.6 9714.7 40121.8 9705.2 40125.3 9695.9 40129.2 9686.7 40133.4 9677.6 40138 9668.8 40142.9 9660.1 40148.1 9651.6 40153.7 9643.3 40159.5 9635.3 40165.7 9627.5 40172.2 9619.9 40178.9 9612.6 40185.9 9605.6 40193.2 9598.9 40200.8 9592.4 40208.6 9586.2 40216.6 9580.4 40224.9 9574.8 40233.4 9569.6 40242.1 9564.7 40250.9 9560.1 40260 9555.9 40269.2 9552 40278.5 9548.5 40288 9545.3 40297.7 9542.5 40307.4 9540.1 40317.2 9538 40327.1 9536.3 40337.1 9535 40347.2 9534.1 40357.3 9533.5 40367.4 9533.3 40377.5 M 9533.2 40377.5 9533.2 41054.9 M 9533.3 41054.9 9533.5 41065.3 9534.1 41075.6 9535.1 41086 9536.5 41096.3 9538.3 41106.5 9540.4 41116.6 9543 41126.7 9545.9 41136.6 9549.2 41146.5 9552.9 41156.2 9557 41165.7 9561.4 41175.1 9566.2 41184.3 9571.3 41193.3 9576.8 41202.2 9582.6 41210.8 9588.8 41219.1 9595.2 41227.3 9602 41235.1 9609 41242.7 9616.3 41250.1 9624 41257.1 9631.8 41263.9 9640 41270.3 9648.3 41276.5 9656.9 41282.3 9665.8 41287.8 9674.8 41292.9 9684 41297.7 9693.4 41302.1 9702.9 41306.2 9712.6 41309.9 9722.5 41313.2 9732.4 41316.1 9742.5 41318.7 9752.6 41320.8 9762.8 41322.6 9773.1 41324 9783.5 41325 9793.8 41325.6 9804.2 41325.8 10075.1 41325.8 M 10605.2 41054.9 10943.9 41325.8 10943.9 40106.6 M 11282.5 40106.6 10605.2 40106.6 M 16850.6 38150.8 16850.6 36931.6 M 16850.6 38150.8 17189.3 38150.8 17200.9 38150.6 17212.4 38150 17223.9 38149 17235.4 38147.6 17246.8 38145.9 17258.2 38143.7 17269.5 38141.2 17280.7 38138.2 17291.8 38134.9 17302.7 38131.2 17313.6 38127.2 17324.2 38122.8 17334.8 38118 17345.1 38112.8 17355.3 38107.3 17365.3 38101.5 17375.1 38095.3 17384.6 38088.8 17394 38082 17403 38074.8 17411.9 38067.4 17420.5 38059.6 17428.8 38051.6 17436.8 38043.3 17444.6 38034.7 17452 38025.8 17459.2 38016.8 17466 38007.4 17472.5 37997.9 17478.7 37988.1 17484.5 37978.1 17490 37967.9 17495.2 37957.6 17500 37947 17504.4 37936.4 17508.4 37925.5 17512.1 37914.6 17515.4 37903.5 17518.4 37892.3 17520.9 37881 17523.1 37869.6 17524.8 37858.2 17526.2 37846.7 17527.2 37835.2 17527.8 37823.7 17528 37812.1 17527.8 37800.5 17527.2 37789 17526.2 37777.5 17524.8 37766 17523.1 37754.6 17520.9 37743.2 17518.4 37731.9 17515.4 37720.7 17512.1 37709.6 17508.4 37698.7 17504.4 37687.8 17500 37677.2 17495.2 37666.6 17490 37656.3 17484.5 37646.1 17478.7 37636.1 17472.5 37626.3 17466 37616.8 17459.2 37607.4 17452 37598.4 17444.6 37589.5 17436.8 37580.9 17428.8 37572.6 17420.5 37564.6 17411.9 37556.8 17403 37549.4 17394 37542.2 17384.6 37535.4 17375.1 37528.9 17365.3 37522.7 17355.3 37516.9 17345.1 37511.4 17334.8 37506.2 17324.2 37501.4 17313.6 37497 17302.7 37493 17291.8 37489.3 17280.7 37486 17269.5 37483 17258.2 37480.5 17246.8 37478.3 17235.4 37476.6 17223.9 37475.2 17212.4 37474.2 17200.9 37473.6 17189.3 37473.4 M 17189.3 37473.5 16850.6 37473.5 M 17257 37473.5 17527.9 36931.6 M 18119.3 37879.9 18457.9 38150.8 18457.9 36931.6 M 18119.3 36931.6 18796.6 36931.6 M 8747.4 6248.4 8747.4 5029.2 M 8747.4 6248.4 9086.1 6248.4 9097.7 6248.2 9109.2 6247.6 9120.7 6246.6 9132.2 6245.2 9143.6 6243.5 9155 6241.3 9166.3 6238.8 9177.5 6235.8 9188.6 6232.5 9199.5 6228.8 9210.4 6224.8 9221 6220.4 9231.6 6215.6 9241.9 6210.4 9252.1 6204.9 9262.1 6199.1 9271.9 6192.9 9281.4 6186.4 9290.8 6179.6 9299.8 6172.4 9308.7 6165 9317.3 6157.2 9325.6 6149.2 9333.6 6140.9 9341.4 6132.3 9348.8 6123.4 9356 6114.4 9362.8 6105 9369.3 6095.5 9375.5 6085.7 9381.3 6075.7 9386.8 6065.5 9392 6055.2 9396.8 6044.6 9401.2 6034 9405.2 6023.1 9408.9 6012.2 9412.2 6001.1 9415.2 5989.9 9417.7 5978.6 9419.9 5967.2 9421.6 5955.8 9423 5944.3 9424 5932.8 9424.6 5921.3 9424.8 5909.7 9424.6 5898.1 9424 5886.6 9423 5875.1 9421.6 5863.6 9419.9 5852.2 9417.7 5840.8 9415.2 5829.5 9412.2 5818.3 9408.9 5807.2 9405.2 5796.3 9401.2 5785.4 9396.8 5774.8 9392 5764.2 9386.8 5753.9 9381.3 5743.7 9375.5 5733.7 9369.3 5723.9 9362.8 5714.4 9356 5705 9348.8 5696 9341.4 5687.1 9333.6 5678.5 9325.6 5670.2 9317.3 5662.2 9308.7 5654.4 9299.8 5647 9290.8 5639.8 9281.4 5633 9271.9 5626.5 9262.1 5620.3 9252.1 5614.5 9241.9 5609 9231.6 5603.8 9221 5599 9210.4 5594.6 9199.5 5590.6 9188.6 5586.9 9177.5 5583.6 9166.3 5580.6 9155 5578.1 9143.6 5575.9 9132.2 5574.2 9120.7 5572.8 9109.2 5571.8 9097.7 5571.2 9086.1 5571 M 9086.1 5571.1 8747.4 5571.1 M 9153.8 5571.1 9424.7 5029.2 M 10388.6 6248.4 10399.5 6248.2 10410.3 6247.6 10421.2 6246.7 10432 6245.3 10442.7 6243.6 10453.4 6241.4 10464 6238.9 10474.5 6236.1 10484.9 6232.8 10495.1 6229.2 10505.2 6225.2 10515.2 6220.9 10525 6216.2 10534.7 6211.1 10544.1 6205.7 10553.4 6200 10562.4 6194 10571.3 6187.6 10579.9 6180.9 10588.2 6174 10596.3 6166.7 10604.1 6159.1 10611.7 6151.3 10619 6143.2 10625.9 6134.9 10632.6 6126.3 10639 6117.4 10645 6108.4 10650.7 6099.1 10656.1 6089.7 10661.2 6080 10665.9 6070.2 10670.2 6060.2 10674.2 6050.1 10677.8 6039.9 10681.1 6029.5 10683.9 6019 10686.4 6008.4 10688.6 5997.7 10690.3 5987 10691.7 5976.2 10692.6 5965.3 10693.2 5954.5 10693.4 5943.6 M 10388.6 6248.4 10376.3 6248.2 10364 6247.6 10351.7 6246.7 10339.5 6245.3 10327.3 6243.6 10315.2 6241.5 10303.1 6239 10291.1 6236.1 10279.3 6232.8 10267.5 6229.2 10255.9 6225.2 10244.3 6220.9 10233 6216.1 10221.7 6211.1 10210.7 6205.7 10199.8 6199.9 10189.1 6193.8 10178.6 6187.3 10168.3 6180.6 10158.3 6173.5 10148.4 6166.1 10138.8 6158.4 10129.5 6150.4 10120.4 6142.1 10111.5 6133.5 10103 6124.7 10094.7 6115.6 10086.7 6106.2 10079 6096.6 10071.6 6086.7 10064.6 6076.7 10057.8 6066.4 10051.4 6055.9 10045.3 6045.2 10039.5 6034.3 10034.1 6023.2 10029.1 6012 10024.4 6000.6 10020 5989.1 10016.1 5977.5 M 10591.8 5706.5 10599.7 5714.3 10607.3 5722.3 10614.6 5730.5 10621.6 5739.1 10628.4 5747.8 10634.9 5756.8 10641 5765.9 10646.8 5775.3 10652.4 5784.9 10657.5 5794.6 10662.4 5804.6 10666.9 5814.6 10671.1 5824.9 10674.9 5835.2 10678.4 5845.7 10681.5 5856.3 10684.3 5867 10686.7 5877.8 10688.8 5888.6 10690.4 5899.5 10691.7 5910.5 10692.7 5921.5 10693.2 5932.6 10693.4 5943.6 M 10591.8 5706.5 10016.1 5029.2 10693.4 5029.2" fill="none" stroke-width="203.2"/><path d="M 12870 26446.7 15070 26446.7 M 15070 24353.3 12870 24353.3" fill="none" stroke-width="127"/><path d="M 13366.3 27183.3 13637.2 27183.3 M 13366.3 27183.3 13356.2 27183.5 13346.1 27184.1 13336 27185 13325.9 27186.3 13315.9 27188 13306 27190.1 13296.2 27192.5 13286.5 27195.3 13276.8 27198.5 13267.3 27202 13258 27205.9 13248.8 27210.1 13239.7 27214.7 13230.9 27219.6 13222.2 27224.8 13213.7 27230.4 13205.4 27236.2 13197.4 27242.4 13189.6 27248.9 13182 27255.6 13174.7 27262.6 13167.7 27269.9 13161 27277.5 13154.5 27285.3 13148.3 27293.3 13142.5 27301.6 13136.9 27310.1 13131.7 27318.8 13126.8 27327.6 13122.2 27336.7 13118 27345.9 13114.1 27355.2 13110.6 27364.7 13107.4 27374.4 13104.6 27384.1 13102.2 27393.9 13100.1 27403.8 13098.4 27413.8 13097.1 27423.9 13096.2 27434 13095.6 27444.1 13095.4 27454.2 M 13095.3 27454.2 13095.3 28131.6 M 13095.4 28131.6 13095.6 28142 13096.2 28152.3 13097.2 28162.7 13098.6 28173 13100.4 28183.2 13102.5 28193.3 13105.1 28203.4 13108 28213.3 13111.3 28223.2 13115 28232.9 13119.1 28242.4 13123.5 28251.8 13128.3 28261 13133.4 28270 13138.9 28278.9 13144.7 28287.5 13150.9 28295.8 13157.3 28304 13164.1 28311.8 13171.1 28319.4 13178.4 28326.8 13186.1 28333.8 13193.9 28340.6 13202.1 28347 13210.4 28353.2 13219 28359 13227.9 28364.5 13236.9 28369.6 13246.1 28374.4 13255.5 28378.8 13265 28382.9 13274.7 28386.6 13284.6 28389.9 13294.5 28392.8 13304.6 28395.4 13314.7 28397.5 13324.9 28399.3 13335.2 28400.7 13345.6 28401.7 13355.9 28402.3 13366.3 28402.5 13637.2 28402.5 M 14167.3 28131.6 14506 28402.5 14506 27183.3 M 14167.3 27183.3 14844.7 27183.3" fill="none" stroke-width="203.2"/><path d="M 18355.4 28363.7 18355.4 30563.7 M 16262 30563.7 16262 28363.7" fill="none" stroke-width="127"/><path d="M 16922.6 31792 17193.5 31792 M 16922.6 31792 16912.5 31792.2 16902.4 31792.8 16892.3 31793.7 16882.2 31795 16872.2 31796.7 16862.3 31798.8 16852.5 31801.2 16842.8 31804 16833.1 31807.2 16823.6 31810.7 16814.3 31814.6 16805.1 31818.8 16796 31823.4 16787.2 31828.3 16778.5 31833.5 16770 31839.1 16761.7 31844.9 16753.7 31851.1 16745.9 31857.6 16738.3 31864.3 16731 31871.3 16724 31878.6 16717.3 31886.2 16710.8 31894 16704.6 31902 16698.8 31910.3 16693.2 31918.8 16688 31927.5 16683.1 31936.3 16678.5 31945.4 16674.3 31954.6 16670.4 31963.9 16666.9 31973.4 16663.7 31983.1 16660.9 31992.8 16658.5 32002.6 16656.4 32012.5 16654.7 32022.5 16653.4 32032.6 16652.5 32042.7 16651.9 32052.8 16651.7 32062.9 M 16651.6 32062.9 16651.6 32740.2 M 16651.7 32740.2 16651.9 32750.6 16652.5 32760.9 16653.5 32771.3 16654.9 32781.6 16656.7 32791.8 16658.8 32801.9 16661.4 32812 16664.3 32821.9 16667.6 32831.8 16671.3 32841.5 16675.4 32851 16679.8 32860.4 16684.6 32869.6 16689.7 32878.6 16695.2 32887.5 16701 32896.1 16707.2 32904.4 16713.6 32912.6 16720.4 32920.4 16727.4 32928 16734.7 32935.4 16742.4 32942.4 16750.2 32949.2 16758.4 32955.6 16766.7 32961.8 16775.3 32967.6 16784.2 32973.1 16793.2 32978.2 16802.4 32983 16811.8 32987.4 16821.3 32991.5 16831 32995.2 16840.9 32998.5 16850.8 33001.4 16860.9 33004 16871 33006.1 16881.2 33007.9 16891.5 33009.3 16901.9 33010.3 16912.2 33010.9 16922.6 33011.1 M 16922.6 33011.2 17193.5 33011.2 M 18096.2 33011.2 18107.1 33011 18117.9 33010.4 18128.8 33009.5 18139.6 33008.1 18150.3 33006.4 18161 33004.2 18171.6 33001.7 18182.1 32998.9 18192.5 32995.6 18202.7 32992 18212.8 32988 18222.8 32983.7 18232.6 32979 18242.3 32973.9 18251.7 32968.5 18261 32962.8 18270 32956.8 18278.9 32950.4 18287.5 32943.7 18295.8 32936.8 18303.9 32929.5 18311.7 32921.9 18319.3 32914.1 18326.6 32906 18333.5 32897.7 18340.2 32889.1 18346.6 32880.2 18352.6 32871.2 18358.3 32861.9 18363.7 32852.5 18368.8 32842.8 18373.5 32833 18377.8 32823 18381.8 32812.9 18385.4 32802.7 18388.7 32792.3 18391.5 32781.8 18394 32771.2 18396.2 32760.5 18397.9 32749.8 18399.3 32739 18400.2 32728.1 18400.8 32717.3 18401 32706.4 M 18096.2 33011.2 18083.9 33011 18071.6 33010.4 18059.3 33009.5 18047.1 33008.1 18034.9 33006.4 18022.8 33004.3 18010.7 33001.8 17998.7 32998.9 17986.9 32995.6 17975.1 32992 17963.5 32988 17951.9 32983.7 17940.6 32978.9 17929.3 32973.9 17918.3 32968.5 17907.4 32962.7 17896.7 32956.6 17886.2 32950.1 17875.9 32943.4 17865.9 32936.3 17856 32928.9 17846.4 32921.2 17837.1 32913.2 17828 32904.9 17819.1 32896.3 17810.6 32887.5 17802.3 32878.4 17794.3 32869 17786.6 32859.4 17779.2 32849.5 17772.2 32839.5 17765.4 32829.2 17759 32818.7 17752.9 32808 17747.1 32797.1 17741.7 32786 17736.7 32774.8 17732 32763.4 17727.6 32751.9 17723.7 32740.3 M 18299.4 32469.3 18307.3 32477.1 18314.9 32485.1 18322.2 32493.3 18329.2 32501.9 18336 32510.6 18342.5 32519.6 18348.6 32528.7 18354.4 32538.1 18360 32547.7 18365.1 32557.4 18370 32567.4 18374.5 32577.4 18378.7 32587.7 18382.5 32598 18386 32608.5 18389.1 32619.1 18391.9 32629.8 18394.3 32640.6 18396.4 32651.4 18398 32662.3 18399.3 32673.3 18400.3 32684.3 18400.8 32695.4 18401 32706.4 M 18299.4 32469.3 17723.6 31792 18401 31792" fill="none" stroke-width="203.2"/><path d="M 7651.7 6319.6 4097 6319.6 M 7651.7 6319.6 7651.7 8797.6 4097 8797.6" fill="none" stroke-width="120"/><path d="M 4079.9 5583 4079.9 4363.8 M 4079.9 5583 4418.6 5583 4430.2 5582.8 4441.7 5582.2 4453.2 5581.2 4464.7 5579.8 4476.1 5578.1 4487.5 5575.9 4498.8 5573.4 4510 5570.4 4521.1 5567.1 4532 5563.4 4542.9 5559.4 4553.5 5555 4564.1 5550.2 4574.4 5545 4584.6 5539.5 4594.6 5533.7 4604.4 5527.5 4613.9 5521 4623.3 5514.2 4632.4 5507 4641.2 5499.6 4649.8 5491.8 4658.1 5483.8 4666.1 5475.5 4673.9 5466.9 4681.3 5458 4688.5 5449 4695.3 5439.6 4701.8 5430.1 4708 5420.3 4713.8 5410.3 4719.3 5400.1 4724.5 5389.8 4729.3 5379.2 4733.7 5368.6 4737.7 5357.7 4741.4 5346.8 4744.7 5335.7 4747.7 5324.5 4750.2 5313.2 4752.4 5301.8 4754.1 5290.4 4755.5 5278.9 4756.5 5267.4 4757.1 5255.9 4757.3 5244.3 4757.3 4702.5 4757.1 4690.9 4756.5 4679.4 4755.5 4667.9 4754.1 4656.4 4752.4 4645 4750.2 4633.6 4747.7 4622.3 4744.7 4611.1 4741.4 4600 4737.7 4589.1 4733.7 4578.2 4729.3 4567.6 4724.5 4557 4719.3 4546.7 4713.8 4536.5 4708 4526.5 4701.8 4516.7 4695.3 4507.2 4688.5 4497.8 4681.3 4488.8 4673.9 4479.9 4666.1 4471.3 4658.1 4463 4649.8 4455 4641.2 4447.2 4632.4 4439.8 4623.3 4432.6 4613.9 4425.8 4604.4 4419.3 4594.6 4413.1 4584.6 4407.3 4574.4 4401.8 4564.1 4396.6 4553.5 4391.8 4542.9 4387.4 4532 4383.4 4521.1 4379.7 4510 4376.4 4498.8 4373.4 4487.5 4370.9 4476.2 4368.7 4464.7 4367 4453.2 4365.6 4441.7 4364.6 4430.2 4364 4418.6 4363.8 4079.9 4363.8 M 5402.7 5312.1 5741.4 5583 5741.4 4363.8 M 5402.7 4363.8 6080.1 4363.8" fill="none" stroke-width="203.2"/><path d="M 14040.7 6381 17595.4 6381 17595.4 8859 14040.7 8859" fill="none" stroke-width="120"/><path d="M 14023.6 5644.4 14023.6 4425.2 M 14023.6 5644.4 14362.2 5644.4 14373.8 5644.2 14385.3 5643.6 14396.8 5642.6 14408.3 5641.2 14419.7 5639.5 14431.1 5637.3 14442.4 5634.8 14453.6 5631.8 14464.7 5628.5 14475.6 5624.8 14486.5 5620.8 14497.1 5616.4 14507.7 5611.6 14518 5606.4 14528.2 5600.9 14538.2 5595.1 14548 5588.9 14557.5 5582.4 14566.9 5575.6 14576 5568.4 14584.8 5561 14593.4 5553.2 14601.7 5545.2 14609.7 5536.9 14617.5 5528.3 14624.9 5519.4 14632.1 5510.4 14638.9 5501 14645.4 5491.5 14651.6 5481.7 14657.4 5471.7 14662.9 5461.5 14668.1 5451.2 14672.9 5440.6 14677.3 5430 14681.3 5419.1 14685 5408.2 14688.3 5397.1 14691.3 5385.9 14693.8 5374.6 14696 5363.2 14697.7 5351.8 14699.1 5340.3 14700.1 5328.8 14700.7 5317.3 14700.9 5305.7 14700.9 4763.9 14700.7 4752.3 14700.1 4740.8 14699.1 4729.3 14697.7 4717.8 14696 4706.4 14693.8 4695 14691.3 4683.7 14688.3 4672.5 14685 4661.4 14681.3 4650.5 14677.3 4639.6 14672.9 4629 14668.1 4618.4 14662.9 4608.1 14657.4 4597.9 14651.6 4587.9 14645.4 4578.1 14638.9 4568.6 14632.1 4559.2 14624.9 4550.2 14617.5 4541.3 14609.7 4532.7 14601.7 4524.4 14593.4 4516.4 14584.8 4508.6 14576 4501.2 14566.9 4494 14557.5 4487.2 14548 4480.7 14538.2 4474.5 14528.2 4468.7 14518 4463.2 14507.7 4458 14497.1 4453.2 14486.5 4448.8 14475.6 4444.8 14464.7 4441.1 14453.6 4437.8 14442.4 4434.8 14431.1 4432.3 14419.8 4430.1 14408.3 4428.4 14396.8 4427 14385.3 4426 14373.8 4425.4 14362.2 4425.2 14023.6 4425.2 M 15718.9 5644.4 15729.8 5644.2 15740.6 5643.6 15751.5 5642.7 15762.3 5641.3 15773 5639.6 15783.7 5637.4 15794.3 5634.9 15804.8 5632.1 15815.2 5628.8 15825.4 5625.2 15835.5 5621.2 15845.5 5616.9 15855.3 5612.2 15865 5607.1 15874.4 5601.7 15883.7 5596 15892.7 5590 15901.6 5583.6 15910.2 5576.9 15918.5 5570 15926.6 5562.7 15934.4 5555.1 15942 5547.3 15949.3 5539.2 15956.2 5530.9 15962.9 5522.3 15969.3 5513.4 15975.3 5504.4 15981 5495.1 15986.4 5485.7 15991.5 5476 15996.2 5466.2 16000.5 5456.2 16004.5 5446.1 16008.1 5435.9 16011.4 5425.5 16014.2 5415 16016.7 5404.4 16018.9 5393.7 16020.6 5383 16022 5372.2 16022.9 5361.3 16023.5 5350.5 16023.7 5339.6 M 15718.9 5644.4 15706.6 5644.2 15694.3 5643.6 15682 5642.7 15669.8 5641.3 15657.6 5639.6 15645.5 5637.5 15633.4 5635 15621.4 5632.1 15609.6 5628.8 15597.8 5625.2 15586.2 5621.2 15574.6 5616.9 15563.3 5612.1 15552 5607.1 15541 5601.7 15530.1 5595.9 15519.4 5589.8 15508.9 5583.3 15498.6 5576.6 15488.6 5569.5 15478.7 5562.1 15469.1 5554.4 15459.8 5546.4 15450.7 5538.1 15441.8 5529.5 15433.3 5520.7 15425 5511.6 15417 5502.2 15409.3 5492.6 15401.9 5482.7 15394.9 5472.7 15388.1 5462.4 15381.7 5451.9 15375.6 5441.2 15369.8 5430.3 15364.4 5419.2 15359.4 5408 15354.7 5396.6 15350.3 5385.1 15346.4 5373.5 M 15922.1 5102.5 15930 5110.3 15937.6 5118.3 15944.9 5126.5 15951.9 5135.1 15958.7 5143.8 15965.2 5152.8 15971.3 5161.9 15977.1 5171.3 15982.7 5180.9 15987.8 5190.6 15992.7 5200.6 15997.2 5210.6 16001.4 5220.9 16005.2 5231.2 16008.7 5241.7 16011.8 5252.3 16014.6 5263 16017 5273.8 16019.1 5284.6 16020.7 5295.5 16022 5306.5 16023 5317.5 16023.5 5328.6 16023.7 5339.6 M 15922.1 5102.5 15346.4 4425.2 16023.7 4425.2" fill="none" stroke-width="203.2"/><path d="M 4920 13970 4031 13335 M 4920 13970 6825 12700 6825 11430 6444 11430 6444 10160 M 13556 10160 13556 11430 13175 11430 13175 12700 15080 13970 15969 13335 M 10889 19177 9873 18161 9492 18542 9492 17780 8603 16891 M 10381 17653 11397 18669 M 10381 17653 10762 17272 10000 17272 9111 16383 M 6444 10160 13556 10160 M 15969 11430 15969 13335 M 4031 13335 4031 11430 M 16350 11176 16350 13589 M 3650 13589 3650 11049 M 2380 17780 2382.3 17965.6 2389 18151 2400.3 18336.2 2416.1 18521.1 2436.4 18705.6 2461.2 18889.5 2490.5 19072.7 2524.2 19255.2 2562.3 19436.8 2604.9 19617.4 2651.8 19797 2703.1 19975.3 2758.7 20152.4 2818.6 20328 2882.8 20502.1 2951.2 20674.6 3023.8 20845.4 3100.5 21014.4 3181.3 21181.4 3266.1 21346.4 3355 21509.4 3447.8 21670.1 3544.4 21828.5 3644.9 21984.5 3749.2 22138 3857.2 22288.9 3968.8 22437.1 4084 22582.6 4202.7 22725.3 4324.8 22865 4450.3 23001.7 4579.1 23135.2 4711.2 23265.7 4846.3 23392.8 4984.5 23516.7 5125.7 23637.1 5269.8 23754 5416.6 23867.5 5566.2 23977.3 5718.5 24083.4 5873.2 24185.8 6030.4 24284.4 6190 24379.1 6351.8 24469.9 6515.8 24556.8 6681.9 24639.6 6849.9 24718.4 7019.8 24793 7191.4 24863.5 7364.8 24929.8 7539.7 24991.9 7716 25049.6 7893.7 25103.1 8072.6 25152.2 8252.7 25197 8433.9 25237.3 8615.9 25273.2 8798.8 25304.7 8982.4 25331.7 9166.6 25354.3 9351.3 25372.3 9536.4 25385.9 9721.7 25394.9 9907.2 25399.4 10092.8 25399.4 10278.3 25394.9 10463.6 25385.9 10648.7 25372.3 10833.4 25354.3 11017.6 25331.7 11201.2 25304.7 11384.1 25273.2 11566.1 25237.3 11747.3 25197 11927.4 25152.2 12106.3 25103.1 12284 25049.6 12460.3 24991.9 12635.2 24929.8 12808.6 24863.5 12980.2 24793 13150.1 24718.4 13318.1 24639.6 13484.2 24556.8 13648.2 24469.9 13810 24379.1 13969.6 24284.4 14126.8 24185.8 14281.5 24083.4 14433.8 23977.3 14583.4 23867.5 14730.2 23754 14874.3 23637.1 15015.5 23516.7 15153.7 23392.8 15288.8 23265.7 15420.9 23135.2 15549.7 23001.7 15675.2 22865 15797.3 22725.3 15916 22582.6 16031.2 22437.1 16142.8 22288.9 16250.8 22138 16355.1 21984.5 16455.6 21828.5 16552.2 21670.1 16645 21509.4 16733.9 21346.4 16818.7 21181.4 16899.5 21014.4 16976.2 20845.4 17048.8 20674.6 17117.2 20502.1 17181.4 20328 17241.3 20152.4 17296.9 19975.3 17348.2 19797 17395.1 19617.4 17437.7 19436.8 17475.8 19255.2 17509.5 19072.7 17538.8 18889.5 17563.6 18705.6 17583.9 18521.1 17599.7 18336.2 17611 18151 17617.7 17965.6 17620 17780 17617.7 17593.4 17610.9 17406.8 17599.4 17220.5 17583.4 17034.5 17562.9 16848.9 17537.8 16663.9 17508.2 16479.6 17474.1 16296.1 17435.5 16113.4 17392.4 15931.8 17344.9 15751.2 17293 15571.9 17236.7 15393.9 17176.1 15217.3 17111.2 15042.3 17042 14868.9 16968.5 14697.3 16890.9 14527.5 16809.2 14359.7 16723.3 14193.9 16633.5 14030.2 16539.6 13868.9 16441.8 13709.8 16340.2 13553.2 M 3659.8 13553.2 3558.2 13709.8 3460.4 13868.9 3366.5 14030.2 3276.7 14193.9 3190.8 14359.7 3109.1 14527.5 3031.5 14697.3 2958 14868.9 2888.8 15042.3 2823.9 15217.3 2763.3 15393.9 2707 15571.9 2655.1 15751.2 2607.6 15931.8 2564.5 16113.4 2525.9 16296.1 2491.8 16479.6 2462.2 16663.9 2437.1 16848.9 2416.6 17034.5 2400.6 17220.5 2389.1 17406.8 2382.3 17593.4 2380 17780 M 8196.6 17780 8197.1 17824.3 8198.8 17868.5 8201.5 17912.7 8205.3 17956.8 8210.2 18000.8 8216.1 18044.6 8223.2 18088.3 8231.3 18131.8 8240.4 18175.1 8250.6 18218.2 8261.9 18261 8274.3 18303.5 8287.6 18345.7 8302 18387.5 8317.4 18429 8333.9 18470.1 8351.3 18510.8 8369.7 18551.1 8389.2 18590.8 8409.5 18630.1 8430.9 18668.9 8453.2 18707.1 8476.4 18744.8 8500.5 18781.9 8525.6 18818.4 8551.5 18854.3 8578.3 18889.5 8606 18924.1 8634.4 18957.9 8663.8 18991.1 8693.9 19023.5 8724.8 19055.2 8756.5 19086.1 8788.9 19116.2 8822.1 19145.6 8855.9 19174 8890.5 19201.7 8925.7 19228.5 8961.6 19254.4 8998.1 19279.5 9035.2 19303.6 9072.9 19326.8 9111.1 19349.1 9149.9 19370.5 9189.2 19390.8 9228.9 19410.3 9269.2 19428.7 9309.9 19446.1 9351 19462.6 9392.5 19478 9434.3 19492.4 9476.5 19505.7 9519 19518.1 9561.8 19529.4 9604.9 19539.6 9648.2 19548.7 9691.7 19556.8 9735.4 19563.9 9779.2 19569.8 9823.2 19574.7 9867.3 19578.5 9911.5 19581.2 9955.7 19582.9 10000 19583.4 10044.3 19582.9 10088.5 19581.2 10132.7 19578.5 10176.8 19574.7 10220.8 19569.8 10264.6 19563.9 10308.3 19556.8 10351.8 19548.7 10395.1 19539.6 10438.2 19529.4 10481 19518.1 10523.5 19505.7 10565.7 19492.4 10607.5 19478 10649 19462.6 10690.1 19446.1 10730.8 19428.7 10771.1 19410.3 10810.8 19390.8 10850.1 19370.5 10888.9 19349.1 10927.1 19326.8 10964.8 19303.6 11001.9 19279.5 11038.4 19254.4 11074.3 19228.5 11109.5 19201.7 11144.1 19174 11177.9 19145.6 11211.1 19116.2 11243.5 19086.1 11275.2 19055.2 11306.1 19023.5 11336.2 18991.1 11365.6 18957.9 11394 18924.1 11421.7 18889.5 11448.5 18854.3 11474.4 18818.4 11499.5 18781.9 11523.6 18744.8 11546.8 18707.1 11569.1 18668.9 11590.5 18630.1 11610.8 18590.8 11630.3 18551.1 11648.7 18510.8 11666.1 18470.1 11682.6 18429 11698 18387.5 11712.4 18345.7 11725.7 18303.5 11738.1 18261 11749.4 18218.2 11759.6 18175.1 11768.7 18131.8 11776.8 18088.3 11783.9 18044.6 11789.8 18000.8 11794.7 17956.8 11798.5 17912.7 11801.2 17868.5 11802.9 17824.3 11803.4 17780 11802.9 17735.7 11801.2 17691.5 11798.5 17647.3 11794.7 17603.2 11789.8 17559.2 11783.9 17515.4 11776.8 17471.7 11768.7 17428.2 11759.6 17384.9 11749.4 17341.8 11738.1 17299 11725.7 17256.5 11712.4 17214.3 11698 17172.5 11682.6 17131 11666.1 17089.9 11648.7 17049.2 11630.3 17008.9 11610.8 16969.2 11590.5 16929.9 11569.1 16891.1 11546.8 16852.9 11523.6 16815.2 11499.5 16778.1 11474.4 16741.6 11448.5 16705.7 11421.7 16670.5 11394 16635.9 11365.6 16602.1 11336.2 16568.9 11306.1 16536.5 11275.2 16504.8 11243.5 16473.9 11211.1 16443.8 11177.9 16414.4 11144.1 16386 11109.5 16358.3 11074.3 16331.5 11038.4 16305.6 11001.9 16280.5 10964.8 16256.4 10927.1 16233.2 10888.9 16210.9 10850.1 16189.5 10810.8 16169.2 10771.1 16149.7 10730.8 16131.3 10690.1 16113.9 10649 16097.4 10607.5 16082 10565.7 16067.6 10523.5 16054.3 10481 16041.9 10438.2 16030.6 10395.1 16020.4 10351.8 16011.3 10308.3 16003.2 10264.6 15996.1 10220.8 15990.2 10176.8 15985.3 10132.7 15981.5 10088.5 15978.8 10044.3 15977.1 10000 15976.6 9955.7 15977.1 9911.5 15978.8 9867.3 15981.5 9823.2 15985.3 9779.2 15990.2 9735.4 15996.1 9691.7 16003.2 9648.2 16011.3 9604.9 16020.4 9561.8 16030.6 9519 16041.9 9476.5 16054.3 9434.3 16067.6 9392.5 16082 9351 16097.4 9309.9 16113.9 9269.2 16131.3 9228.9 16149.7 9189.2 16169.2 9149.9 16189.5 9111.1 16210.9 9072.9 16233.2 9035.2 16256.4 8998.1 16280.5 8961.6 16305.6 8925.7 16331.5 8890.5 16358.3 8855.9 16386 8822.1 16414.4 8788.9 16443.8 8756.5 16473.9 8724.8 16504.8 8693.9 16536.5 8663.8 16568.9 8634.4 16602.1 8606 16635.9 8578.3 16670.5 8551.5 16705.7 8525.6 16741.6 8500.5 16778.1 8476.4 16815.2 8453.2 16852.9 8430.9 16891.1 8409.5 16929.9 8389.2 16969.2 8369.7 17008.9 8351.3 17049.2 8333.9 17089.9 8317.4 17131 8302 17172.5 8287.6 17214.3 8274.3 17256.5 8261.9 17299 8250.6 17341.8 8240.4 17384.9 8231.3 17428.2 8223.2 17471.7 8216.1 17515.4 8210.2 17559.2 8205.3 17603.2 8201.5 17647.3 8198.8 17691.5 8197.1 17735.7 8196.6 17780 M 7206 17780 7206.8 17848.6 7209.4 17917.1 7213.6 17985.5 7219.5 18053.9 7227 18122 7236.2 18190 7247.1 18257.7 7259.7 18325.1 7273.9 18392.2 7289.7 18458.9 7307.2 18525.2 7326.3 18591.1 7347 18656.4 7369.3 18721.3 7393.2 18785.5 7418.7 18849.2 7445.7 18912.2 7474.3 18974.6 7504.3 19036.2 7535.9 19097.1 7569 19157.2 7603.5 19216.4 7639.5 19274.8 7676.9 19332.3 7715.7 19388.8 7755.8 19444.4 7797.4 19499 7840.2 19552.5 7884.4 19605 7929.8 19656.3 7976.5 19706.6 8024.3 19755.7 8073.4 19803.5 8123.7 19850.2 8175 19895.6 8227.5 19939.8 8281 19982.6 8335.6 20024.2 8391.2 20064.3 8447.7 20103.1 8505.2 20140.5 8563.6 20176.5 8622.8 20211 8682.9 20244.1 8743.8 20275.7 8805.4 20305.7 8867.8 20334.3 8930.8 20361.3 8994.5 20386.8 9058.7 20410.7 9123.6 20433 9188.9 20453.7 9254.8 20472.8 9321.1 20490.3 9387.8 20506.1 9454.9 20520.3 9522.3 20532.9 9590 20543.8 9658 20553 9726.1 20560.5 9794.5 20566.4 9862.9 20570.6 9931.4 20573.2 10000 20574 10068.6 20573.2 10137.1 20570.6 10205.5 20566.4 10273.9 20560.5 10342 20553 10410 20543.8 10477.7 20532.9 10545.1 20520.3 10612.2 20506.1 10678.9 20490.3 10745.2 20472.8 10811.1 20453.7 10876.4 20433 10941.3 20410.7 11005.5 20386.8 11069.2 20361.3 11132.2 20334.3 11194.6 20305.7 11256.2 20275.7 11317.1 20244.1 11377.2 20211 11436.4 20176.5 11494.8 20140.5 11552.3 20103.1 11608.8 20064.3 11664.4 20024.2 11719 19982.6 11772.5 19939.8 11825 19895.6 11876.3 19850.2 11926.6 19803.5 11975.7 19755.7 12023.5 19706.6 12070.2 19656.3 12115.6 19605 12159.8 19552.5 12202.6 19499 12244.2 19444.4 12284.3 19388.8 12323.1 19332.3 12360.5 19274.8 12396.5 19216.4 12431 19157.2 12464.1 19097.1 12495.7 19036.2 12525.7 18974.6 12554.3 18912.2 12581.3 18849.2 12606.8 18785.5 12630.7 18721.3 12653 18656.4 12673.7 18591.1 12692.8 18525.2 12710.3 18458.9 12726.1 18392.2 12740.3 18325.1 12752.9 18257.7 12763.8 18190 12773 18122 12780.5 18053.9 12786.4 17985.5 12790.6 17917.1 12793.2 17848.6 12794 17780 12793.2 17711.4 12790.6 17642.9 12786.4 17574.5 12780.5 17506.1 12773 17438 12763.8 17370 12752.9 17302.3 12740.3 17234.9 12726.1 17167.8 12710.3 17101.1 12692.8 17034.8 12673.7 16968.9 12653 16903.6 12630.7 16838.7 12606.8 16774.5 12581.3 16710.8 12554.3 16647.8 12525.7 16585.4 12495.7 16523.8 12464.1 16462.9 12431 16402.8 12396.5 16343.6 12360.5 16285.2 12323.1 16227.7 12284.3 16171.2 12244.2 16115.6 12202.6 16061 12159.8 16007.5 12115.6 15955 12070.2 15903.7 12023.5 15853.4 11975.7 15804.3 11926.6 15756.5 11876.3 15709.8 11825 15664.4 11772.5 15620.2 11719 15577.4 11664.4 15535.8 11608.8 15495.7 11552.3 15456.9 11494.8 15419.5 11436.4 15383.5 11377.2 15349 11317.1 15315.9 11256.2 15284.3 11194.6 15254.3 11132.2 15225.7 11069.2 15198.7 11005.5 15173.2 10941.3 15149.3 10876.4 15127 10811.1 15106.3 10745.2 15087.2 10678.9 15069.7 10612.2 15053.9 10545.1 15039.7 10477.7 15027.1 10410 15016.2 10342 15007 10273.9 14999.5 10205.5 14993.6 10137.1 14989.4 10068.6 14986.8 10000 14986 9931.4 14986.8 9862.9 14989.4 9794.5 14993.6 9726.1 14999.5 9658 15007 9590 15016.2 9522.3 15027.1 9454.9 15039.7 9387.8 15053.9 9321.1 15069.7 9254.8 15087.2 9188.9 15106.3 9123.6 15127 9058.7 15149.3 8994.5 15173.2 8930.8 15198.7 8867.8 15225.7 8805.4 15254.3 8743.8 15284.3 8682.9 15315.9 8622.8 15349 8563.6 15383.5 8505.2 15419.5 8447.7 15456.9 8391.2 15495.7 8335.6 15535.8 8281 15577.4 8227.5 15620.2 8175 15664.4 8123.7 15709.8 8073.4 15756.5 8024.3 15804.3 7976.5 15853.4 7929.8 15903.7 7884.4 15955 7840.2 16007.5 7797.4 16061 7755.8 16115.6 7715.7 16171.2 7676.9 16227.7 7639.5 16285.2 7603.5 16343.6 7569 16402.8 7535.9 16462.9 7504.3 16523.8 7474.3 16585.4 7445.7 16647.8 7418.7 16710.8 7393.2 16774.5 7369.3 16838.7 7347 16903.6 7326.3 16968.9 7307.2 17034.8 7289.7 17101.1 7273.9 17167.8 7259.7 17234.9 7247.1 17302.3 7236.2 17370 7227 17438 7219.5 17506.1 7213.6 17574.5 7209.4 17642.9 7206.8 17711.4 7206 17780" fill="none" stroke-width="152.4"/><path d="M 17721.6 16052.8 17721.6 14833.6 M 17721.6 16052.8 18060.3 16052.8 18071.9 16052.6 18083.4 16052 18094.9 16051 18106.4 16049.6 18117.8 16047.9 18129.2 16045.7 18140.5 16043.2 18151.7 16040.2 18162.8 16036.9 18173.7 16033.2 18184.6 16029.2 18195.2 16024.8 18205.8 16020 18216.1 16014.8 18226.3 16009.3 18236.3 16003.5 18246.1 15997.3 18255.6 15990.8 18265 15984 18274 15976.8 18282.9 15969.4 18291.5 15961.6 18299.8 15953.6 18307.8 15945.3 18315.6 15936.7 18323 15927.8 18330.2 15918.8 18337 15909.4 18343.5 15899.9 18349.7 15890.1 18355.5 15880.1 18361 15869.9 18366.2 15859.6 18371 15849 18375.4 15838.4 18379.4 15827.5 18383.1 15816.6 18386.4 15805.5 18389.4 15794.3 18391.9 15783 18394.1 15771.6 18395.8 15760.2 18397.2 15748.7 18398.2 15737.2 18398.8 15725.7 18399 15714.1 18398.8 15702.5 18398.2 15691 18397.2 15679.5 18395.8 15668 18394.1 15656.6 18391.9 15645.2 18389.4 15633.9 18386.4 15622.7 18383.1 15611.6 18379.4 15600.7 18375.4 15589.8 18371 15579.2 18366.2 15568.6 18361 15558.3 18355.5 15548.1 18349.7 15538.1 18343.5 15528.3 18337 15518.8 18330.2 15509.4 18323 15500.4 18315.6 15491.5 18307.8 15482.9 18299.8 15474.6 18291.5 15466.6 18282.9 15458.8 18274 15451.4 18265 15444.2 18255.6 15437.4 18246.1 15430.9 18236.3 15424.7 18226.3 15418.9 18216.1 15413.4 18205.8 15408.2 18195.2 15403.4 18184.6 15399 18173.7 15395 18162.8 15391.3 18151.7 15388 18140.5 15385 18129.2 15382.5 18117.8 15380.3 18106.4 15378.6 18094.9 15377.2 18083.4 15376.2 18071.9 15375.6 18060.3 15375.4 M 18060.3 15375.5 17721.6 15375.5 M 18128 15375.5 18398.9 14833.6 M 18990.3 14833.6 19328.9 14833.6 19340.5 14833.8 19352 14834.4 19363.5 14835.4 19375 14836.8 19386.4 14838.5 19397.8 14840.7 19409.1 14843.2 19420.3 14846.2 19431.4 14849.5 19442.3 14853.2 19453.2 14857.2 19463.8 14861.6 19474.4 14866.4 19484.7 14871.6 19494.9 14877.1 19504.9 14882.9 19514.7 14889.1 19524.2 14895.6 19533.6 14902.4 19542.6 14909.6 19551.5 14917 19560.1 14924.8 19568.4 14932.8 19576.4 14941.1 19584.2 14949.7 19591.6 14958.6 19598.8 14967.6 19605.6 14977 19612.1 14986.5 19618.3 14996.3 19624.1 15006.3 19629.6 15016.5 19634.8 15026.8 19639.6 15037.4 19644 15048 19648 15058.9 19651.7 15069.8 19655 15080.9 19658 15092.1 19660.5 15103.4 19662.7 15114.8 19664.4 15126.2 19665.8 15137.7 19666.8 15149.2 19667.4 15160.7 19667.6 15172.3 19667.4 15183.9 19666.8 15195.4 19665.8 15206.9 19664.4 15218.4 19662.7 15229.8 19660.5 15241.2 19658 15252.5 19655 15263.7 19651.7 15274.8 19648 15285.7 19644 15296.6 19639.6 15307.2 19634.8 15317.8 19629.6 15328.1 19624.1 15338.3 19618.3 15348.3 19612.1 15358.1 19605.6 15367.6 19598.8 15377 19591.6 15386 19584.2 15394.9 19576.4 15403.5 19568.4 15411.8 19560.1 15419.8 19551.5 15427.6 19542.6 15435 19533.6 15442.2 19524.2 15449 19514.7 15455.5 19504.9 15461.7 19494.9 15467.5 19484.7 15473 19474.4 15478.2 19463.8 15483 19453.2 15487.4 19442.3 15491.4 19431.4 15495.1 19420.3 15498.4 19409.1 15501.4 19397.8 15503.9 19386.4 15506.1 19375 15507.8 19363.5 15509.2 19352 15510.2 19340.5 15510.8 19328.9 15511 M 19396.7 16052.8 18990.3 16052.8 M 19396.7 16052.8 19407 16052.6 19417.2 16052 19427.4 16051.1 19437.6 16049.7 19447.7 16048 19457.7 16045.8 19467.6 16043.3 19477.5 16040.5 19487.2 16037.2 19496.8 16033.6 19506.3 16029.7 19515.6 16025.3 19524.7 16020.7 19533.6 16015.6 19542.4 16010.3 19550.9 16004.6 19559.2 15998.6 19567.3 15992.3 19575.2 15985.7 19582.7 15978.8 19590.1 15971.6 19597.1 15964.2 19603.9 15956.5 19610.3 15948.5 19616.5 15940.3 19622.3 15931.9 19627.8 15923.2 19633 15914.4 19637.8 15905.3 19642.3 15896.1 19646.5 15886.8 19650.3 15877.2 19653.7 15867.6 19656.8 15857.8 19659.4 15847.9 19661.8 15837.9 19663.7 15827.8 19665.2 15817.7 19666.4 15807.5 19667.2 15797.3 19667.6 15787 19667.6 15776.8 19667.2 15766.5 19666.4 15756.3 19665.2 15746.1 19663.7 15736 19661.8 15725.9 19659.4 15715.9 19656.8 15706 19653.7 15696.2 19650.3 15686.6 19646.5 15677 19642.3 15667.7 19637.8 15658.5 19633 15649.4 19627.8 15640.6 19622.3 15631.9 19616.5 15623.5 19610.3 15615.3 19603.9 15607.3 19597.1 15599.6 19590.1 15592.2 19582.7 15585 19575.2 15578.1 19567.3 15571.5 19559.2 15565.2 19550.9 15559.2 19542.4 15553.5 19533.6 15548.2 19524.7 15543.1 19515.6 15538.5 19506.3 15534.1 19496.8 15530.2 19487.2 15526.6 19477.5 15523.3 19467.6 15520.5 19457.7 15518 19447.7 15515.8 19437.6 15514.1 19427.4 15512.7 19417.2 15511.8 19407 15511.2 19396.7 15511 M 19396.7 15510.9 19125.7 15510.9" fill="none" stroke-width="203.2"/><path d="M 14066.4 635 11526.4 635 11526.4 -1905 14066.4 -1905 14066.4 635" fill="none" stroke-width="152.4"/><path d="M 12796.4 -2540 12796.4 -8255" fill="none" stroke-width="762"/><path d="M 11526.4 635 8986.4 635 8986.4 -1905 11526.4 -1905" fill="none" stroke-width="152.4"/><path d="M 10256.4 -2540 10256.4 -8255" fill="none" stroke-width="762"/><path d="M 8986.4 635 6446.4 635 6446.4 -1905 8986.4 -1905" fill="none" stroke-width="152.4"/><path d="M 7716.4 -2540 7716.4 -8255" fill="none" stroke-width="762"/><use xlink:href="#QmVb6uGUDceyTnwR7K_T_pad-17" x="12796.4" y="-2159"/><use xlink:href="#QmVb6uGUDceyTnwR7K_T_pad-17" x="10256.4" y="-2159"/><use xlink:href="#QmVb6uGUDceyTnwR7K_T_pad-17" x="7716.4" y="-2159"/><use xlink:href="#QmVb6uGUDceyTnwR7K_T_pad-18" x="12796.4" y="1143"/><use xlink:href="#QmVb6uGUDceyTnwR7K_T_pad-18" x="10256.4" y="1143"/><use xlink:href="#QmVb6uGUDceyTnwR7K_T_pad-18" x="7716.4" y="1143"/><path d="M 14478 1103.9 14478 2052.2 M 14478 1103.9 14477.8 1093.8 14477.2 1083.7 14476.3 1073.6 14475 1063.5 14473.3 1053.5 14471.2 1043.6 14468.8 1033.8 14466 1024.1 14462.8 1014.4 14459.3 1004.9 14455.4 995.6 14451.2 986.4 14446.6 977.3 14441.7 968.4 14436.5 959.8 14430.9 951.3 14425.1 943 14418.9 935 14412.4 927.2 14405.7 919.6 14398.7 912.3 14391.4 905.3 14383.8 898.6 14376 892.1 14368 885.9 14359.7 880.1 14351.2 874.5 14342.6 869.3 14333.7 864.4 14324.6 859.8 14315.4 855.6 14306.1 851.7 14296.6 848.2 14286.9 845 14277.2 842.2 14267.4 839.8 14257.5 837.7 14247.5 836 14237.4 834.7 14227.3 833.8 14217.2 833.2 14207.1 833 14071.6 833 M 15185.3 833 15185.3 2052.2 15524 2052.2 15535.6 2052 15547.1 2051.4 15558.6 2050.4 15570.1 2049 15581.5 2047.3 15592.9 2045.1 15604.2 2042.6 15615.4 2039.6 15626.5 2036.3 15637.4 2032.6 15648.3 2028.6 15658.9 2024.2 15669.5 2019.4 15679.8 2014.2 15690 2008.7 15700 2002.9 15709.8 1996.7 15719.3 1990.2 15728.7 1983.4 15737.7 1976.2 15746.6 1968.8 15755.2 1961 15763.5 1953 15771.5 1944.7 15779.3 1936.1 15786.7 1927.2 15793.9 1918.2 15800.7 1908.8 15807.2 1899.3 15813.4 1889.5 15819.2 1879.5 15824.7 1869.3 15829.9 1859 15834.7 1848.4 15839.1 1837.8 15843.1 1826.9 15846.8 1816 15850.1 1804.9 15853.1 1793.7 15855.6 1782.4 15857.8 1771 15859.5 1759.6 15860.9 1748.1 15861.9 1736.6 15862.5 1725.1 15862.7 1713.5 15862.5 1701.9 15861.9 1690.4 15860.9 1678.9 15859.5 1667.4 15857.8 1656 15855.6 1644.6 15853.1 1633.3 15850.1 1622.1 15846.8 1611 15843.1 1600.1 15839.1 1589.2 15834.7 1578.6 15829.9 1568 15824.7 1557.7 15819.2 1547.5 15813.4 1537.5 15807.2 1527.7 15800.7 1518.2 15793.9 1508.8 15786.7 1499.8 15779.3 1490.9 15771.5 1482.3 15763.5 1474 15755.2 1466 15746.6 1458.2 15737.7 1450.8 15728.7 1443.6 15719.3 1436.8 15709.8 1430.3 15700 1424.1 15690 1418.3 15679.8 1412.8 15669.5 1407.6 15658.9 1402.8 15648.3 1398.4 15637.4 1394.4 15626.5 1390.7 15615.4 1387.4 15604.2 1384.4 15592.9 1381.9 15581.5 1379.7 15570.1 1378 15558.6 1376.6 15547.1 1375.6 15535.6 1375 15524 1374.8 M 15524 1374.9 15185.3 1374.9 M 16396.4 1781.3 16735.1 2052.2 16735.1 833 M 17073.7 833 16396.4 833 M 10261.6 47330.3 10261.6 48210.8 M 10261.6 47330.3 10261.8 47318.7 10262.4 47307.2 10263.4 47295.7 10264.8 47284.2 10266.5 47272.8 10268.7 47261.4 10271.2 47250.1 10274.2 47238.9 10277.5 47227.8 10281.2 47216.9 10285.2 47206 10289.6 47195.4 10294.4 47184.8 10299.6 47174.5 10305.1 47164.3 10310.9 47154.3 10317.1 47144.5 10323.6 47135 10330.4 47125.6 10337.6 47116.6 10345 47107.7 10352.8 47099.1 10360.8 47090.8 10369.1 47082.8 10377.7 47075 10386.6 47067.6 10395.6 47060.4 10405 47053.6 10414.5 47047.1 10424.3 47040.9 10434.3 47035.1 10444.5 47029.6 10454.8 47024.4 10465.4 47019.6 10476 47015.2 10486.9 47011.2 10497.8 47007.5 10508.9 47004.2 10520.1 47001.2 10531.4 46998.7 10542.8 46996.5 10554.2 46994.8 10565.7 46993.4 10577.2 46992.4 10588.7 46991.8 10600.3 46991.6 10611.9 46991.8 10623.4 46992.4 10634.9 46993.4 10646.4 46994.8 10657.8 46996.5 10669.2 46998.7 10680.5 47001.2 10691.7 47004.2 10702.8 47007.5 10713.7 47011.2 10724.6 47015.2 10735.2 47019.6 10745.8 47024.4 10756.1 47029.6 10766.3 47035.1 10776.3 47040.9 10786.1 47047.1 10795.6 47053.6 10805 47060.4 10814 47067.6 10822.9 47075 10831.5 47082.8 10839.8 47090.8 10847.8 47099.1 10855.6 47107.7 10863 47116.6 10870.2 47125.6 10877 47135 10883.5 47144.5 10889.7 47154.3 10895.5 47164.3 10901 47174.5 10906.2 47184.8 10911 47195.4 10915.4 47206 10919.4 47216.9 10923.1 47227.8 10926.4 47238.9 10929.4 47250.1 10931.9 47261.4 10934.1 47272.8 10935.8 47284.2 10937.2 47295.7 10938.2 47307.2 10938.8 47318.7 10939 47330.3 M 10938.9 47330.3 10938.9 48210.8 M 11837.8 48210.8 11837.8 46991.6 M 11837.8 47601.2 11668.4 47702.8 11660.9 47707.6 11653.6 47712.7 11646.5 47718 11639.6 47723.7 11633.1 47729.7 11626.7 47736 11620.7 47742.6 11615 47749.4 11609.5 47756.4 11604.4 47763.7 11599.6 47771.2 11595.2 47778.9 11591.1 47786.8 11587.3 47794.9 11583.9 47803.1 11580.9 47811.5 11578.2 47820 11575.9 47828.6 11574 47837.3 11572.5 47846 11571.3 47854.9 11570.6 47863.7 11570.2 47872.6 11570.3 47881.5 11570.7 47890.4 11571.5 47899.3 11572.7 47908.1 11574.3 47916.9 11576.3 47925.5 11578.6 47934.1 11581.4 47942.6 11584.5 47950.9 11587.9 47959.1 11591.8 47967.2 11595.9 47975 11600.4 47982.7 11605.3 47990.2 11610.5 47997.4 11616 48004.4 11621.7 48011.2 11627.8 48017.7 11634.2 48023.9 11640.8 48029.9 11647.7 48035.5 11654.8 48040.9 11662.2 48045.9 11669.7 48050.6 11677.5 48054.9 11685.5 48058.9 11693.6 48062.6 11701.8 48065.9 11710.3 48068.8 11718.8 48071.3 11727.4 48073.5 11736.1 48075.3 M 11736.1 48075.4 11750.3 48077.7 11764.5 48079.8 11778.7 48081.4 11793 48082.6 11807.3 48083.5 11821.6 48084 11835.9 48084.1 11850.3 48083.8 11864.6 48083.1 11878.9 48082.1 11893.1 48080.7 11907.4 48078.9 11921.5 48076.7 11935.6 48074.1 11949.7 48071.2 11963.6 48067.9 11977.5 48064.2 11991.2 48060.1 12004.8 48055.7 12018.3 48050.9 12031.7 48045.8 12045 48040.3 12058 48034.4 12071 48028.2 12083.7 48021.7 12096.3 48014.8 12108.7 48007.6 M 11837.8 47601.2 12007.1 47499.6 12014.6 47494.8 12021.9 47489.8 12029 47484.4 12035.9 47478.7 12042.4 47472.7 12048.7 47466.4 12054.8 47459.8 12060.5 47453 12065.9 47446 12071.1 47438.7 12075.9 47431.2 12080.3 47423.5 12084.4 47415.6 12088.2 47407.5 12091.6 47399.3 12094.6 47390.9 12097.3 47382.4 12099.6 47373.8 12101.5 47365.1 12103 47356.4 12104.2 47347.5 12104.9 47338.7 12105.3 47329.8 12105.2 47320.9 12104.8 47312 12104 47303.1 12102.8 47294.3 12101.2 47285.5 12099.2 47276.9 12096.9 47268.3 12094.1 47259.8 12091 47251.5 12087.6 47243.3 12083.7 47235.2 12079.6 47227.4 12075 47219.7 12070.2 47212.2 12065 47205 12059.5 47198 12053.8 47191.2 12047.7 47184.7 12041.3 47178.5 12034.7 47172.5 12027.8 47166.9 12020.7 47161.5 12013.3 47156.5 12005.8 47151.8 11998 47147.5 11990 47143.5 11981.9 47139.8 11973.6 47136.5 11965.2 47133.6 11956.7 47131.1 11948.1 47128.9 11939.4 47127.1 M 11939.3 47127 11925.2 47124.7 11911 47122.6 11896.8 47121 11882.5 47119.8 11868.2 47118.9 11853.9 47118.4 11839.5 47118.3 11825.2 47118.6 11810.9 47119.3 11796.6 47120.3 11782.3 47121.7 11768.1 47123.5 11754 47125.7 11739.9 47128.3 11725.8 47131.2 11711.9 47134.5 11698 47138.2 11684.3 47142.3 11670.7 47146.7 11657.2 47151.5 11643.8 47156.6 11630.5 47162.1 11617.5 47168 11604.5 47174.2 11591.8 47180.7 11579.2 47187.6 11566.8 47194.8 M 12693.9 47939.9 13032.6 48210.8 13032.6 46991.6 M 13371.2 46991.6 12693.9 46991.6" fill="none" stroke-width="203.2"/><path d="M 0 0 20320 0 20320 50000 16163.9 50000 16163.9 63389 4162.3 63389 4162.3 50000 0 50000 0 0" fill="none" stroke-width="254"/></g></svg>